NotoSansMongolian-Regular.ufo
<glyph name="exclam" format="2">
  <advance width="988"/>
  <unicode hex="0021"/>
  <outline>
    <contour>
      <point x="110" y="350" type="line"/>
      <point x="623" y="375" type="line"/>
      <point x="623" y="432" type="line"/>
      <point x="110" y="457" type="line"/>
    </contour>
    <contour>
      <point x="770" y="341" type="curve" smooth="yes"/>
      <point x="818" y="341"/>
      <point x="838" y="368"/>
      <point x="838" y="403" type="curve" smooth="yes"/>
      <point x="838" y="437"/>
      <point x="818" y="465"/>
      <point x="770" y="465" type="curve" smooth="yes"/>
      <point x="727" y="465"/>
      <point x="703" y="442"/>
      <point x="703" y="403" type="curve" smooth="yes"/>
      <point x="703" y="368"/>
      <point x="721" y="341"/>
    </contour>
  </outline>
</glyph>
<glyph name="quotedbl" format="2">
  <advance width="418"/>
  <unicode hex="0022"/>
  <outline>
    <contour>
      <point x="130" y="360" type="line"/>
      <point x="130" y="265" type="line"/>
      <point x="388" y="285" type="line"/>
      <point x="388" y="340" type="line"/>
    </contour>
    <contour>
      <point x="130" y="543" type="line"/>
      <point x="130" y="448" type="line"/>
      <point x="388" y="468" type="line"/>
      <point x="388" y="523" type="line"/>
    </contour>
  </outline>
</glyph>
<glyph name="parenleft" format="2">
  <advance width="400"/>
  <unicode hex="0028"/>
  <outline>
    <contour>
      <point x="83" y="400" type="curve" smooth="yes"/>
      <point x="83" y="239"/>
      <point x="129" y="85"/>
      <point x="230" y="-32" type="curve"/>
      <point x="312" y="-32" type="line"/>
      <point x="220" y="93"/>
      <point x="172" y="246"/>
      <point x="172" y="401" type="curve" smooth="yes"/>
      <point x="172" y="559"/>
      <point x="220" y="715"/>
      <point x="313" y="840" type="curve"/>
      <point x="230" y="840" type="line"/>
      <point x="129" y="719"/>
      <point x="83" y="563"/>
    </contour>
  </outline>
</glyph>
<glyph name="parenright" format="2">
  <advance width="400"/>
  <unicode hex="0029"/>
  <outline>
    <contour>
      <point x="338" y="400" type="curve" smooth="yes"/>
      <point x="338" y="563"/>
      <point x="292" y="719"/>
      <point x="191" y="840" type="curve"/>
      <point x="108" y="840" type="line"/>
      <point x="201" y="715"/>
      <point x="249" y="559"/>
      <point x="249" y="401" type="curve" smooth="yes"/>
      <point x="249" y="246"/>
      <point x="201" y="93"/>
      <point x="109" y="-32" type="curve"/>
      <point x="191" y="-32" type="line"/>
      <point x="292" y="85"/>
      <point x="338" y="239"/>
    </contour>
  </outline>
</glyph>
<glyph name="hyphen" format="2">
  <advance width="322"/>
  <unicode hex="002D"/>
  <outline>
    <contour>
      <point x="40" y="365" type="line"/>
      <point x="282" y="365" type="line"/>
      <point x="282" y="443" type="line"/>
      <point x="40" y="443" type="line"/>
    </contour>
  </outline>
</glyph>
<glyph name="question" format="2">
  <advance width="988"/>
  <unicode hex="003F"/>
  <outline>
    <contour>
      <point x="129" y="241" type="curve"/>
      <point x="199" y="272" type="line"/>
      <point x="170" y="333"/>
      <point x="157" y="370"/>
      <point x="157" y="432" type="curve" smooth="yes"/>
      <point x="157" y="511"/>
      <point x="193" y="553"/>
      <point x="257" y="553" type="curve" smooth="yes"/>
      <point x="317" y="553"/>
      <point x="348" y="523"/>
      <point x="406" y="453" type="curve" smooth="yes"/>
      <point x="436" y="417"/>
      <point x="464" y="395"/>
      <point x="487" y="385" type="curve" smooth="yes"/>
      <point x="510" y="375"/>
      <point x="539" y="369"/>
      <point x="576" y="369" type="curve" smooth="yes"/>
      <point x="603" y="369" type="line"/>
      <point x="603" y="439" type="line"/>
      <point x="586" y="439" type="line" smooth="yes"/>
      <point x="556" y="439"/>
      <point x="532" y="444"/>
      <point x="514" y="455" type="curve" smooth="yes"/>
      <point x="496" y="466"/>
      <point x="473" y="487"/>
      <point x="446" y="519" type="curve" smooth="yes"/>
      <point x="385" y="591"/>
      <point x="346" y="637"/>
      <point x="255" y="637" type="curve" smooth="yes"/>
      <point x="143" y="637"/>
      <point x="80" y="561"/>
      <point x="80" y="438" type="curve" smooth="yes"/>
      <point x="80" y="369"/>
      <point x="96" y="303"/>
    </contour>
    <contour>
      <point x="750" y="346" type="curve" smooth="yes"/>
      <point x="798" y="346"/>
      <point x="818" y="372"/>
      <point x="818" y="408" type="curve" smooth="yes"/>
      <point x="818" y="441"/>
      <point x="798" y="469"/>
      <point x="750" y="469" type="curve" smooth="yes"/>
      <point x="706" y="469"/>
      <point x="683" y="447"/>
      <point x="683" y="408" type="curve" smooth="yes"/>
      <point x="683" y="367"/>
      <point x="705" y="346"/>
    </contour>
  </outline>
</glyph>
<glyph name="u1802" format="2">
  <advance width="384"/>
  <unicode hex="1802"/>
  <outline>
    <contour>
      <point x="321" y="339" type="curve" smooth="yes"/>
      <point x="356" y="339"/>
      <point x="384" y="359"/>
      <point x="384" y="407" type="curve" smooth="yes"/>
      <point x="384" y="456"/>
      <point x="356" y="474"/>
      <point x="321" y="474" type="curve" smooth="yes"/>
      <point x="286" y="474"/>
      <point x="260" y="456"/>
      <point x="260" y="407" type="curve" smooth="yes"/>
      <point x="260" y="359"/>
      <point x="286" y="339"/>
    </contour>
  </outline>
</glyph>
<glyph name="u1806" format="2">
  <advance width="400"/>
  <unicode hex="1806"/>
  <outline>
    <contour>
      <point x="0" y="364" type="line"/>
      <point x="430" y="364" type="line"/>
      <point x="430" y="444" type="line"/>
      <point x="0" y="444" type="line"/>
    </contour>
  </outline>
</glyph>
<glyph name="u1807" format="2">
  <advance width="534"/>
  <unicode hex="1807"/>
  <outline>
    <contour>
      <point x="269" y="96" type="line"/>
      <point x="335" y="96" type="line"/>
      <point x="354" y="364" type="line"/>
      <point x="564" y="364" type="line"/>
      <point x="564" y="444" type="line"/>
      <point x="0" y="444" type="line"/>
      <point x="0" y="364" type="line"/>
      <point x="250" y="364" type="line"/>
    </contour>
  </outline>
</glyph>
<glyph name="u1808" format="2">
  <advance width="422"/>
  <unicode hex="1808"/>
  <outline>
    <contour>
      <point x="250" y="218" type="line"/>
      <point x="365" y="227"/>
      <point x="422" y="280"/>
      <point x="422" y="404" type="curve" smooth="yes"/>
      <point x="422" y="524"/>
      <point x="369" y="580"/>
      <point x="250" y="590" type="curve"/>
      <point x="250" y="512" type="line"/>
      <point x="313" y="505"/>
      <point x="341" y="476"/>
      <point x="341" y="404" type="curve" smooth="yes"/>
      <point x="341" y="332"/>
      <point x="313" y="302"/>
      <point x="250" y="296" type="curve"/>
    </contour>
  </outline>
</glyph>
<glyph name="u180A" format="2">
  <advance width="168"/>
  <unicode hex="180A"/>
  <outline>
    <contour>
      <point x="0" y="364" type="line"/>
      <point x="188" y="364" type="line"/>
      <point x="188" y="444" type="line"/>
      <point x="0" y="444" type="line"/>
    </contour>
  </outline>
</glyph>
<glyph name="u1818" format="2">
  <advance width="564"/>
  <unicode hex="1818"/>
  <outline>
    <contour>
      <point x="40" y="0" type="curve"/>
      <point x="484" y="0" type="line"/>
      <point x="484" y="121"/>
      <point x="494" y="218"/>
      <point x="514" y="293" type="curve"/>
      <point x="433" y="293" type="line"/>
      <point x="414" y="231"/>
      <point x="403" y="148"/>
      <point x="403" y="80" type="curve"/>
      <point x="135" y="80" type="line"/>
      <point x="148" y="305"/>
      <point x="236" y="504"/>
      <point x="372" y="714" type="curve"/>
      <point x="272" y="714" type="line"/>
      <point x="121" y="470"/>
      <point x="60" y="286"/>
    </contour>
  </outline>
</glyph>
<glyph name="u1819" format="2">
  <advance width="534"/>
  <unicode hex="1819"/>
  <outline>
    <contour>
      <point x="254" y="0" type="curve"/>
      <point x="361" y="0" type="line"/>
      <point x="241" y="146"/>
      <point x="136" y="314"/>
      <point x="136" y="476" type="curve" smooth="yes"/>
      <point x="136" y="585"/>
      <point x="186" y="649"/>
      <point x="268" y="649" type="curve" smooth="yes"/>
      <point x="342" y="649"/>
      <point x="391" y="600"/>
      <point x="391" y="516" type="curve" smooth="yes"/>
      <point x="391" y="442"/>
      <point x="361" y="378"/>
      <point x="302" y="322" type="curve"/>
      <point x="302" y="262" type="line"/>
      <point x="487" y="262" type="line"/>
      <point x="487" y="342" type="line"/>
      <point x="394" y="342" type="line"/>
      <point x="450" y="391"/>
      <point x="478" y="456"/>
      <point x="478" y="516" type="curve" smooth="yes"/>
      <point x="478" y="646"/>
      <point x="406" y="724"/>
      <point x="268" y="724" type="curve" smooth="yes"/>
      <point x="120" y="724"/>
      <point x="50" y="622"/>
      <point x="50" y="472" type="curve" smooth="yes"/>
      <point x="50" y="382"/>
      <point x="73" y="302"/>
      <point x="111" y="225" type="curve" smooth="yes"/>
      <point x="148" y="149"/>
      <point x="199" y="73"/>
    </contour>
  </outline>
</glyph>
<glyph name="u182B" format="2">
  <advance width="675"/>
  <unicode hex="182B"/>
  <outline>
    <contour>
      <point x="62" y="42" type="line"/>
      <point x="109" y="68"/>
      <point x="162" y="73"/>
      <point x="231" y="73" type="curve" smooth="yes"/>
      <point x="346" y="73"/>
      <point x="418" y="158"/>
      <point x="418" y="275" type="curve" smooth="yes"/>
      <point x="418" y="332"/>
      <point x="411" y="388"/>
      <point x="397" y="444" type="curve"/>
      <point x="124" y="444" type="line"/>
      <point x="126" y="588"/>
      <point x="194" y="699"/>
      <point x="330" y="699" type="curve" smooth="yes"/>
      <point x="468" y="699"/>
      <point x="537" y="571"/>
      <point x="550" y="409" type="curve"/>
      <point x="630" y="419" type="line"/>
      <point x="616" y="614"/>
      <point x="511" y="782"/>
      <point x="330" y="782" type="curve" smooth="yes"/>
      <point x="138" y="782"/>
      <point x="45" y="624"/>
      <point x="45" y="408" type="curve" smooth="yes"/>
      <point x="45" y="364" type="line"/>
      <point x="329" y="364" type="line"/>
      <point x="335" y="344"/>
      <point x="339" y="314"/>
      <point x="339" y="275" type="curve" smooth="yes"/>
      <point x="339" y="201"/>
      <point x="298" y="153"/>
      <point x="231" y="153" type="curve" smooth="yes"/>
      <point x="166" y="153"/>
      <point x="104" y="150"/>
      <point x="62" y="122" type="curve"/>
    </contour>
  </outline>
</glyph>
<glyph name="u1835" format="2">
  <advance width="496"/>
  <unicode hex="1835"/>
  <outline>
    <contour>
      <point x="233" y="-67" type="curve"/>
      <point x="306" y="-31" type="line"/>
      <point x="233" y="100"/>
      <point x="177" y="231"/>
      <point x="139" y="364" type="curve"/>
      <point x="451" y="364" type="line"/>
      <point x="451" y="444" type="line"/>
      <point x="45" y="444" type="line"/>
      <point x="73" y="275"/>
      <point x="139" y="110"/>
    </contour>
  </outline>
</glyph>
<glyph name="u183A" format="2">
  <advance width="551"/>
  <unicode hex="183A"/>
  <outline>
    <contour>
      <point x="244" y="35" type="curve"/>
      <point x="306" y="90" type="line"/>
      <point x="181" y="225"/>
      <point x="124" y="329"/>
      <point x="124" y="419" type="curve" smooth="yes"/>
      <point x="124" y="546"/>
      <point x="166" y="644"/>
      <point x="274" y="644" type="curve" smooth="yes"/>
      <point x="363" y="644"/>
      <point x="415" y="573"/>
      <point x="427" y="409" type="curve"/>
      <point x="506" y="419" type="line"/>
      <point x="494" y="590"/>
      <point x="426" y="727"/>
      <point x="274" y="727" type="curve" smooth="yes"/>
      <point x="121" y="727"/>
      <point x="45" y="594"/>
      <point x="45" y="419" type="curve" smooth="yes"/>
      <point x="45" y="96" type="line"/>
      <point x="111" y="96" type="line"/>
      <point x="119" y="215" type="line"/>
      <point x="146" y="157"/>
      <point x="188" y="97"/>
    </contour>
  </outline>
</glyph>
<glyph name="u1840" format="2">
  <advance width="1088"/>
  <unicode hex="1840"/>
  <outline>
    <contour>
      <point x="632" y="-182" type="curve"/>
      <point x="901" y="-57" type="line"/>
      <point x="827" y="82"/>
      <point x="790" y="215"/>
      <point x="787" y="364" type="curve"/>
      <point x="1043" y="364" type="line"/>
      <point x="1043" y="444" type="line"/>
      <point x="711" y="444" type="line"/>
      <point x="711" y="366" type="line" smooth="yes"/>
      <point x="711" y="221"/>
      <point x="739" y="94"/>
      <point x="795" y="-17" type="curve"/>
      <point x="671" y="-72" type="line"/>
      <point x="596" y="69"/>
      <point x="567" y="199"/>
      <point x="567" y="364" type="curve" smooth="yes"/>
      <point x="567" y="444" type="line"/>
      <point x="444" y="444" type="line" smooth="yes"/>
      <point x="360" y="444"/>
      <point x="307" y="416"/>
      <point x="285" y="361" type="curve"/>
      <point x="281" y="361" type="line"/>
      <point x="278" y="445" type="line" smooth="yes"/>
      <point x="276" y="500"/>
      <point x="270" y="542"/>
      <point x="259" y="573" type="curve"/>
      <point x="266" y="640"/>
      <point x="292" y="698"/>
      <point x="339" y="766" type="curve"/>
      <point x="339" y="832" type="line"/>
      <point x="219" y="832" type="line" smooth="yes"/>
      <point x="151" y="832"/>
      <point x="86" y="835"/>
      <point x="39" y="868" type="curve"/>
      <point x="39" y="790" type="line"/>
      <point x="80" y="754"/>
      <point x="142" y="752"/>
      <point x="219" y="752" type="curve" smooth="yes"/>
      <point x="247" y="752" type="line"/>
      <point x="228" y="723"/>
      <point x="212" y="686"/>
      <point x="200" y="642" type="curve"/>
      <point x="182" y="649"/>
      <point x="162" y="653"/>
      <point x="139" y="653" type="curve" smooth="yes"/>
      <point x="100" y="653"/>
      <point x="57" y="643"/>
      <point x="10" y="623" type="curve"/>
      <point x="10" y="550" type="line"/>
      <point x="52" y="567"/>
      <point x="88" y="575"/>
      <point x="118" y="575" type="curve" smooth="yes"/>
      <point x="179" y="575"/>
      <point x="194" y="520"/>
      <point x="200" y="437" type="curve" smooth="yes"/>
      <point x="226" y="74" type="line"/>
      <point x="292" y="74" type="line"/>
      <point x="302" y="219" type="line" smooth="yes"/>
      <point x="309" y="326"/>
      <point x="335" y="364"/>
      <point x="445" y="364" type="curve" smooth="yes"/>
      <point x="492" y="364" type="line"/>
      <point x="492" y="166"/>
      <point x="537" y="-6"/>
    </contour>
  </outline>
</glyph>
<glyph name="u1846" format="2">
  <advance width="915"/>
  <unicode hex="1846"/>
  <outline>
    <contour>
      <point x="870" y="3" type="line"/>
      <point x="870" y="444" type="line"/>
      <point x="444" y="444" type="line" smooth="yes"/>
      <point x="360" y="444"/>
      <point x="307" y="416"/>
      <point x="285" y="361" type="curve"/>
      <point x="281" y="361" type="line"/>
      <point x="278" y="445" type="line" smooth="yes"/>
      <point x="273" y="575"/>
      <point x="248" y="653"/>
      <point x="139" y="653" type="curve" smooth="yes"/>
      <point x="100" y="653"/>
      <point x="57" y="643"/>
      <point x="10" y="623" type="curve"/>
      <point x="10" y="550" type="line"/>
      <point x="52" y="567"/>
      <point x="88" y="575"/>
      <point x="118" y="575" type="curve" smooth="yes"/>
      <point x="179" y="575"/>
      <point x="194" y="520"/>
      <point x="200" y="437" type="curve" smooth="yes"/>
      <point x="226" y="74" type="line"/>
      <point x="292" y="74" type="line"/>
      <point x="302" y="219" type="line" smooth="yes"/>
      <point x="310" y="330"/>
      <point x="336" y="364"/>
      <point x="445" y="364" type="curve" smooth="yes"/>
      <point x="492" y="364" type="line"/>
      <point x="492" y="267" type="line" smooth="yes"/>
      <point x="492" y="154"/>
      <point x="549" y="73"/>
      <point x="668" y="47" type="curve" smooth="yes"/>
    </contour>
    <contour>
      <point x="792" y="104" type="line"/>
      <point x="690" y="127" type="line" smooth="yes"/>
      <point x="610" y="145"/>
      <point x="571" y="196"/>
      <point x="571" y="267" type="curve" smooth="yes"/>
      <point x="571" y="364" type="line"/>
      <point x="792" y="364" type="line"/>
    </contour>
  </outline>
</glyph>
<glyph name="u184A" format="2">
  <advance width="1069"/>
  <unicode hex="184A"/>
  <outline>
    <contour>
      <point x="763" y="-264" type="curve"/>
      <point x="845" y="-264" type="line"/>
      <point x="831" y="-240"/>
      <point x="824" y="-214"/>
      <point x="824" y="-187" type="curve" smooth="yes"/>
      <point x="824" y="-125"/>
      <point x="846" y="-91"/>
      <point x="891" y="-31" type="curve" smooth="yes"/>
      <point x="965" y="67"/>
      <point x="1024" y="152"/>
      <point x="1024" y="245" type="curve" smooth="yes"/>
      <point x="1024" y="373"/>
      <point x="947" y="444"/>
      <point x="793" y="444" type="curve" smooth="yes"/>
      <point x="45" y="444" type="line"/>
      <point x="45" y="364" type="line"/>
      <point x="64" y="96" type="line"/>
      <point x="130" y="96" type="line"/>
      <point x="149" y="364" type="line"/>
      <point x="329" y="364" type="line"/>
      <point x="329" y="263" type="line" smooth="yes"/>
      <point x="329" y="109"/>
      <point x="406" y="36"/>
      <point x="545" y="36" type="curve" smooth="yes"/>
      <point x="586" y="36" type="line" smooth="yes"/>
      <point x="636" y="36"/>
      <point x="671" y="27"/>
      <point x="691" y="9" type="curve"/>
      <point x="691" y="92" type="line"/>
      <point x="670" y="110"/>
      <point x="635" y="119"/>
      <point x="586" y="119" type="curve" smooth="yes"/>
      <point x="545" y="119" type="line" smooth="yes"/>
      <point x="454" y="119"/>
      <point x="408" y="167"/>
      <point x="408" y="263" type="curve" smooth="yes"/>
      <point x="408" y="364" type="line"/>
      <point x="792" y="364" type="line" smooth="yes"/>
      <point x="899" y="364"/>
      <point x="946" y="325"/>
      <point x="946" y="245" type="curve" smooth="yes"/>
      <point x="946" y="177"/>
      <point x="907" y="116"/>
      <point x="839" y="28" type="curve" smooth="yes"/>
      <point x="783" y="-44"/>
      <point x="744" y="-109"/>
      <point x="744" y="-187" type="curve" smooth="yes"/>
      <point x="744" y="-217"/>
      <point x="750" y="-243"/>
    </contour>
  </outline>
</glyph>
<glyph name="u184B" format="2">
  <advance width="925"/>
  <unicode hex="184B"/>
  <outline>
    <contour>
      <point x="619" y="-264" type="curve"/>
      <point x="701" y="-264" type="line"/>
      <point x="687" y="-240"/>
      <point x="680" y="-214"/>
      <point x="680" y="-187" type="curve" smooth="yes"/>
      <point x="680" y="-125"/>
      <point x="702" y="-91"/>
      <point x="747" y="-31" type="curve" smooth="yes"/>
      <point x="822" y="68"/>
      <point x="880" y="153"/>
      <point x="880" y="245" type="curve" smooth="yes"/>
      <point x="880" y="373"/>
      <point x="803" y="444"/>
      <point x="649" y="444" type="curve" smooth="yes"/>
      <point x="90" y="444" type="line"/>
      <point x="59" y="392"/>
      <point x="45" y="336"/>
      <point x="45" y="260" type="curve" smooth="yes"/>
      <point x="45" y="123"/>
      <point x="111" y="40"/>
      <point x="242" y="40" type="curve" smooth="yes"/>
      <point x="369" y="40"/>
      <point x="440" y="123"/>
      <point x="440" y="249" type="curve" smooth="yes"/>
      <point x="440" y="294"/>
      <point x="433" y="333"/>
      <point x="420" y="364" type="curve"/>
      <point x="648" y="364" type="line" smooth="yes"/>
      <point x="755" y="364"/>
      <point x="802" y="325"/>
      <point x="802" y="245" type="curve" smooth="yes"/>
      <point x="802" y="174"/>
      <point x="759" y="112"/>
      <point x="695" y="28" type="curve" smooth="yes"/>
      <point x="640" y="-45"/>
      <point x="600" y="-109"/>
      <point x="600" y="-187" type="curve" smooth="yes"/>
      <point x="600" y="-217"/>
      <point x="606" y="-243"/>
    </contour>
    <contour>
      <point x="242" y="123" type="curve" smooth="yes"/>
      <point x="164" y="123"/>
      <point x="124" y="169"/>
      <point x="124" y="262" type="curve" smooth="yes"/>
      <point x="124" y="303"/>
      <point x="131" y="336"/>
      <point x="144" y="364" type="curve"/>
      <point x="341" y="364" type="line"/>
      <point x="354" y="333"/>
      <point x="361" y="295"/>
      <point x="361" y="251" type="curve" smooth="yes"/>
      <point x="361" y="166"/>
      <point x="315" y="123"/>
    </contour>
  </outline>
</glyph>
<glyph name="u184C" format="2">
  <advance width="716"/>
  <unicode hex="184C"/>
  <outline>
    <contour>
      <point x="45" y="63" type="line"/>
      <point x="405" y="63" type="line"/>
      <point x="328" y="198"/>
      <point x="289" y="320"/>
      <point x="289" y="430" type="curve" smooth="yes"/>
      <point x="289" y="575"/>
      <point x="347" y="644"/>
      <point x="439" y="644" type="curve" smooth="yes"/>
      <point x="528" y="644"/>
      <point x="580" y="573"/>
      <point x="592" y="409" type="curve"/>
      <point x="671" y="419" type="line"/>
      <point x="659" y="591"/>
      <point x="591" y="727"/>
      <point x="439" y="727" type="curve" smooth="yes"/>
      <point x="304" y="727"/>
      <point x="210" y="616"/>
      <point x="210" y="444" type="curve"/>
      <point x="116" y="444" type="line"/>
      <point x="116" y="711" type="line"/>
      <point x="45" y="711" type="line"/>
    </contour>
    <contour>
      <point x="116" y="146" type="line"/>
      <point x="116" y="364" type="line"/>
      <point x="213" y="364" type="line"/>
      <point x="221" y="293"/>
      <point x="242" y="220"/>
      <point x="276" y="146" type="curve"/>
    </contour>
  </outline>
</glyph>
<glyph name="u184F" format="2">
  <advance width="526"/>
  <unicode hex="184F"/>
  <outline>
    <contour>
      <point x="341" y="74" type="curve"/>
      <point x="341" y="186" type="line" smooth="yes"/>
      <point x="341" y="395"/>
      <point x="393" y="545"/>
      <point x="516" y="718" type="curve"/>
      <point x="417" y="718" type="line"/>
      <point x="394" y="685"/>
      <point x="372" y="650"/>
      <point x="353" y="614" type="curve"/>
      <point x="326" y="648"/>
      <point x="291" y="665"/>
      <point x="246" y="665" type="curve" smooth="yes"/>
      <point x="134" y="665"/>
      <point x="45" y="564"/>
      <point x="45" y="409" type="curve" smooth="yes"/>
      <point x="45" y="223"/>
      <point x="160" y="80"/>
    </contour>
    <contour>
      <point x="262" y="183" type="curve"/>
      <point x="167" y="217"/>
      <point x="119" y="304"/>
      <point x="119" y="410" type="curve" smooth="yes"/>
      <point x="119" y="510"/>
      <point x="161" y="593"/>
      <point x="246" y="593" type="curve" smooth="yes"/>
      <point x="279" y="593"/>
      <point x="305" y="578"/>
      <point x="324" y="548" type="curve"/>
      <point x="283" y="444"/>
      <point x="262" y="322"/>
    </contour>
  </outline>
</glyph>
<glyph name="u1852" format="2">
  <advance width="785"/>
  <unicode hex="1852"/>
  <outline>
    <contour>
      <point x="299" y="-120" type="curve" smooth="yes"/>
      <point x="372" y="-120"/>
      <point x="431" y="-65"/>
      <point x="431" y="14" type="curve" smooth="yes"/>
      <point x="431" y="66"/>
      <point x="406" y="108"/>
      <point x="367" y="130" type="curve"/>
      <point x="425" y="161" type="line" smooth="yes"/>
      <point x="500" y="201"/>
      <point x="531" y="262"/>
      <point x="531" y="364" type="curve"/>
      <point x="740" y="364" type="line"/>
      <point x="740" y="444" type="line"/>
      <point x="63" y="444" type="line"/>
      <point x="45" y="364" type="line"/>
      <point x="454" y="364" type="line"/>
      <point x="454" y="292"/>
      <point x="434" y="253"/>
      <point x="376" y="222" type="curve" smooth="yes"/>
      <point x="264" y="162" type="line" smooth="yes"/>
      <point x="196" y="125"/>
      <point x="162" y="84"/>
      <point x="162" y="12" type="curve" smooth="yes"/>
      <point x="162" y="-60"/>
      <point x="219" y="-120"/>
    </contour>
    <contour>
      <point x="299" y="-50" type="curve" smooth="yes"/>
      <point x="262" y="-50"/>
      <point x="236" y="-23"/>
      <point x="236" y="14" type="curve" smooth="yes"/>
      <point x="236" y="51"/>
      <point x="260" y="79"/>
      <point x="299" y="79" type="curve" smooth="yes"/>
      <point x="335" y="79"/>
      <point x="361" y="54"/>
      <point x="361" y="15" type="curve" smooth="yes"/>
      <point x="361" y="-24"/>
      <point x="335" y="-50"/>
    </contour>
  </outline>
</glyph>
<glyph name="u1855" format="2">
  <advance width="451"/>
  <unicode hex="1855"/>
  <outline>
    <contour>
      <point x="188" y="-67" type="curve"/>
      <point x="261" y="-31" type="line"/>
      <point x="231" y="21"/>
      <point x="205" y="72"/>
      <point x="182" y="122" type="curve" smooth="yes"/>
      <point x="159" y="171"/>
      <point x="142" y="211"/>
      <point x="131" y="241" type="curve" smooth="yes"/>
      <point x="120" y="271"/>
      <point x="116" y="298"/>
      <point x="116" y="325" type="curve" smooth="yes"/>
      <point x="116" y="364" type="line"/>
      <point x="406" y="364" type="line"/>
      <point x="406" y="444" type="line"/>
      <point x="45" y="444" type="line"/>
      <point x="45" y="331" type="line" smooth="yes"/>
      <point x="45" y="295"/>
      <point x="49" y="261"/>
      <point x="59" y="229" type="curve" smooth="yes"/>
      <point x="69" y="196"/>
      <point x="84" y="153"/>
      <point x="107" y="98" type="curve" smooth="yes"/>
      <point x="130" y="43"/>
      <point x="158" y="-12"/>
    </contour>
  </outline>
</glyph>
<glyph name="u1857" format="2">
  <advance width="568"/>
  <unicode hex="1857"/>
  <outline>
    <contour>
      <point x="45" y="96" type="line"/>
      <point x="256" y="96" type="line"/>
      <point x="185" y="198"/>
      <point x="142" y="288"/>
      <point x="142" y="407" type="curve" smooth="yes"/>
      <point x="142" y="567"/>
      <point x="199" y="644"/>
      <point x="291" y="644" type="curve" smooth="yes"/>
      <point x="380" y="644"/>
      <point x="432" y="573"/>
      <point x="444" y="409" type="curve"/>
      <point x="523" y="419" type="line"/>
      <point x="511" y="591"/>
      <point x="443" y="727"/>
      <point x="291" y="727" type="curve" smooth="yes"/>
      <point x="137" y="727"/>
      <point x="63" y="585"/>
      <point x="63" y="407" type="curve" smooth="yes"/>
      <point x="63" y="330"/>
      <point x="81" y="252"/>
      <point x="117" y="176" type="curve"/>
      <point x="45" y="176" type="line"/>
    </contour>
  </outline>
</glyph>
<glyph name="u1858" format="2">
  <advance width="548"/>
  <unicode hex="1858"/>
  <outline>
    <contour>
      <point x="174" y="42" type="curve"/>
      <point x="246" y="85" type="line"/>
      <point x="172" y="188"/>
      <point x="124" y="287"/>
      <point x="124" y="407" type="curve" smooth="yes"/>
      <point x="124" y="544"/>
      <point x="181" y="609"/>
      <point x="273" y="609" type="curve" smooth="yes"/>
      <point x="361" y="609"/>
      <point x="413" y="525"/>
      <point x="423" y="376" type="curve"/>
      <point x="503" y="386" type="line"/>
      <point x="493" y="556"/>
      <point x="424" y="692"/>
      <point x="273" y="692" type="curve" smooth="yes"/>
      <point x="124" y="692"/>
      <point x="45" y="574"/>
      <point x="45" y="407" type="curve" smooth="yes"/>
      <point x="45" y="356"/>
      <point x="53" y="305"/>
      <point x="69" y="252" type="curve"/>
      <point x="38" y="209"/>
      <point x="9" y="166"/>
      <point x="-20" y="120" type="curve"/>
      <point x="50" y="77" type="line"/>
      <point x="68" y="107"/>
      <point x="86" y="136"/>
      <point x="104" y="163" type="curve"/>
      <point x="124" y="123"/>
      <point x="147" y="82"/>
    </contour>
  </outline>
</glyph>
<glyph name="u1859" format="2">
  <advance width="1100"/>
  <unicode hex="1859"/>
  <outline>
    <contour>
      <point x="469" y="-182" type="curve"/>
      <point x="738" y="-57" type="line"/>
      <point x="664" y="82"/>
      <point x="626" y="215"/>
      <point x="624" y="364" type="curve"/>
      <point x="880" y="364" type="line" smooth="yes"/>
      <point x="951" y="364"/>
      <point x="978" y="333"/>
      <point x="978" y="279" type="curve" smooth="yes"/>
      <point x="978" y="236"/>
      <point x="971" y="197"/>
      <point x="956" y="162" type="curve"/>
      <point x="1030" y="162" type="line"/>
      <point x="1047" y="198"/>
      <point x="1055" y="237"/>
      <point x="1055" y="279" type="curve" smooth="yes"/>
      <point x="1055" y="389"/>
      <point x="997" y="444"/>
      <point x="880" y="444" type="curve" smooth="yes"/>
      <point x="548" y="444" type="line"/>
      <point x="548" y="366" type="line" smooth="yes"/>
      <point x="548" y="221"/>
      <point x="576" y="94"/>
      <point x="632" y="-17" type="curve"/>
      <point x="508" y="-72" type="line"/>
      <point x="433" y="69"/>
      <point x="404" y="199"/>
      <point x="404" y="364" type="curve" smooth="yes"/>
      <point x="404" y="444" type="line"/>
      <point x="45" y="444" type="line"/>
      <point x="45" y="364" type="line"/>
      <point x="64" y="96" type="line"/>
      <point x="130" y="96" type="line"/>
      <point x="149" y="364" type="line"/>
      <point x="329" y="364" type="line"/>
      <point x="329" y="166"/>
      <point x="374" y="-6"/>
    </contour>
  </outline>
</glyph>
<glyph name="u185A" format="2">
  <advance width="739"/>
  <unicode hex="185A"/>
  <outline>
    <contour>
      <point x="464" y="-83" type="line"/>
      <point x="694" y="-83" type="line"/>
      <point x="694" y="-3" type="line"/>
      <point x="562" y="-3" type="line"/>
      <point x="641" y="95"/>
      <point x="688" y="224"/>
      <point x="688" y="368" type="curve" smooth="yes"/>
      <point x="688" y="605"/>
      <point x="581" y="782"/>
      <point x="360" y="782" type="curve" smooth="yes"/>
      <point x="163" y="782"/>
      <point x="45" y="640"/>
      <point x="45" y="408" type="curve" smooth="yes"/>
      <point x="45" y="162"/>
      <point x="118" y="40"/>
      <point x="272" y="40" type="curve" smooth="yes"/>
      <point x="377" y="40"/>
      <point x="451" y="137"/>
      <point x="451" y="275" type="curve" smooth="yes"/>
      <point x="451" y="312"/>
      <point x="440" y="410"/>
      <point x="428" y="444" type="curve"/>
      <point x="124" y="444" type="line"/>
      <point x="126" y="593"/>
      <point x="207" y="699"/>
      <point x="360" y="699" type="curve" smooth="yes"/>
      <point x="536" y="699"/>
      <point x="609" y="560"/>
      <point x="609" y="368" type="curve" smooth="yes"/>
      <point x="609" y="223"/>
      <point x="560" y="106"/>
      <point x="464" y="-9" type="curve"/>
    </contour>
    <contour>
      <point x="264" y="123" type="curve" smooth="yes"/>
      <point x="173" y="123"/>
      <point x="126" y="203"/>
      <point x="124" y="364" type="curve"/>
      <point x="362" y="364" type="line"/>
      <point x="369" y="345"/>
      <point x="372" y="315"/>
      <point x="372" y="275" type="curve" smooth="yes"/>
      <point x="372" y="190"/>
      <point x="337" y="123"/>
    </contour>
  </outline>
</glyph>
<glyph name="u185B" format="2">
  <advance width="518"/>
  <unicode hex="185B"/>
  <outline>
    <contour>
      <point x="294" y="-119" type="curve" smooth="yes"/>
      <point x="331" y="-119"/>
      <point x="363" y="-106"/>
      <point x="377" y="-85" type="curve"/>
      <point x="377" y="6" type="line"/>
      <point x="357" y="-22"/>
      <point x="330" y="-36"/>
      <point x="294" y="-36" type="curve" smooth="yes"/>
      <point x="214" y="-36"/>
      <point x="164" y="69"/>
      <point x="140" y="170" type="curve" smooth="yes"/>
      <point x="125" y="232"/>
      <point x="116" y="296"/>
      <point x="116" y="364" type="curve"/>
      <point x="473" y="364" type="line"/>
      <point x="473" y="444" type="line"/>
      <point x="346" y="444" type="line"/>
      <point x="346" y="674" type="line"/>
      <point x="275" y="674" type="line" smooth="yes"/>
      <point x="196" y="674"/>
      <point x="120" y="686"/>
      <point x="45" y="710" type="curve"/>
      <point x="45" y="364" type="line" smooth="yes"/>
      <point x="45" y="253"/>
      <point x="57" y="143"/>
      <point x="102" y="36" type="curve" smooth="yes"/>
      <point x="142" y="-59"/>
      <point x="194" y="-119"/>
    </contour>
    <contour>
      <point x="116" y="444" type="line"/>
      <point x="116" y="612" type="line"/>
      <point x="167" y="600"/>
      <point x="220" y="594"/>
      <point x="275" y="594" type="curve"/>
      <point x="275" y="444" type="line"/>
    </contour>
  </outline>
</glyph>
<glyph name="u185F" format="2">
  <advance width="284"/>
  <unicode hex="185F"/>
  <outline>
    <contour>
      <point x="19" y="96" type="line"/>
      <point x="85" y="96" type="line"/>
      <point x="104" y="364" type="line"/>
      <point x="314" y="364" type="line"/>
      <point x="314" y="444" type="line"/>
      <point x="82" y="444" type="line"/>
      <point x="168" y="667" type="line"/>
      <point x="101" y="667" type="line"/>
      <point x="68" y="576" type="line" smooth="yes"/>
      <point x="63" y="563"/>
      <point x="60" y="550"/>
      <point x="57" y="537" type="curve"/>
      <point x="53" y="537" type="line"/>
      <point x="50" y="550"/>
      <point x="46" y="563"/>
      <point x="41" y="576" type="curve" smooth="yes"/>
      <point x="8" y="667" type="line"/>
      <point x="-59" y="667" type="line"/>
      <point x="26" y="444" type="line"/>
      <point x="0" y="444" type="line"/>
      <point x="0" y="364" type="line"/>
    </contour>
  </outline>
</glyph>
<glyph name="u1861" format="2">
  <advance width="888"/>
  <unicode hex="1861"/>
  <outline>
    <contour>
      <point x="725" y="-67" type="curve"/>
      <point x="798" y="-31" type="line"/>
      <point x="725" y="100"/>
      <point x="669" y="231"/>
      <point x="631" y="364" type="curve"/>
      <point x="843" y="364" type="line"/>
      <point x="843" y="444" type="line"/>
      <point x="90" y="444" type="line"/>
      <point x="59" y="392"/>
      <point x="45" y="336"/>
      <point x="45" y="260" type="curve" smooth="yes"/>
      <point x="45" y="123"/>
      <point x="111" y="40"/>
      <point x="242" y="40" type="curve" smooth="yes"/>
      <point x="369" y="40"/>
      <point x="440" y="123"/>
      <point x="440" y="249" type="curve" smooth="yes"/>
      <point x="440" y="294"/>
      <point x="433" y="333"/>
      <point x="420" y="364" type="curve"/>
      <point x="552" y="364" type="line"/>
      <point x="590" y="220"/>
      <point x="647" y="77"/>
    </contour>
    <contour>
      <point x="242" y="123" type="curve" smooth="yes"/>
      <point x="164" y="123"/>
      <point x="124" y="169"/>
      <point x="124" y="262" type="curve" smooth="yes"/>
      <point x="124" y="303"/>
      <point x="131" y="336"/>
      <point x="144" y="364" type="curve"/>
      <point x="341" y="364" type="line"/>
      <point x="354" y="333"/>
      <point x="361" y="295"/>
      <point x="361" y="251" type="curve" smooth="yes"/>
      <point x="361" y="166"/>
      <point x="315" y="123"/>
    </contour>
  </outline>
</glyph>
<glyph name="u1862" format="2">
  <advance width="920"/>
  <unicode hex="1862"/>
  <outline>
    <contour>
      <point x="614" y="-264" type="curve"/>
      <point x="696" y="-264" type="line"/>
      <point x="682" y="-238"/>
      <point x="675" y="-213"/>
      <point x="675" y="-187" type="curve" smooth="yes"/>
      <point x="675" y="-124"/>
      <point x="693" y="-95"/>
      <point x="742" y="-31" type="curve" smooth="yes"/>
      <point x="794" y="37"/>
      <point x="829" y="91"/>
      <point x="847" y="131" type="curve" smooth="yes"/>
      <point x="865" y="171"/>
      <point x="875" y="209"/>
      <point x="875" y="245" type="curve" smooth="yes"/>
      <point x="875" y="373"/>
      <point x="797" y="444"/>
      <point x="644" y="444" type="curve" smooth="yes"/>
      <point x="45" y="444" type="line"/>
      <point x="45" y="364" type="line"/>
      <point x="64" y="96" type="line"/>
      <point x="130" y="96" type="line"/>
      <point x="149" y="364" type="line"/>
      <point x="329" y="364" type="line"/>
      <point x="348" y="96" type="line"/>
      <point x="414" y="96" type="line"/>
      <point x="433" y="364" type="line"/>
      <point x="643" y="364" type="line" smooth="yes"/>
      <point x="750" y="364"/>
      <point x="797" y="325"/>
      <point x="797" y="245" type="curve" smooth="yes"/>
      <point x="797" y="197"/>
      <point x="783" y="166"/>
      <point x="755" y="120" type="curve" smooth="yes"/>
      <point x="740" y="95"/>
      <point x="718" y="64"/>
      <point x="690" y="28" type="curve" smooth="yes"/>
      <point x="634" y="-44"/>
      <point x="595" y="-112"/>
      <point x="595" y="-187" type="curve" smooth="yes"/>
      <point x="595" y="-217"/>
      <point x="602" y="-242"/>
    </contour>
  </outline>
</glyph>
<glyph name="u1868" format="2">
  <advance width="832"/>
  <unicode hex="1868"/>
  <outline>
    <contour>
      <point x="492" y="96" type="line"/>
      <point x="558" y="96" type="line"/>
      <point x="577" y="364" type="line"/>
      <point x="787" y="364" type="line"/>
      <point x="787" y="444" type="line"/>
      <point x="547" y="444" type="line"/>
      <point x="539" y="637"/>
      <point x="468" y="728"/>
      <point x="318" y="728" type="curve" smooth="yes"/>
      <point x="228" y="728"/>
      <point x="159" y="693"/>
      <point x="95" y="621" type="curve"/>
      <point x="95" y="532" type="line"/>
      <point x="136" y="512"/>
      <point x="170" y="482"/>
      <point x="197" y="444" type="curve"/>
      <point x="45" y="444" type="line"/>
      <point x="45" y="364" type="line"/>
      <point x="473" y="364" type="line"/>
    </contour>
    <contour>
      <point x="286" y="444" type="line"/>
      <point x="252" y="503"/>
      <point x="209" y="549"/>
      <point x="158" y="581" type="curve"/>
      <point x="205" y="628"/>
      <point x="255" y="645"/>
      <point x="318" y="645" type="curve" smooth="yes"/>
      <point x="417" y="645"/>
      <point x="460" y="577"/>
      <point x="467" y="444" type="curve"/>
    </contour>
  </outline>
</glyph>
<glyph name="u186A" format="2">
  <advance width="512"/>
  <unicode hex="186A"/>
  <outline>
    <contour>
      <point x="191" y="-94" type="curve"/>
      <point x="278" y="-94" type="line"/>
      <point x="305" y="-75"/>
      <point x="322" y="-36"/>
      <point x="322" y="9" type="curve" smooth="yes"/>
      <point x="322" y="49"/>
      <point x="312" y="90"/>
      <point x="292" y="132" type="curve" smooth="yes"/>
      <point x="271" y="176"/>
      <point x="234" y="243"/>
      <point x="159" y="364" type="curve"/>
      <point x="467" y="364" type="line"/>
      <point x="467" y="444" type="line"/>
      <point x="30" y="444" type="line"/>
      <point x="49" y="411"/>
      <point x="83" y="352"/>
      <point x="136" y="262" type="curve" smooth="yes"/>
      <point x="202" y="150"/>
      <point x="243" y="80"/>
      <point x="243" y="9" type="curve" smooth="yes"/>
      <point x="243" y="-35"/>
      <point x="226" y="-69"/>
    </contour>
  </outline>
</glyph>
<glyph name="u1875" format="2">
  <advance width="868"/>
  <unicode hex="1875"/>
  <outline>
    <contour>
      <point x="240" y="-131" type="curve"/>
      <point x="313" y="-96" type="line"/>
      <point x="271" y="-17"/>
      <point x="234" y="63"/>
      <point x="205" y="143" type="curve"/>
      <point x="289" y="143" type="line" smooth="yes"/>
      <point x="379" y="143"/>
      <point x="416" y="97"/>
      <point x="416" y="13" type="curve" smooth="yes"/>
      <point x="416" y="-19"/>
      <point x="411" y="-44"/>
      <point x="401" y="-65" type="curve"/>
      <point x="480" y="-65" type="line"/>
      <point x="491" y="-38"/>
      <point x="496" y="-9"/>
      <point x="496" y="24" type="curve" smooth="yes"/>
      <point x="496" y="144"/>
      <point x="421" y="223"/>
      <point x="292" y="223" type="curve" smooth="yes"/>
      <point x="176" y="223" type="line"/>
      <point x="161" y="268"/>
      <point x="148" y="314"/>
      <point x="137" y="364" type="curve"/>
      <point x="648" y="364" type="line" smooth="yes"/>
      <point x="719" y="364"/>
      <point x="746" y="333"/>
      <point x="746" y="279" type="curve" smooth="yes"/>
      <point x="746" y="236"/>
      <point x="739" y="197"/>
      <point x="724" y="162" type="curve"/>
      <point x="798" y="162" type="line"/>
      <point x="815" y="198"/>
      <point x="823" y="237"/>
      <point x="823" y="279" type="curve" smooth="yes"/>
      <point x="823" y="389"/>
      <point x="765" y="444"/>
      <point x="648" y="444" type="curve" smooth="yes"/>
      <point x="45" y="444" type="line"/>
      <point x="72" y="267"/>
      <point x="137" y="76"/>
    </contour>
  </outline>
</glyph>
<glyph name="u1876" format="2">
  <advance width="560"/>
  <unicode hex="1876"/>
  <outline>
    <contour>
      <point x="416" y="-59" type="curve" smooth="yes"/>
      <point x="453" y="-59"/>
      <point x="484" y="-46"/>
      <point x="499" y="-25" type="curve"/>
      <point x="499" y="66" type="line"/>
      <point x="480" y="38"/>
      <point x="453" y="24"/>
      <point x="416" y="24" type="curve" smooth="yes"/>
      <point x="325" y="24"/>
      <point x="290" y="231"/>
      <point x="290" y="364" type="curve"/>
      <point x="515" y="364" type="line"/>
      <point x="515" y="444" type="line"/>
      <point x="290" y="444" type="line"/>
      <point x="290" y="530" type="line" smooth="yes"/>
      <point x="290" y="673"/>
      <point x="262" y="767"/>
      <point x="142" y="767" type="curve" smooth="yes"/>
      <point x="111" y="767"/>
      <point x="89" y="762"/>
      <point x="75" y="751" type="curve"/>
      <point x="75" y="666" type="line"/>
      <point x="88" y="678"/>
      <point x="108" y="684"/>
      <point x="134" y="684" type="curve" smooth="yes"/>
      <point x="201" y="684"/>
      <point x="212" y="623"/>
      <point x="212" y="530" type="curve" smooth="yes"/>
      <point x="212" y="444" type="line"/>
      <point x="45" y="444" type="line"/>
      <point x="45" y="364" type="line"/>
      <point x="212" y="364" type="line"/>
      <point x="215" y="252"/>
      <point x="234" y="112"/>
      <point x="276" y="32" type="curve" smooth="yes"/>
      <point x="309" y="-31"/>
      <point x="352" y="-59"/>
    </contour>
  </outline>
</glyph>
<glyph name="u1884" format="2">
  <advance width="483"/>
  <unicode hex="1884"/>
  <outline>
    <contour>
      <point x="245" y="43" type="curve" smooth="yes"/>
      <point x="314" y="43"/>
      <point x="376" y="59"/>
      <point x="443" y="102" type="curve"/>
      <point x="405" y="177" type="line"/>
      <point x="350" y="138"/>
      <point x="303" y="121"/>
      <point x="247" y="121" type="curve" smooth="yes"/>
      <point x="170" y="121"/>
      <point x="121" y="162"/>
      <point x="121" y="236" type="curve" smooth="yes"/>
      <point x="121" y="322"/>
      <point x="182" y="364"/>
      <point x="283" y="364" type="curve" smooth="yes"/>
      <point x="384" y="364" type="line"/>
      <point x="384" y="444" type="line"/>
      <point x="283" y="444" type="line" smooth="yes"/>
      <point x="186" y="444"/>
      <point x="121" y="483"/>
      <point x="121" y="572" type="curve" smooth="yes"/>
      <point x="121" y="640"/>
      <point x="165" y="687"/>
      <point x="247" y="687" type="curve" smooth="yes"/>
      <point x="303" y="687"/>
      <point x="350" y="670"/>
      <point x="405" y="631" type="curve"/>
      <point x="443" y="706" type="line"/>
      <point x="381" y="746"/>
      <point x="315" y="765"/>
      <point x="245" y="765" type="curve" smooth="yes"/>
      <point x="128" y="765"/>
      <point x="45" y="699"/>
      <point x="45" y="576" type="curve" smooth="yes"/>
      <point x="45" y="491"/>
      <point x="89" y="433"/>
      <point x="165" y="406" type="curve"/>
      <point x="165" y="402" type="line"/>
      <point x="89" y="375"/>
      <point x="45" y="317"/>
      <point x="45" y="232" type="curve" smooth="yes"/>
      <point x="45" y="112"/>
      <point x="123" y="43"/>
    </contour>
  </outline>
</glyph>
<glyph name="u1885" format="2">
  <unicode hex="1885"/>
  <outline>
    <contour>
      <point x="-641" y="816" type="curve" smooth="yes"/>
      <point x="-577" y="816"/>
      <point x="-543" y="855"/>
      <point x="-543" y="921" type="curve"/>
      <point x="-597" y="921" type="line"/>
      <point x="-597" y="890"/>
      <point x="-613" y="870"/>
      <point x="-641" y="870" type="curve" smooth="yes"/>
      <point x="-675" y="870"/>
      <point x="-696" y="902"/>
      <point x="-696" y="963" type="curve" smooth="yes"/>
      <point x="-696" y="1027"/>
      <point x="-668" y="1076"/>
      <point x="-609" y="1076" type="curve" smooth="yes"/>
      <point x="-549" y="1076"/>
      <point x="-515" y="1039"/>
      <point x="-503" y="956" type="curve" smooth="yes"/>
      <point x="-489" y="860"/>
      <point x="-455" y="816"/>
      <point x="-391" y="816" type="curve" smooth="yes"/>
      <point x="-327" y="816"/>
      <point x="-293" y="855"/>
      <point x="-293" y="921" type="curve"/>
      <point x="-347" y="921" type="line"/>
      <point x="-347" y="890"/>
      <point x="-363" y="870"/>
      <point x="-391" y="870" type="curve" smooth="yes"/>
      <point x="-425" y="870"/>
      <point x="-446" y="902"/>
      <point x="-446" y="963" type="curve" smooth="yes"/>
      <point x="-446" y="1027"/>
      <point x="-418" y="1076"/>
      <point x="-359" y="1076" type="curve" smooth="yes"/>
      <point x="-304" y="1076"/>
      <point x="-278" y="1041"/>
      <point x="-255" y="975" type="curve" smooth="yes"/>
      <point x="-243" y="940"/>
      <point x="-230" y="892"/>
      <point x="-218" y="831" type="curve"/>
      <point x="-165" y="831" type="line"/>
      <point x="-165" y="920"/>
      <point x="-143" y="1005"/>
      <point x="-100" y="1087" type="curve"/>
      <point x="-147" y="1108" type="line"/>
      <point x="-171" y="1061"/>
      <point x="-187" y="1010"/>
      <point x="-197" y="955" type="curve"/>
      <point x="-199" y="955" type="line"/>
      <point x="-217" y="1019"/>
      <point x="-239" y="1076"/>
      <point x="-281" y="1107" type="curve" smooth="yes"/>
      <point x="-301" y="1122"/>
      <point x="-327" y="1130"/>
      <point x="-359" y="1130" type="curve" smooth="yes"/>
      <point x="-415" y="1130"/>
      <point x="-457" y="1100"/>
      <point x="-477" y="1047" type="curve"/>
      <point x="-479" y="1047" type="line"/>
      <point x="-505" y="1103"/>
      <point x="-545" y="1130"/>
      <point x="-609" y="1130" type="curve" smooth="yes"/>
      <point x="-698" y="1130"/>
      <point x="-748" y="1062"/>
      <point x="-748" y="963" type="curve" smooth="yes"/>
      <point x="-748" y="880"/>
      <point x="-717" y="816"/>
    </contour>
  </outline>
</glyph>
<glyph name="u1886" format="2">
  <unicode hex="1886"/>
  <outline>
    <contour>
      <point x="-676" y="1263" type="curve" smooth="yes"/>
      <point x="-628" y="1263"/>
      <point x="-597" y="1291"/>
      <point x="-597" y="1341" type="curve"/>
      <point x="-641" y="1341" type="line"/>
      <point x="-641" y="1320"/>
      <point x="-657" y="1308"/>
      <point x="-678" y="1308" type="curve" smooth="yes"/>
      <point x="-701" y="1308"/>
      <point x="-715" y="1325"/>
      <point x="-715" y="1355" type="curve" smooth="yes"/>
      <point x="-715" y="1389"/>
      <point x="-697" y="1412"/>
      <point x="-654" y="1412" type="curve" smooth="yes"/>
      <point x="-606" y="1412"/>
      <point x="-575" y="1386"/>
      <point x="-550" y="1343" type="curve" smooth="yes"/>
      <point x="-519" y="1289"/>
      <point x="-496" y="1263"/>
      <point x="-445" y="1263" type="curve" smooth="yes"/>
      <point x="-388" y="1263"/>
      <point x="-360" y="1291"/>
      <point x="-360" y="1341" type="curve"/>
      <point x="-404" y="1341" type="line"/>
      <point x="-404" y="1321"/>
      <point x="-418" y="1308"/>
      <point x="-442" y="1308" type="curve" smooth="yes"/>
      <point x="-469" y="1308"/>
      <point x="-485" y="1327"/>
      <point x="-485" y="1355" type="curve" smooth="yes"/>
      <point x="-485" y="1392"/>
      <point x="-460" y="1412"/>
      <point x="-416" y="1412" type="curve" smooth="yes"/>
      <point x="-344" y="1412"/>
      <point x="-305" y="1351"/>
      <point x="-265" y="1271" type="curve"/>
      <point x="-224" y="1271" type="line"/>
      <point x="-209" y="1331"/>
      <point x="-188" y="1384"/>
      <point x="-156" y="1435" type="curve"/>
      <point x="-200" y="1455" type="line"/>
      <point x="-224" y="1409"/>
      <point x="-241" y="1367"/>
      <point x="-250" y="1329" type="curve"/>
      <point x="-252" y="1329" type="line"/>
      <point x="-293" y="1414"/>
      <point x="-349" y="1457"/>
      <point x="-419" y="1457" type="curve" smooth="yes"/>
      <point x="-475" y="1457"/>
      <point x="-512" y="1430"/>
      <point x="-524" y="1379" type="curve"/>
      <point x="-526" y="1379" type="line"/>
      <point x="-559" y="1432"/>
      <point x="-598" y="1457"/>
      <point x="-654" y="1457" type="curve" smooth="yes"/>
      <point x="-724" y="1457"/>
      <point x="-758" y="1417"/>
      <point x="-758" y="1355" type="curve" smooth="yes"/>
      <point x="-758" y="1295"/>
      <point x="-729" y="1263"/>
    </contour>
    <contour>
      <point x="-676" y="1043" type="curve" smooth="yes"/>
      <point x="-628" y="1043"/>
      <point x="-597" y="1071"/>
      <point x="-597" y="1121" type="curve"/>
      <point x="-641" y="1121" type="line"/>
      <point x="-641" y="1100"/>
      <point x="-657" y="1088"/>
      <point x="-678" y="1088" type="curve" smooth="yes"/>
      <point x="-701" y="1088"/>
      <point x="-715" y="1105"/>
      <point x="-715" y="1135" type="curve" smooth="yes"/>
      <point x="-715" y="1169"/>
      <point x="-697" y="1192"/>
      <point x="-654" y="1192" type="curve" smooth="yes"/>
      <point x="-606" y="1192"/>
      <point x="-575" y="1166"/>
      <point x="-550" y="1123" type="curve" smooth="yes"/>
      <point x="-519" y="1069"/>
      <point x="-496" y="1043"/>
      <point x="-445" y="1043" type="curve" smooth="yes"/>
      <point x="-388" y="1043"/>
      <point x="-360" y="1071"/>
      <point x="-360" y="1121" type="curve"/>
      <point x="-404" y="1121" type="line"/>
      <point x="-404" y="1101"/>
      <point x="-418" y="1088"/>
      <point x="-442" y="1088" type="curve" smooth="yes"/>
      <point x="-469" y="1088"/>
      <point x="-485" y="1107"/>
      <point x="-485" y="1135" type="curve" smooth="yes"/>
      <point x="-485" y="1172"/>
      <point x="-460" y="1192"/>
      <point x="-416" y="1192" type="curve" smooth="yes"/>
      <point x="-344" y="1192"/>
      <point x="-305" y="1131"/>
      <point x="-265" y="1051" type="curve"/>
      <point x="-224" y="1051" type="line"/>
      <point x="-209" y="1111"/>
      <point x="-188" y="1164"/>
      <point x="-156" y="1215" type="curve"/>
      <point x="-200" y="1235" type="line"/>
      <point x="-224" y="1189"/>
      <point x="-241" y="1147"/>
      <point x="-250" y="1109" type="curve"/>
      <point x="-252" y="1109" type="line"/>
      <point x="-293" y="1194"/>
      <point x="-349" y="1237"/>
      <point x="-419" y="1237" type="curve" smooth="yes"/>
      <point x="-475" y="1237"/>
      <point x="-512" y="1210"/>
      <point x="-524" y="1159" type="curve"/>
      <point x="-526" y="1159" type="line"/>
      <point x="-559" y="1212"/>
      <point x="-598" y="1237"/>
      <point x="-654" y="1237" type="curve" smooth="yes"/>
      <point x="-724" y="1237"/>
      <point x="-758" y="1197"/>
      <point x="-758" y="1135" type="curve" smooth="yes"/>
      <point x="-758" y="1075"/>
      <point x="-729" y="1043"/>
    </contour>
    <contour>
      <point x="-676" y="823" type="curve" smooth="yes"/>
      <point x="-628" y="823"/>
      <point x="-597" y="851"/>
      <point x="-597" y="901" type="curve"/>
      <point x="-641" y="901" type="line"/>
      <point x="-641" y="880"/>
      <point x="-657" y="868"/>
      <point x="-678" y="868" type="curve" smooth="yes"/>
      <point x="-701" y="868"/>
      <point x="-715" y="885"/>
      <point x="-715" y="915" type="curve" smooth="yes"/>
      <point x="-715" y="949"/>
      <point x="-697" y="972"/>
      <point x="-654" y="972" type="curve" smooth="yes"/>
      <point x="-606" y="972"/>
      <point x="-575" y="946"/>
      <point x="-550" y="903" type="curve" smooth="yes"/>
      <point x="-519" y="849"/>
      <point x="-496" y="823"/>
      <point x="-445" y="823" type="curve" smooth="yes"/>
      <point x="-388" y="823"/>
      <point x="-360" y="851"/>
      <point x="-360" y="901" type="curve"/>
      <point x="-404" y="901" type="line"/>
      <point x="-404" y="881"/>
      <point x="-418" y="868"/>
      <point x="-442" y="868" type="curve" smooth="yes"/>
      <point x="-469" y="868"/>
      <point x="-485" y="887"/>
      <point x="-485" y="915" type="curve" smooth="yes"/>
      <point x="-485" y="952"/>
      <point x="-460" y="972"/>
      <point x="-416" y="972" type="curve" smooth="yes"/>
      <point x="-344" y="972"/>
      <point x="-305" y="911"/>
      <point x="-265" y="831" type="curve"/>
      <point x="-224" y="831" type="line"/>
      <point x="-209" y="891"/>
      <point x="-188" y="944"/>
      <point x="-156" y="995" type="curve"/>
      <point x="-200" y="1015" type="line"/>
      <point x="-224" y="969"/>
      <point x="-241" y="927"/>
      <point x="-250" y="889" type="curve"/>
      <point x="-252" y="889" type="line"/>
      <point x="-293" y="974"/>
      <point x="-349" y="1017"/>
      <point x="-419" y="1017" type="curve" smooth="yes"/>
      <point x="-475" y="1017"/>
      <point x="-512" y="990"/>
      <point x="-524" y="939" type="curve"/>
      <point x="-526" y="939" type="line"/>
      <point x="-559" y="992"/>
      <point x="-598" y="1017"/>
      <point x="-654" y="1017" type="curve" smooth="yes"/>
      <point x="-724" y="1017"/>
      <point x="-758" y="977"/>
      <point x="-758" y="915" type="curve" smooth="yes"/>
      <point x="-758" y="855"/>
      <point x="-729" y="823"/>
    </contour>
  </outline>
</glyph>
<glyph name="u1887" format="2">
  <advance width="1021"/>
  <unicode hex="1887"/>
  <outline>
    <contour>
      <point x="226" y="74" type="line"/>
      <point x="292" y="74" type="line"/>
      <point x="302" y="219" type="line" smooth="yes"/>
      <point x="309" y="326"/>
      <point x="335" y="364"/>
      <point x="445" y="364" type="curve" smooth="yes"/>
      <point x="868" y="364" type="line"/>
      <point x="820" y="206" type="line"/>
      <point x="904" y="206" type="line"/>
      <point x="976" y="444" type="line"/>
      <point x="444" y="444" type="line" smooth="yes"/>
      <point x="360" y="444"/>
      <point x="307" y="416"/>
      <point x="285" y="361" type="curve"/>
      <point x="281" y="361" type="line"/>
      <point x="278" y="445" type="line" smooth="yes"/>
      <point x="273" y="575"/>
      <point x="248" y="653"/>
      <point x="139" y="653" type="curve" smooth="yes"/>
      <point x="100" y="653"/>
      <point x="57" y="643"/>
      <point x="10" y="623" type="curve"/>
      <point x="10" y="550" type="line"/>
      <point x="52" y="567"/>
      <point x="88" y="575"/>
      <point x="118" y="575" type="curve" smooth="yes"/>
      <point x="180" y="575"/>
      <point x="194" y="522"/>
      <point x="200" y="437" type="curve" smooth="yes"/>
    </contour>
  </outline>
</glyph>
<glyph name="u188F" format="2">
  <advance width="525"/>
  <unicode hex="188F"/>
  <outline>
    <contour>
      <point x="361" y="-119" type="curve" smooth="yes"/>
      <point x="412" y="-119"/>
      <point x="454" y="-76"/>
      <point x="454" y="-26" type="curve" smooth="yes"/>
      <point x="454" y="25"/>
      <point x="411" y="67"/>
      <point x="361" y="67" type="curve" smooth="yes"/>
      <point x="328" y="67"/>
      <point x="300" y="50"/>
      <point x="283" y="25" type="curve"/>
      <point x="231" y="105"/>
      <point x="170" y="262"/>
      <point x="141" y="364" type="curve"/>
      <point x="480" y="364" type="line"/>
      <point x="480" y="444" type="line"/>
      <point x="45" y="444" type="line"/>
      <point x="63" y="350"/>
      <point x="92" y="251"/>
      <point x="133" y="149" type="curve" smooth="yes"/>
      <point x="192" y="2"/>
      <point x="251" y="-119"/>
    </contour>
  </outline>
</glyph>
<glyph name="u1892" format="2">
  <advance width="680"/>
  <unicode hex="1892"/>
  <outline>
    <contour>
      <point x="272" y="40" type="curve" smooth="yes"/>
      <point x="375" y="40"/>
      <point x="451" y="135"/>
      <point x="451" y="275" type="curve" smooth="yes"/>
      <point x="451" y="312"/>
      <point x="440" y="410"/>
      <point x="428" y="444" type="curve"/>
      <point x="124" y="444" type="line"/>
      <point x="126" y="590"/>
      <point x="198" y="699"/>
      <point x="335" y="699" type="curve" smooth="yes"/>
      <point x="476" y="699"/>
      <point x="543" y="567"/>
      <point x="555" y="409" type="curve"/>
      <point x="635" y="419" type="line"/>
      <point x="621" y="614"/>
      <point x="516" y="782"/>
      <point x="335" y="782" type="curve" smooth="yes"/>
      <point x="141" y="782"/>
      <point x="45" y="624"/>
      <point x="45" y="408" type="curve" smooth="yes"/>
      <point x="45" y="364" type="line"/>
      <point x="362" y="364" type="line"/>
      <point x="369" y="345"/>
      <point x="372" y="315"/>
      <point x="372" y="275" type="curve" smooth="yes"/>
      <point x="372" y="190"/>
      <point x="337" y="123"/>
      <point x="264" y="123" type="curve" smooth="yes"/>
      <point x="193" y="123"/>
      <point x="149" y="172"/>
      <point x="132" y="269" type="curve"/>
      <point x="55" y="269" type="line"/>
      <point x="79" y="116"/>
      <point x="151" y="40"/>
    </contour>
  </outline>
</glyph>
<glyph name="u1893" format="2">
  <advance width="675"/>
  <unicode hex="1893"/>
  <outline>
    <contour>
      <point x="407" y="-176" type="curve"/>
      <point x="407" y="-89" type="line"/>
      <point x="364" y="-55"/>
      <point x="301" y="-50"/>
      <point x="227" y="-50" type="curve" smooth="yes"/>
      <point x="206" y="-50" type="line" smooth="yes"/>
      <point x="150" y="-50"/>
      <point x="122" y="-26"/>
      <point x="122" y="11" type="curve" smooth="yes"/>
      <point x="122" y="68"/>
      <point x="168" y="81"/>
      <point x="231" y="81" type="curve" smooth="yes"/>
      <point x="343" y="81"/>
      <point x="418" y="162"/>
      <point x="418" y="283" type="curve" smooth="yes"/>
      <point x="418" y="331"/>
      <point x="409" y="400"/>
      <point x="397" y="444" type="curve"/>
      <point x="124" y="444" type="line"/>
      <point x="126" y="588"/>
      <point x="194" y="699"/>
      <point x="330" y="699" type="curve" smooth="yes"/>
      <point x="468" y="699"/>
      <point x="537" y="571"/>
      <point x="550" y="409" type="curve"/>
      <point x="630" y="419" type="line"/>
      <point x="616" y="617"/>
      <point x="509" y="782"/>
      <point x="330" y="782" type="curve" smooth="yes"/>
      <point x="138" y="782"/>
      <point x="45" y="624"/>
      <point x="45" y="408" type="curve" smooth="yes"/>
      <point x="45" y="364" type="line"/>
      <point x="329" y="364" type="line"/>
      <point x="335" y="346"/>
      <point x="339" y="319"/>
      <point x="339" y="283" type="curve" smooth="yes"/>
      <point x="339" y="209"/>
      <point x="298" y="161"/>
      <point x="231" y="161" type="curve" smooth="yes"/>
      <point x="111" y="161"/>
      <point x="51" y="108"/>
      <point x="51" y="12" type="curve" smooth="yes"/>
      <point x="51" y="-83"/>
      <point x="103" y="-130"/>
      <point x="206" y="-130" type="curve" smooth="yes"/>
      <point x="227" y="-130" type="line" smooth="yes"/>
      <point x="301" y="-130"/>
      <point x="352" y="-134"/>
    </contour>
  </outline>
</glyph>
<glyph name="u1896" format="2">
  <advance width="727"/>
  <unicode hex="1896"/>
  <outline>
    <contour>
      <point x="127" y="-178" type="line"/>
      <point x="170" y="-151"/>
      <point x="208" y="-147"/>
      <point x="266" y="-147" type="curve" smooth="yes"/>
      <point x="378" y="-147"/>
      <point x="447" y="-59"/>
      <point x="447" y="55" type="curve" smooth="yes"/>
      <point x="447" y="151" type="line" smooth="yes"/>
      <point x="447" y="222"/>
      <point x="457" y="293"/>
      <point x="477" y="364" type="curve"/>
      <point x="682" y="364" type="line"/>
      <point x="682" y="444" type="line"/>
      <point x="63" y="444" type="line"/>
      <point x="45" y="364" type="line"/>
      <point x="403" y="364" type="line"/>
      <point x="385" y="302"/>
      <point x="375" y="238"/>
      <point x="374" y="170" type="curve"/>
      <point x="337" y="170" type="line" smooth="yes"/>
      <point x="239" y="170"/>
      <point x="160" y="167"/>
      <point x="102" y="128" type="curve"/>
      <point x="102" y="43" type="line"/>
      <point x="167" y="84"/>
      <point x="236" y="90"/>
      <point x="337" y="90" type="curve" smooth="yes"/>
      <point x="374" y="90" type="line"/>
      <point x="374" y="55" type="line" smooth="yes"/>
      <point x="374" y="-19"/>
      <point x="333" y="-67"/>
      <point x="266" y="-67" type="curve" smooth="yes"/>
      <point x="205" y="-67"/>
      <point x="163" y="-69"/>
      <point x="127" y="-98" type="curve"/>
    </contour>
  </outline>
</glyph>
<glyph name="u1897" format="2">
  <advance width="550"/>
  <unicode hex="1897"/>
  <outline>
    <contour>
      <point x="287" y="30" type="curve" smooth="yes"/>
      <point x="324" y="30"/>
      <point x="355" y="42"/>
      <point x="370" y="64" type="curve"/>
      <point x="370" y="155" type="line"/>
      <point x="351" y="127"/>
      <point x="323" y="113"/>
      <point x="287" y="113" type="curve" smooth="yes"/>
      <point x="184" y="113"/>
      <point x="124" y="290"/>
      <point x="124" y="407" type="curve" smooth="yes"/>
      <point x="124" y="567"/>
      <point x="181" y="644"/>
      <point x="273" y="644" type="curve" smooth="yes"/>
      <point x="362" y="644"/>
      <point x="414" y="573"/>
      <point x="426" y="409" type="curve"/>
      <point x="505" y="419" type="line"/>
      <point x="493" y="591"/>
      <point x="425" y="727"/>
      <point x="273" y="727" type="curve" smooth="yes"/>
      <point x="135" y="727"/>
      <point x="45" y="603"/>
      <point x="45" y="407" type="curve" smooth="yes"/>
      <point x="45" y="328"/>
      <point x="66" y="238"/>
      <point x="104" y="166" type="curve" smooth="yes"/>
      <point x="145" y="88"/>
      <point x="205" y="30"/>
    </contour>
  </outline>
</glyph>
<glyph name="u189B" format="2">
  <advance width="849"/>
  <unicode hex="189B"/>
  <outline>
    <contour>
      <point x="226" y="74" type="line"/>
      <point x="292" y="74" type="line"/>
      <point x="302" y="219" type="line" smooth="yes"/>
      <point x="310" y="330"/>
      <point x="336" y="364"/>
      <point x="445" y="364" type="curve" smooth="yes"/>
      <point x="804" y="364" type="line"/>
      <point x="804" y="444" type="line"/>
      <point x="444" y="444" type="line" smooth="yes"/>
      <point x="360" y="444"/>
      <point x="307" y="416"/>
      <point x="285" y="361" type="curve"/>
      <point x="281" y="361" type="line"/>
      <point x="278" y="445" type="line" smooth="yes"/>
      <point x="273" y="575"/>
      <point x="248" y="653"/>
      <point x="139" y="653" type="curve" smooth="yes"/>
      <point x="100" y="653"/>
      <point x="57" y="643"/>
      <point x="10" y="623" type="curve"/>
      <point x="10" y="550" type="line"/>
      <point x="52" y="567"/>
      <point x="88" y="575"/>
      <point x="118" y="575" type="curve" smooth="yes"/>
      <point x="179" y="575"/>
      <point x="194" y="520"/>
      <point x="200" y="437" type="curve" smooth="yes"/>
    </contour>
    <contour>
      <point x="504" y="49" type="curve" smooth="yes"/>
      <point x="566" y="49"/>
      <point x="623" y="99"/>
      <point x="623" y="168" type="curve" smooth="yes"/>
      <point x="623" y="234"/>
      <point x="569" y="287"/>
      <point x="504" y="287" type="curve" smooth="yes"/>
      <point x="442" y="287"/>
      <point x="385" y="238"/>
      <point x="385" y="168" type="curve" smooth="yes"/>
      <point x="385" y="100"/>
      <point x="440" y="49"/>
    </contour>
    <contour>
      <point x="504" y="99" type="curve" smooth="yes"/>
      <point x="469" y="99"/>
      <point x="436" y="126"/>
      <point x="436" y="168" type="curve" smooth="yes"/>
      <point x="436" y="207"/>
      <point x="467" y="236"/>
      <point x="504" y="236" type="curve" smooth="yes"/>
      <point x="542" y="236"/>
      <point x="573" y="206"/>
      <point x="573" y="168" type="curve" smooth="yes"/>
      <point x="573" y="129"/>
      <point x="543" y="99"/>
    </contour>
  </outline>
</glyph>
<glyph name="u189F" format="2">
  <advance width="697"/>
  <unicode hex="189F"/>
  <outline>
    <contour>
      <point x="233" y="-67" type="curve"/>
      <point x="306" y="-31" type="line"/>
      <point x="229" y="109"/>
      <point x="174" y="241"/>
      <point x="139" y="364" type="curve"/>
      <point x="652" y="364" type="line"/>
      <point x="652" y="444" type="line"/>
      <point x="45" y="444" type="line"/>
      <point x="73" y="275"/>
      <point x="139" y="110"/>
    </contour>
    <contour>
      <point x="164" y="519" type="curve" smooth="yes"/>
      <point x="226" y="519"/>
      <point x="283" y="569"/>
      <point x="283" y="638" type="curve" smooth="yes"/>
      <point x="283" y="704"/>
      <point x="229" y="757"/>
      <point x="164" y="757" type="curve" smooth="yes"/>
      <point x="102" y="757"/>
      <point x="45" y="707"/>
      <point x="45" y="638" type="curve" smooth="yes"/>
      <point x="45" y="572"/>
      <point x="99" y="519"/>
    </contour>
    <contour>
      <point x="164" y="569" type="curve" smooth="yes"/>
      <point x="124" y="569"/>
      <point x="96" y="599"/>
      <point x="96" y="638" type="curve" smooth="yes"/>
      <point x="96" y="674"/>
      <point x="121" y="706"/>
      <point x="164" y="706" type="curve" smooth="yes"/>
      <point x="204" y="706"/>
      <point x="233" y="676"/>
      <point x="233" y="638" type="curve" smooth="yes"/>
      <point x="233" y="599"/>
      <point x="203" y="569"/>
    </contour>
    <contour>
      <point x="454" y="519" type="curve" smooth="yes"/>
      <point x="516" y="519"/>
      <point x="573" y="568"/>
      <point x="573" y="638" type="curve" smooth="yes"/>
      <point x="573" y="706"/>
      <point x="518" y="757"/>
      <point x="454" y="757" type="curve" smooth="yes"/>
      <point x="392" y="757"/>
      <point x="335" y="707"/>
      <point x="335" y="638" type="curve" smooth="yes"/>
      <point x="335" y="572"/>
      <point x="389" y="519"/>
    </contour>
    <contour>
      <point x="454" y="569" type="curve" smooth="yes"/>
      <point x="414" y="569"/>
      <point x="386" y="599"/>
      <point x="386" y="638" type="curve" smooth="yes"/>
      <point x="386" y="674"/>
      <point x="411" y="706"/>
      <point x="454" y="706" type="curve" smooth="yes"/>
      <point x="494" y="706"/>
      <point x="523" y="676"/>
      <point x="523" y="638" type="curve" smooth="yes"/>
      <point x="523" y="599"/>
      <point x="493" y="569"/>
    </contour>
  </outline>
</glyph>
<glyph name="u18A3" format="2">
  <advance width="520"/>
  <unicode hex="18A3"/>
  <outline>
    <contour>
      <point x="210" y="66" type="line"/>
      <point x="300" y="66" type="line"/>
      <point x="187" y="364" type="line"/>
      <point x="475" y="364" type="line"/>
      <point x="475" y="444" type="line"/>
      <point x="156" y="444" type="line"/>
      <point x="80" y="646" type="line"/>
      <point x="10" y="646" type="line"/>
    </contour>
  </outline>
</glyph>
<glyph name="u18A6" format="2">
  <advance width="505"/>
  <unicode hex="18A6"/>
  <outline>
    <contour>
      <point x="204" y="29" type="curve"/>
      <point x="307" y="29" type="line"/>
      <point x="345" y="152"/>
      <point x="396" y="264"/>
      <point x="460" y="364" type="curve"/>
      <point x="460" y="444" type="line"/>
      <point x="45" y="444" type="line"/>
      <point x="54" y="303"/>
      <point x="117" y="149"/>
    </contour>
    <contour>
      <point x="249" y="102" type="curve"/>
      <point x="199" y="176"/>
      <point x="151" y="277"/>
      <point x="137" y="364" type="curve"/>
      <point x="366" y="364" type="line"/>
      <point x="325" y="294"/>
      <point x="274" y="179"/>
    </contour>
  </outline>
</glyph>
<glyph name="u18A9" format="2">
  <unicode hex="18A9"/>
  <outline>
    <contour>
      <point x="171" y="-203" type="curve"/>
      <point x="245" y="-203" type="line"/>
      <point x="255" y="-188"/>
      <point x="260" y="-169"/>
      <point x="260" y="-146" type="curve" smooth="yes"/>
      <point x="260" y="-64"/>
      <point x="216" y="-21"/>
      <point x="135" y="-21" type="curve" smooth="yes"/>
      <point x="0" y="-21" type="line"/>
      <point x="0" y="-101" type="line"/>
      <point x="135" y="-101" type="line" smooth="yes"/>
      <point x="170" y="-101"/>
      <point x="183" y="-117"/>
      <point x="183" y="-146" type="curve" smooth="yes"/>
      <point x="183" y="-167"/>
      <point x="179" y="-187"/>
    </contour>
  </outline>
</glyph>
<glyph name="emdash" format="2">
  <advance width="1000"/>
  <unicode hex="2014"/>
  <outline>
    <contour>
      <point x="40" y="365" type="line"/>
      <point x="960" y="365" type="line"/>
      <point x="960" y="443" type="line"/>
      <point x="40" y="443" type="line"/>
    </contour>
  </outline>
</glyph>
<glyph name="quotedblleft" format="2">
  <advance width="406"/>
  <unicode hex="201C"/>
  <outline>
    <contour>
      <point x="140" y="572" type="curve"/>
      <point x="140" y="507" type="line"/>
      <point x="213" y="474"/>
      <point x="305" y="438"/>
      <point x="375" y="420" type="curve"/>
      <point x="386" y="427" type="line"/>
      <point x="386" y="522" type="line"/>
      <point x="317" y="532"/>
      <point x="218" y="553"/>
    </contour>
    <contour>
      <point x="140" y="387" type="curve"/>
      <point x="140" y="323" type="line"/>
      <point x="213" y="290"/>
      <point x="305" y="255"/>
      <point x="375" y="237" type="curve"/>
      <point x="386" y="243" type="line"/>
      <point x="386" y="337" type="line"/>
      <point x="317" y="347"/>
      <point x="218" y="368"/>
    </contour>
  </outline>
</glyph>
<glyph name="quotedblright" format="2">
  <advance width="406"/>
  <unicode hex="201D"/>
  <outline>
    <contour>
      <point x="140" y="565" type="line"/>
      <point x="140" y="471" type="line"/>
      <point x="211" y="461"/>
      <point x="311" y="439"/>
      <point x="386" y="420" type="curve"/>
      <point x="386" y="486" type="line"/>
      <point x="315" y="518"/>
      <point x="223" y="554"/>
      <point x="151" y="572" type="curve"/>
    </contour>
    <contour>
      <point x="140" y="380" type="line"/>
      <point x="140" y="286" type="line"/>
      <point x="211" y="276"/>
      <point x="311" y="256"/>
      <point x="386" y="237" type="curve"/>
      <point x="386" y="301" type="line"/>
      <point x="315" y="333"/>
      <point x="223" y="369"/>
      <point x="151" y="387" type="curve"/>
    </contour>
  </outline>
</glyph>
<glyph name="u2048" format="2">
  <advance width="988"/>
  <unicode hex="2048"/>
  <outline>
    <contour>
      <point x="598" y="781" type="line"/>
      <point x="623" y="268" type="line"/>
      <point x="680" y="268" type="line"/>
      <point x="705" y="781" type="line"/>
    </contour>
    <contour>
      <point x="589" y="121" type="curve" smooth="yes"/>
      <point x="589" y="73"/>
      <point x="616" y="53"/>
      <point x="651" y="53" type="curve" smooth="yes"/>
      <point x="685" y="53"/>
      <point x="713" y="73"/>
      <point x="713" y="121" type="curve" smooth="yes"/>
      <point x="713" y="164"/>
      <point x="690" y="188"/>
      <point x="651" y="188" type="curve" smooth="yes"/>
      <point x="616" y="188"/>
      <point x="589" y="170"/>
    </contour>
    <contour>
      <point x="124" y="741" type="curve"/>
      <point x="155" y="671" type="line"/>
      <point x="216" y="700"/>
      <point x="253" y="713"/>
      <point x="315" y="713" type="curve" smooth="yes"/>
      <point x="394" y="713"/>
      <point x="436" y="677"/>
      <point x="436" y="613" type="curve" smooth="yes"/>
      <point x="436" y="553"/>
      <point x="406" y="522"/>
      <point x="336" y="464" type="curve" smooth="yes"/>
      <point x="300" y="434"/>
      <point x="278" y="406"/>
      <point x="268" y="383" type="curve" smooth="yes"/>
      <point x="258" y="360"/>
      <point x="252" y="331"/>
      <point x="252" y="294" type="curve" smooth="yes"/>
      <point x="252" y="267" type="line"/>
      <point x="322" y="267" type="line"/>
      <point x="322" y="284" type="line" smooth="yes"/>
      <point x="322" y="314"/>
      <point x="327" y="338"/>
      <point x="338" y="356" type="curve" smooth="yes"/>
      <point x="349" y="374"/>
      <point x="370" y="397"/>
      <point x="402" y="424" type="curve" smooth="yes"/>
      <point x="474" y="485"/>
      <point x="520" y="524"/>
      <point x="520" y="615" type="curve" smooth="yes"/>
      <point x="520" y="727"/>
      <point x="444" y="790"/>
      <point x="321" y="790" type="curve" smooth="yes"/>
      <point x="252" y="790"/>
      <point x="186" y="774"/>
    </contour>
    <contour>
      <point x="229" y="120" type="curve" smooth="yes"/>
      <point x="229" y="72"/>
      <point x="255" y="52"/>
      <point x="291" y="52" type="curve" smooth="yes"/>
      <point x="324" y="52"/>
      <point x="352" y="72"/>
      <point x="352" y="120" type="curve" smooth="yes"/>
      <point x="352" y="164"/>
      <point x="330" y="187"/>
      <point x="291" y="187" type="curve" smooth="yes"/>
      <point x="250" y="187"/>
      <point x="229" y="165"/>
    </contour>
  </outline>
</glyph>
<glyph name="u2049" format="2">
  <advance width="988"/>
  <unicode hex="2049"/>
  <outline>
    <contour>
      <point x="251" y="772" type="line"/>
      <point x="276" y="259" type="line"/>
      <point x="333" y="259" type="line"/>
      <point x="358" y="772" type="line"/>
    </contour>
    <contour>
      <point x="242" y="112" type="curve" smooth="yes"/>
      <point x="242" y="64"/>
      <point x="269" y="44"/>
      <point x="304" y="44" type="curve" smooth="yes"/>
      <point x="338" y="44"/>
      <point x="366" y="64"/>
      <point x="366" y="112" type="curve" smooth="yes"/>
      <point x="366" y="155"/>
      <point x="343" y="179"/>
      <point x="304" y="179" type="curve" smooth="yes"/>
      <point x="269" y="179"/>
      <point x="242" y="161"/>
    </contour>
    <contour>
      <point x="412" y="732" type="curve"/>
      <point x="443" y="662" type="line"/>
      <point x="504" y="691"/>
      <point x="541" y="704"/>
      <point x="603" y="704" type="curve" smooth="yes"/>
      <point x="682" y="704"/>
      <point x="724" y="668"/>
      <point x="724" y="604" type="curve" smooth="yes"/>
      <point x="724" y="544"/>
      <point x="694" y="513"/>
      <point x="624" y="455" type="curve" smooth="yes"/>
      <point x="588" y="425"/>
      <point x="566" y="397"/>
      <point x="556" y="374" type="curve" smooth="yes"/>
      <point x="546" y="351"/>
      <point x="540" y="322"/>
      <point x="540" y="285" type="curve" smooth="yes"/>
      <point x="540" y="258" type="line"/>
      <point x="610" y="258" type="line"/>
      <point x="610" y="275" type="line" smooth="yes"/>
      <point x="610" y="305"/>
      <point x="615" y="329"/>
      <point x="626" y="347" type="curve" smooth="yes"/>
      <point x="637" y="365"/>
      <point x="658" y="388"/>
      <point x="690" y="415" type="curve" smooth="yes"/>
      <point x="762" y="476"/>
      <point x="808" y="515"/>
      <point x="808" y="606" type="curve" smooth="yes"/>
      <point x="808" y="718"/>
      <point x="732" y="781"/>
      <point x="609" y="781" type="curve" smooth="yes"/>
      <point x="540" y="781"/>
      <point x="474" y="765"/>
    </contour>
    <contour>
      <point x="517" y="111" type="curve" smooth="yes"/>
      <point x="517" y="63"/>
      <point x="543" y="43"/>
      <point x="579" y="43" type="curve" smooth="yes"/>
      <point x="612" y="43"/>
      <point x="640" y="63"/>
      <point x="640" y="111" type="curve" smooth="yes"/>
      <point x="640" y="155"/>
      <point x="618" y="178"/>
      <point x="579" y="178" type="curve" smooth="yes"/>
      <point x="538" y="178"/>
      <point x="517" y="156"/>
    </contour>
  </outline>
</glyph>
<glyph name="u2460" format="2">
  <advance width="1100"/>
  <unicode hex="2460"/>
  <outline>
    <contour>
      <point x="50" y="404" type="curve" smooth="yes"/>
      <point x="50" y="127"/>
      <point x="275" y="-96"/>
      <point x="550" y="-96" type="curve" smooth="yes"/>
      <point x="826" y="-96"/>
      <point x="1050" y="129"/>
      <point x="1050" y="404" type="curve" smooth="yes"/>
      <point x="1050" y="682"/>
      <point x="824" y="904"/>
      <point x="550" y="904" type="curve" smooth="yes"/>
      <point x="278" y="904"/>
      <point x="50" y="683"/>
    </contour>
    <contour>
      <point x="354" y="585" type="line"/>
      <point x="399" y="528" type="line"/>
      <point x="462" y="576"/>
      <point x="498" y="604"/>
      <point x="505" y="610" type="curve" smooth="yes"/>
      <point x="514" y="617"/>
      <point x="521" y="623"/>
      <point x="530" y="632" type="curve"/>
      <point x="528" y="606"/>
      <point x="527" y="568"/>
      <point x="527" y="519" type="curve" smooth="yes"/>
      <point x="527" y="83" type="line"/>
      <point x="613" y="83" type="line"/>
      <point x="613" y="725" type="line"/>
      <point x="540" y="725" type="line"/>
    </contour>
    <contour>
      <point x="100" y="404" type="curve" smooth="yes"/>
      <point x="100" y="653"/>
      <point x="301" y="854"/>
      <point x="550" y="854" type="curve" smooth="yes"/>
      <point x="799" y="854"/>
      <point x="1000" y="652"/>
      <point x="1000" y="404" type="curve" smooth="yes"/>
      <point x="1000" y="155"/>
      <point x="797" y="-46"/>
      <point x="550" y="-46" type="curve" smooth="yes"/>
      <point x="305" y="-46"/>
      <point x="100" y="152"/>
    </contour>
  </outline>
</glyph>
<glyph name="u2461" format="2">
  <advance width="1100"/>
  <unicode hex="2461"/>
  <outline>
    <contour>
      <point x="328" y="153" type="line"/>
      <point x="328" y="83" type="line"/>
      <point x="778" y="83" type="line"/>
      <point x="778" y="162" type="line"/>
      <point x="439" y="162" type="line"/>
      <point x="439" y="165" type="line"/>
      <point x="576" y="290" type="line" smooth="yes"/>
      <point x="679" y="384"/>
      <point x="751" y="460"/>
      <point x="751" y="563" type="curve" smooth="yes"/>
      <point x="751" y="675"/>
      <point x="664" y="735"/>
      <point x="546" y="735" type="curve" smooth="yes"/>
      <point x="465" y="735"/>
      <point x="400" y="709"/>
      <point x="335" y="656" type="curve"/>
      <point x="382" y="598" type="line"/>
      <point x="434" y="636"/>
      <point x="481" y="660"/>
      <point x="545" y="660" type="curve" smooth="yes"/>
      <point x="610" y="660"/>
      <point x="662" y="628"/>
      <point x="662" y="557" type="curve" smooth="yes"/>
      <point x="662" y="470"/>
      <point x="601" y="413"/>
      <point x="505" y="322" type="curve" smooth="yes"/>
    </contour>
    <contour>
      <point x="50" y="404" type="curve" smooth="yes"/>
      <point x="50" y="127"/>
      <point x="275" y="-96"/>
      <point x="550" y="-96" type="curve" smooth="yes"/>
      <point x="826" y="-96"/>
      <point x="1050" y="129"/>
      <point x="1050" y="404" type="curve" smooth="yes"/>
      <point x="1050" y="682"/>
      <point x="824" y="904"/>
      <point x="550" y="904" type="curve" smooth="yes"/>
      <point x="278" y="904"/>
      <point x="50" y="683"/>
    </contour>
    <contour>
      <point x="100" y="404" type="curve" smooth="yes"/>
      <point x="100" y="653"/>
      <point x="301" y="854"/>
      <point x="550" y="854" type="curve" smooth="yes"/>
      <point x="799" y="854"/>
      <point x="1000" y="652"/>
      <point x="1000" y="404" type="curve" smooth="yes"/>
      <point x="1000" y="155"/>
      <point x="797" y="-46"/>
      <point x="550" y="-46" type="curve" smooth="yes"/>
      <point x="305" y="-46"/>
      <point x="100" y="152"/>
    </contour>
  </outline>
</glyph>
<glyph name="u2462" format="2">
  <advance width="1100"/>
  <unicode hex="2462"/>
  <outline>
    <contour>
      <point x="327" y="189" type="curve"/>
      <point x="327" y="109" type="line"/>
      <point x="383" y="82"/>
      <point x="442" y="74"/>
      <point x="514" y="74" type="curve" smooth="yes"/>
      <point x="663" y="74"/>
      <point x="775" y="131"/>
      <point x="775" y="266" type="curve" smooth="yes"/>
      <point x="775" y="351"/>
      <point x="722" y="405"/>
      <point x="613" y="418" type="curve"/>
      <point x="613" y="421" type="line"/>
      <point x="700" y="438"/>
      <point x="754" y="488"/>
      <point x="754" y="576" type="curve" smooth="yes"/>
      <point x="754" y="682"/>
      <point x="668" y="735"/>
      <point x="543" y="735" type="curve" smooth="yes"/>
      <point x="451" y="735"/>
      <point x="379" y="705"/>
      <point x="331" y="669" type="curve"/>
      <point x="374" y="608" type="line"/>
      <point x="434" y="644"/>
      <point x="478" y="661"/>
      <point x="543" y="661" type="curve" smooth="yes"/>
      <point x="619" y="661"/>
      <point x="665" y="627"/>
      <point x="665" y="567" type="curve" smooth="yes"/>
      <point x="665" y="498"/>
      <point x="609" y="451"/>
      <point x="496" y="451" type="curve" smooth="yes"/>
      <point x="431" y="451" type="line"/>
      <point x="431" y="378" type="line"/>
      <point x="495" y="378" type="line" smooth="yes"/>
      <point x="616" y="378"/>
      <point x="683" y="345"/>
      <point x="683" y="269" type="curve" smooth="yes"/>
      <point x="683" y="187"/>
      <point x="627" y="147"/>
      <point x="514" y="147" type="curve" smooth="yes"/>
      <point x="450" y="147"/>
      <point x="387" y="161"/>
    </contour>
    <contour>
      <point x="50" y="404" type="curve" smooth="yes"/>
      <point x="50" y="127"/>
      <point x="275" y="-96"/>
      <point x="550" y="-96" type="curve" smooth="yes"/>
      <point x="826" y="-96"/>
      <point x="1050" y="129"/>
      <point x="1050" y="404" type="curve" smooth="yes"/>
      <point x="1050" y="682"/>
      <point x="824" y="904"/>
      <point x="550" y="904" type="curve" smooth="yes"/>
      <point x="278" y="904"/>
      <point x="50" y="683"/>
    </contour>
    <contour>
      <point x="100" y="404" type="curve" smooth="yes"/>
      <point x="100" y="653"/>
      <point x="301" y="854"/>
      <point x="550" y="854" type="curve" smooth="yes"/>
      <point x="799" y="854"/>
      <point x="1000" y="652"/>
      <point x="1000" y="404" type="curve" smooth="yes"/>
      <point x="1000" y="155"/>
      <point x="797" y="-46"/>
      <point x="550" y="-46" type="curve" smooth="yes"/>
      <point x="305" y="-46"/>
      <point x="100" y="152"/>
    </contour>
  </outline>
</glyph>
<glyph name="u2463" format="2">
  <advance width="1100"/>
  <unicode hex="2463"/>
  <outline>
    <contour>
      <point x="357" y="302" type="line"/>
      <point x="554" y="559" type="line" smooth="yes"/>
      <point x="566" y="575"/>
      <point x="580" y="598"/>
      <point x="595" y="629" type="curve"/>
      <point x="599" y="629" type="line"/>
      <point x="596" y="584"/>
      <point x="594" y="537"/>
      <point x="594" y="487" type="curve" smooth="yes"/>
      <point x="594" y="302" type="line"/>
    </contour>
    <contour>
      <point x="272" y="298" type="line"/>
      <point x="272" y="226" type="line"/>
      <point x="594" y="226" type="line"/>
      <point x="594" y="83" type="line"/>
      <point x="679" y="83" type="line"/>
      <point x="679" y="226" type="line"/>
      <point x="777" y="226" type="line"/>
      <point x="777" y="302" type="line"/>
      <point x="679" y="302" type="line"/>
      <point x="679" y="725" type="line"/>
      <point x="590" y="725" type="line"/>
    </contour>
    <contour>
      <point x="50" y="404" type="curve" smooth="yes"/>
      <point x="50" y="127"/>
      <point x="275" y="-96"/>
      <point x="550" y="-96" type="curve" smooth="yes"/>
      <point x="826" y="-96"/>
      <point x="1050" y="129"/>
      <point x="1050" y="404" type="curve" smooth="yes"/>
      <point x="1050" y="682"/>
      <point x="824" y="904"/>
      <point x="550" y="904" type="curve" smooth="yes"/>
      <point x="278" y="904"/>
      <point x="50" y="683"/>
    </contour>
    <contour>
      <point x="100" y="404" type="curve" smooth="yes"/>
      <point x="100" y="653"/>
      <point x="301" y="854"/>
      <point x="550" y="854" type="curve" smooth="yes"/>
      <point x="799" y="854"/>
      <point x="1000" y="652"/>
      <point x="1000" y="404" type="curve" smooth="yes"/>
      <point x="1000" y="155"/>
      <point x="797" y="-46"/>
      <point x="550" y="-46" type="curve" smooth="yes"/>
      <point x="305" y="-46"/>
      <point x="100" y="152"/>
    </contour>
  </outline>
</glyph>
<glyph name="u2464" format="2">
  <advance width="1100"/>
  <unicode hex="2464"/>
  <outline>
    <contour>
      <point x="343" y="191" type="curve"/>
      <point x="343" y="109" type="line"/>
      <point x="388" y="86"/>
      <point x="446" y="74"/>
      <point x="519" y="74" type="curve" smooth="yes"/>
      <point x="671" y="74"/>
      <point x="774" y="148"/>
      <point x="774" y="290" type="curve" smooth="yes"/>
      <point x="774" y="414"/>
      <point x="685" y="480"/>
      <point x="547" y="480" type="curve" smooth="yes"/>
      <point x="516" y="480"/>
      <point x="482" y="476"/>
      <point x="444" y="470" type="curve"/>
      <point x="460" y="646" type="line"/>
      <point x="727" y="646" type="line"/>
      <point x="727" y="725" type="line"/>
      <point x="385" y="725" type="line"/>
      <point x="359" y="418" type="line"/>
      <point x="402" y="393" type="line"/>
      <point x="448" y="402"/>
      <point x="486" y="406"/>
      <point x="517" y="406" type="curve" smooth="yes"/>
      <point x="634" y="406"/>
      <point x="684" y="363"/>
      <point x="684" y="281" type="curve" smooth="yes"/>
      <point x="684" y="197"/>
      <point x="625" y="148"/>
      <point x="520" y="148" type="curve" smooth="yes"/>
      <point x="467" y="148"/>
      <point x="392" y="163"/>
    </contour>
    <contour>
      <point x="50" y="404" type="curve" smooth="yes"/>
      <point x="50" y="127"/>
      <point x="275" y="-96"/>
      <point x="550" y="-96" type="curve" smooth="yes"/>
      <point x="826" y="-96"/>
      <point x="1050" y="129"/>
      <point x="1050" y="404" type="curve" smooth="yes"/>
      <point x="1050" y="682"/>
      <point x="824" y="904"/>
      <point x="550" y="904" type="curve" smooth="yes"/>
      <point x="278" y="904"/>
      <point x="50" y="683"/>
    </contour>
    <contour>
      <point x="100" y="404" type="curve" smooth="yes"/>
      <point x="100" y="653"/>
      <point x="301" y="854"/>
      <point x="550" y="854" type="curve" smooth="yes"/>
      <point x="799" y="854"/>
      <point x="1000" y="652"/>
      <point x="1000" y="404" type="curve" smooth="yes"/>
      <point x="1000" y="155"/>
      <point x="797" y="-46"/>
      <point x="550" y="-46" type="curve" smooth="yes"/>
      <point x="305" y="-46"/>
      <point x="100" y="152"/>
    </contour>
  </outline>
</glyph>
<glyph name="u2465" format="2">
  <advance width="1100"/>
  <unicode hex="2465"/>
  <outline>
    <contour>
      <point x="304" y="357" type="curve" smooth="yes"/>
      <point x="304" y="193"/>
      <point x="383" y="74"/>
      <point x="536" y="74" type="curve" smooth="yes"/>
      <point x="666" y="74"/>
      <point x="753" y="153"/>
      <point x="753" y="291" type="curve" smooth="yes"/>
      <point x="753" y="414"/>
      <point x="679" y="488"/>
      <point x="556" y="488" type="curve" smooth="yes"/>
      <point x="487" y="488"/>
      <point x="432" y="465"/>
      <point x="397" y="412" type="curve"/>
      <point x="391" y="412" type="line"/>
      <point x="398" y="574"/>
      <point x="462" y="664"/>
      <point x="619" y="664" type="curve" smooth="yes"/>
      <point x="650" y="664"/>
      <point x="677" y="661"/>
      <point x="701" y="653" type="curve"/>
      <point x="701" y="728" type="line"/>
      <point x="682" y="732"/>
      <point x="654" y="735"/>
      <point x="617" y="735" type="curve" smooth="yes"/>
      <point x="394" y="735"/>
      <point x="304" y="593"/>
    </contour>
    <contour>
      <point x="393" y="306" type="curve"/>
      <point x="393" y="364"/>
      <point x="456" y="419"/>
      <point x="538" y="419" type="curve" smooth="yes"/>
      <point x="624" y="419"/>
      <point x="666" y="371"/>
      <point x="666" y="291" type="curve" smooth="yes"/>
      <point x="666" y="199"/>
      <point x="620" y="147"/>
      <point x="535" y="147" type="curve" smooth="yes"/>
      <point x="450" y="147"/>
      <point x="393" y="220"/>
    </contour>
    <contour>
      <point x="50" y="404" type="curve" smooth="yes"/>
      <point x="50" y="127"/>
      <point x="275" y="-96"/>
      <point x="550" y="-96" type="curve" smooth="yes"/>
      <point x="826" y="-96"/>
      <point x="1050" y="129"/>
      <point x="1050" y="404" type="curve" smooth="yes"/>
      <point x="1050" y="682"/>
      <point x="824" y="904"/>
      <point x="550" y="904" type="curve" smooth="yes"/>
      <point x="278" y="904"/>
      <point x="50" y="683"/>
    </contour>
    <contour>
      <point x="100" y="404" type="curve" smooth="yes"/>
      <point x="100" y="653"/>
      <point x="301" y="854"/>
      <point x="550" y="854" type="curve" smooth="yes"/>
      <point x="799" y="854"/>
      <point x="1000" y="652"/>
      <point x="1000" y="404" type="curve" smooth="yes"/>
      <point x="1000" y="155"/>
      <point x="797" y="-46"/>
      <point x="550" y="-46" type="curve" smooth="yes"/>
      <point x="305" y="-46"/>
      <point x="100" y="152"/>
    </contour>
  </outline>
</glyph>
<glyph name="u2466" format="2">
  <advance width="1100"/>
  <unicode hex="2466"/>
  <outline>
    <contour>
      <point x="319" y="725" type="line"/>
      <point x="319" y="646" type="line"/>
      <point x="682" y="646" type="line"/>
      <point x="406" y="83" type="line"/>
      <point x="502" y="83" type="line"/>
      <point x="776" y="660" type="line"/>
      <point x="776" y="725" type="line"/>
    </contour>
    <contour>
      <point x="50" y="404" type="curve" smooth="yes"/>
      <point x="50" y="127"/>
      <point x="275" y="-96"/>
      <point x="550" y="-96" type="curve" smooth="yes"/>
      <point x="826" y="-96"/>
      <point x="1050" y="129"/>
      <point x="1050" y="404" type="curve" smooth="yes"/>
      <point x="1050" y="682"/>
      <point x="824" y="904"/>
      <point x="550" y="904" type="curve" smooth="yes"/>
      <point x="278" y="904"/>
      <point x="50" y="683"/>
    </contour>
    <contour>
      <point x="100" y="404" type="curve" smooth="yes"/>
      <point x="100" y="653"/>
      <point x="301" y="854"/>
      <point x="550" y="854" type="curve" smooth="yes"/>
      <point x="799" y="854"/>
      <point x="1000" y="652"/>
      <point x="1000" y="404" type="curve" smooth="yes"/>
      <point x="1000" y="155"/>
      <point x="797" y="-46"/>
      <point x="550" y="-46" type="curve" smooth="yes"/>
      <point x="305" y="-46"/>
      <point x="100" y="152"/>
    </contour>
  </outline>
</glyph>
<glyph name="u2467" format="2">
  <advance width="1100"/>
  <unicode hex="2467"/>
  <outline>
    <contour>
      <point x="431" y="578" type="curve" smooth="yes"/>
      <point x="431" y="637"/>
      <point x="485" y="666"/>
      <point x="548" y="666" type="curve" smooth="yes"/>
      <point x="620" y="666"/>
      <point x="667" y="634"/>
      <point x="667" y="578" type="curve" smooth="yes"/>
      <point x="667" y="530"/>
      <point x="637" y="492"/>
      <point x="553" y="459" type="curve"/>
      <point x="483" y="486"/>
      <point x="431" y="519"/>
    </contour>
    <contour>
      <point x="324" y="248" type="curve" smooth="yes"/>
      <point x="324" y="139"/>
      <point x="404" y="74"/>
      <point x="552" y="74" type="curve" smooth="yes"/>
      <point x="678" y="74"/>
      <point x="775" y="135"/>
      <point x="775" y="251" type="curve" smooth="yes"/>
      <point x="775" y="334"/>
      <point x="713" y="384"/>
      <point x="625" y="424" type="curve"/>
      <point x="717" y="469"/>
      <point x="754" y="518"/>
      <point x="754" y="581" type="curve" smooth="yes"/>
      <point x="754" y="682"/>
      <point x="667" y="735"/>
      <point x="549" y="735" type="curve" smooth="yes"/>
      <point x="437" y="735"/>
      <point x="346" y="683"/>
      <point x="346" y="582" type="curve" smooth="yes"/>
      <point x="346" y="511"/>
      <point x="388" y="462"/>
      <point x="464" y="420" type="curve"/>
      <point x="374" y="382"/>
      <point x="324" y="321"/>
    </contour>
    <contour>
      <point x="410" y="248" type="curve" smooth="yes"/>
      <point x="410" y="312"/>
      <point x="454" y="350"/>
      <point x="536" y="384" type="curve"/>
      <point x="645" y="342"/>
      <point x="690" y="309"/>
      <point x="690" y="250" type="curve" smooth="yes"/>
      <point x="690" y="186"/>
      <point x="642" y="143"/>
      <point x="550" y="143" type="curve" smooth="yes"/>
      <point x="469" y="143"/>
      <point x="410" y="177"/>
    </contour>
    <contour>
      <point x="50" y="404" type="curve" smooth="yes"/>
      <point x="50" y="127"/>
      <point x="275" y="-96"/>
      <point x="550" y="-96" type="curve" smooth="yes"/>
      <point x="826" y="-96"/>
      <point x="1050" y="129"/>
      <point x="1050" y="404" type="curve" smooth="yes"/>
      <point x="1050" y="682"/>
      <point x="824" y="904"/>
      <point x="550" y="904" type="curve" smooth="yes"/>
      <point x="278" y="904"/>
      <point x="50" y="683"/>
    </contour>
    <contour>
      <point x="100" y="404" type="curve" smooth="yes"/>
      <point x="100" y="653"/>
      <point x="301" y="854"/>
      <point x="550" y="854" type="curve" smooth="yes"/>
      <point x="799" y="854"/>
      <point x="1000" y="652"/>
      <point x="1000" y="404" type="curve" smooth="yes"/>
      <point x="1000" y="155"/>
      <point x="797" y="-46"/>
      <point x="550" y="-46" type="curve" smooth="yes"/>
      <point x="305" y="-46"/>
      <point x="100" y="152"/>
    </contour>
  </outline>
</glyph>
<glyph name="u2468" format="2">
  <advance width="1100"/>
  <unicode hex="2468"/>
  <outline>
    <contour>
      <point x="415" y="518" type="curve" smooth="yes"/>
      <point x="415" y="610"/>
      <point x="461" y="662"/>
      <point x="546" y="662" type="curve" smooth="yes"/>
      <point x="631" y="662"/>
      <point x="688" y="588"/>
      <point x="688" y="504" type="curve" smooth="yes"/>
      <point x="688" y="439"/>
      <point x="619" y="391"/>
      <point x="542" y="391" type="curve" smooth="yes"/>
      <point x="456" y="391"/>
      <point x="415" y="439"/>
    </contour>
    <contour>
      <point x="328" y="517" type="curve" smooth="yes"/>
      <point x="328" y="395"/>
      <point x="403" y="322"/>
      <point x="522" y="322" type="curve" smooth="yes"/>
      <point x="592" y="322"/>
      <point x="649" y="345"/>
      <point x="683" y="396" type="curve"/>
      <point x="689" y="396" type="line"/>
      <point x="683" y="223"/>
      <point x="607" y="145"/>
      <point x="461" y="145" type="curve" smooth="yes"/>
      <point x="434" y="145"/>
      <point x="406" y="149"/>
      <point x="377" y="157" type="curve"/>
      <point x="377" y="83" type="line"/>
      <point x="396" y="77"/>
      <point x="425" y="74"/>
      <point x="463" y="74" type="curve" smooth="yes"/>
      <point x="687" y="74"/>
      <point x="777" y="216"/>
      <point x="777" y="452" type="curve" smooth="yes"/>
      <point x="777" y="612"/>
      <point x="702" y="735"/>
      <point x="546" y="735" type="curve" smooth="yes"/>
      <point x="411" y="735"/>
      <point x="328" y="651"/>
    </contour>
    <contour>
      <point x="50" y="404" type="curve" smooth="yes"/>
      <point x="50" y="127"/>
      <point x="275" y="-96"/>
      <point x="550" y="-96" type="curve" smooth="yes"/>
      <point x="826" y="-96"/>
      <point x="1050" y="129"/>
      <point x="1050" y="404" type="curve" smooth="yes"/>
      <point x="1050" y="682"/>
      <point x="824" y="904"/>
      <point x="550" y="904" type="curve" smooth="yes"/>
      <point x="278" y="904"/>
      <point x="50" y="683"/>
    </contour>
    <contour>
      <point x="100" y="404" type="curve" smooth="yes"/>
      <point x="100" y="653"/>
      <point x="301" y="854"/>
      <point x="550" y="854" type="curve" smooth="yes"/>
      <point x="799" y="854"/>
      <point x="1000" y="652"/>
      <point x="1000" y="404" type="curve" smooth="yes"/>
      <point x="1000" y="155"/>
      <point x="797" y="-46"/>
      <point x="550" y="-46" type="curve" smooth="yes"/>
      <point x="305" y="-46"/>
      <point x="100" y="152"/>
    </contour>
  </outline>
</glyph>
<glyph name="u2469" format="2">
  <advance width="1100"/>
  <unicode hex="2469"/>
  <outline>
    <contour>
      <point x="189" y="562" type="line"/>
      <point x="231" y="508" type="line"/>
      <point x="287" y="556"/>
      <point x="317" y="583"/>
      <point x="321" y="587" type="curve" smooth="yes"/>
      <point x="326" y="592"/>
      <point x="330" y="596"/>
      <point x="334" y="601" type="curve"/>
      <point x="332" y="577"/>
      <point x="331" y="542"/>
      <point x="331" y="498" type="curve" smooth="yes"/>
      <point x="331" y="119" type="line"/>
      <point x="414" y="119" type="line"/>
      <point x="414" y="690" type="line"/>
      <point x="345" y="690" type="line"/>
    </contour>
    <contour>
      <point x="506" y="405" type="curve" smooth="yes"/>
      <point x="506" y="244"/>
      <point x="550" y="111"/>
      <point x="687" y="111" type="curve" smooth="yes"/>
      <point x="812" y="111"/>
      <point x="869" y="208"/>
      <point x="869" y="405" type="curve" smooth="yes"/>
      <point x="869" y="561"/>
      <point x="827" y="699"/>
      <point x="687" y="699" type="curve" smooth="yes"/>
      <point x="544" y="699"/>
      <point x="506" y="571"/>
    </contour>
    <contour>
      <point x="590" y="405" type="curve" smooth="yes"/>
      <point x="590" y="554"/>
      <point x="615" y="628"/>
      <point x="687" y="628" type="curve" smooth="yes"/>
      <point x="759" y="628"/>
      <point x="784" y="554"/>
      <point x="784" y="405" type="curve" smooth="yes"/>
      <point x="784" y="254"/>
      <point x="759" y="182"/>
      <point x="687" y="182" type="curve" smooth="yes"/>
      <point x="615" y="182"/>
      <point x="590" y="255"/>
    </contour>
    <contour>
      <point x="50" y="404" type="curve" smooth="yes"/>
      <point x="50" y="127"/>
      <point x="275" y="-96"/>
      <point x="550" y="-96" type="curve" smooth="yes"/>
      <point x="826" y="-96"/>
      <point x="1050" y="129"/>
      <point x="1050" y="404" type="curve" smooth="yes"/>
      <point x="1050" y="682"/>
      <point x="824" y="904"/>
      <point x="550" y="904" type="curve" smooth="yes"/>
      <point x="278" y="904"/>
      <point x="50" y="683"/>
    </contour>
    <contour>
      <point x="100" y="404" type="curve" smooth="yes"/>
      <point x="100" y="653"/>
      <point x="301" y="854"/>
      <point x="550" y="854" type="curve" smooth="yes"/>
      <point x="799" y="854"/>
      <point x="1000" y="652"/>
      <point x="1000" y="404" type="curve" smooth="yes"/>
      <point x="1000" y="155"/>
      <point x="797" y="-46"/>
      <point x="550" y="-46" type="curve" smooth="yes"/>
      <point x="305" y="-46"/>
      <point x="100" y="152"/>
    </contour>
  </outline>
</glyph>
<glyph name="u246A" format="2">
  <advance width="1100"/>
  <unicode hex="246A"/>
  <outline>
    <contour>
      <point x="219" y="562" type="line"/>
      <point x="261" y="508" type="line"/>
      <point x="318" y="557"/>
      <point x="348" y="584"/>
      <point x="352" y="588" type="curve" smooth="yes"/>
      <point x="356" y="592"/>
      <point x="361" y="597"/>
      <point x="364" y="601" type="curve"/>
      <point x="362" y="577"/>
      <point x="361" y="542"/>
      <point x="361" y="498" type="curve" smooth="yes"/>
      <point x="361" y="119" type="line"/>
      <point x="444" y="119" type="line"/>
      <point x="444" y="690" type="line"/>
      <point x="375" y="690" type="line"/>
    </contour>
    <contour>
      <point x="50" y="404" type="curve" smooth="yes"/>
      <point x="50" y="127"/>
      <point x="275" y="-96"/>
      <point x="550" y="-96" type="curve" smooth="yes"/>
      <point x="826" y="-96"/>
      <point x="1050" y="129"/>
      <point x="1050" y="404" type="curve" smooth="yes"/>
      <point x="1050" y="682"/>
      <point x="824" y="904"/>
      <point x="550" y="904" type="curve" smooth="yes"/>
      <point x="278" y="904"/>
      <point x="50" y="683"/>
    </contour>
    <contour>
      <point x="100" y="404" type="curve" smooth="yes"/>
      <point x="100" y="653"/>
      <point x="301" y="854"/>
      <point x="550" y="854" type="curve" smooth="yes"/>
      <point x="799" y="854"/>
      <point x="1000" y="652"/>
      <point x="1000" y="404" type="curve" smooth="yes"/>
      <point x="1000" y="155"/>
      <point x="797" y="-46"/>
      <point x="550" y="-46" type="curve" smooth="yes"/>
      <point x="305" y="-46"/>
      <point x="100" y="152"/>
    </contour>
    <contour>
      <point x="559" y="562" type="line"/>
      <point x="601" y="508" type="line"/>
      <point x="658" y="557"/>
      <point x="688" y="584"/>
      <point x="692" y="588" type="curve" smooth="yes"/>
      <point x="696" y="592"/>
      <point x="701" y="597"/>
      <point x="704" y="601" type="curve"/>
      <point x="702" y="577"/>
      <point x="701" y="542"/>
      <point x="701" y="498" type="curve" smooth="yes"/>
      <point x="701" y="119" type="line"/>
      <point x="784" y="119" type="line"/>
      <point x="784" y="690" type="line"/>
      <point x="715" y="690" type="line"/>
    </contour>
  </outline>
</glyph>
<glyph name="u246B" format="2">
  <advance width="1100"/>
  <unicode hex="246B"/>
  <outline>
    <contour>
      <point x="189" y="562" type="line"/>
      <point x="231" y="508" type="line"/>
      <point x="287" y="556"/>
      <point x="317" y="583"/>
      <point x="321" y="587" type="curve" smooth="yes"/>
      <point x="326" y="592"/>
      <point x="330" y="596"/>
      <point x="334" y="601" type="curve"/>
      <point x="332" y="577"/>
      <point x="331" y="542"/>
      <point x="331" y="498" type="curve" smooth="yes"/>
      <point x="331" y="119" type="line"/>
      <point x="414" y="119" type="line"/>
      <point x="414" y="690" type="line"/>
      <point x="345" y="690" type="line"/>
    </contour>
    <contour>
      <point x="503" y="185" type="line"/>
      <point x="503" y="119" type="line"/>
      <point x="865" y="119" type="line"/>
      <point x="865" y="194" type="line"/>
      <point x="609" y="194" type="line"/>
      <point x="609" y="198" type="line"/>
      <point x="705" y="301" type="line" smooth="yes"/>
      <point x="792" y="395"/>
      <point x="846" y="459"/>
      <point x="846" y="545" type="curve" smooth="yes"/>
      <point x="846" y="643"/>
      <point x="779" y="699"/>
      <point x="681" y="699" type="curve" smooth="yes"/>
      <point x="614" y="699"/>
      <point x="565" y="679"/>
      <point x="506" y="628" type="curve"/>
      <point x="552" y="572" type="line"/>
      <point x="593" y="607"/>
      <point x="629" y="627"/>
      <point x="678" y="627" type="curve" smooth="yes"/>
      <point x="727" y="627"/>
      <point x="761" y="597"/>
      <point x="761" y="538" type="curve" smooth="yes"/>
      <point x="761" y="467"/>
      <point x="719" y="419"/>
      <point x="641" y="334" type="curve"/>
    </contour>
    <contour>
      <point x="50" y="404" type="curve" smooth="yes"/>
      <point x="50" y="127"/>
      <point x="275" y="-96"/>
      <point x="550" y="-96" type="curve" smooth="yes"/>
      <point x="826" y="-96"/>
      <point x="1050" y="129"/>
      <point x="1050" y="404" type="curve" smooth="yes"/>
      <point x="1050" y="682"/>
      <point x="824" y="904"/>
      <point x="550" y="904" type="curve" smooth="yes"/>
      <point x="278" y="904"/>
      <point x="50" y="683"/>
    </contour>
    <contour>
      <point x="100" y="404" type="curve" smooth="yes"/>
      <point x="100" y="653"/>
      <point x="301" y="854"/>
      <point x="550" y="854" type="curve" smooth="yes"/>
      <point x="799" y="854"/>
      <point x="1000" y="652"/>
      <point x="1000" y="404" type="curve" smooth="yes"/>
      <point x="1000" y="155"/>
      <point x="797" y="-46"/>
      <point x="550" y="-46" type="curve" smooth="yes"/>
      <point x="305" y="-46"/>
      <point x="100" y="152"/>
    </contour>
  </outline>
</glyph>
<glyph name="u246C" format="2">
  <advance width="1100"/>
  <unicode hex="246C"/>
  <outline>
    <contour>
      <point x="179" y="562" type="line"/>
      <point x="221" y="508" type="line"/>
      <point x="277" y="556"/>
      <point x="307" y="583"/>
      <point x="312" y="588" type="curve" smooth="yes"/>
      <point x="324" y="601" type="line"/>
      <point x="322" y="579"/>
      <point x="321" y="544"/>
      <point x="321" y="498" type="curve" smooth="yes"/>
      <point x="321" y="119" type="line"/>
      <point x="404" y="119" type="line"/>
      <point x="404" y="690" type="line"/>
      <point x="335" y="690" type="line"/>
    </contour>
    <contour>
      <point x="492" y="219" type="curve"/>
      <point x="492" y="142" type="line"/>
      <point x="533" y="121"/>
      <point x="583" y="111"/>
      <point x="642" y="111" type="curve" smooth="yes"/>
      <point x="761" y="111"/>
      <point x="851" y="164"/>
      <point x="851" y="283" type="curve" smooth="yes"/>
      <point x="851" y="359"/>
      <point x="809" y="408"/>
      <point x="723" y="418" type="curve"/>
      <point x="723" y="421" type="line"/>
      <point x="790" y="436"/>
      <point x="835" y="481"/>
      <point x="835" y="559" type="curve" smooth="yes"/>
      <point x="835" y="650"/>
      <point x="770" y="699"/>
      <point x="664" y="699" type="curve" smooth="yes"/>
      <point x="599" y="699"/>
      <point x="542" y="680"/>
      <point x="494" y="641" type="curve"/>
      <point x="535" y="583" type="line"/>
      <point x="570" y="608"/>
      <point x="606" y="629"/>
      <point x="662" y="629" type="curve" smooth="yes"/>
      <point x="721" y="629"/>
      <point x="751" y="599"/>
      <point x="751" y="548" type="curve" smooth="yes"/>
      <point x="751" y="482"/>
      <point x="708" y="449"/>
      <point x="622" y="449" type="curve" smooth="yes"/>
      <point x="574" y="449" type="line"/>
      <point x="574" y="380" type="line"/>
      <point x="621" y="380" type="line" smooth="yes"/>
      <point x="718" y="380"/>
      <point x="763" y="350"/>
      <point x="763" y="286" type="curve" smooth="yes"/>
      <point x="763" y="220"/>
      <point x="729" y="181"/>
      <point x="638" y="181" type="curve" smooth="yes"/>
      <point x="591" y="181"/>
      <point x="537" y="194"/>
    </contour>
    <contour>
      <point x="50" y="404" type="curve" smooth="yes"/>
      <point x="50" y="127"/>
      <point x="275" y="-96"/>
      <point x="550" y="-96" type="curve" smooth="yes"/>
      <point x="826" y="-96"/>
      <point x="1050" y="129"/>
      <point x="1050" y="404" type="curve" smooth="yes"/>
      <point x="1050" y="682"/>
      <point x="824" y="904"/>
      <point x="550" y="904" type="curve" smooth="yes"/>
      <point x="278" y="904"/>
      <point x="50" y="683"/>
    </contour>
    <contour>
      <point x="100" y="404" type="curve" smooth="yes"/>
      <point x="100" y="653"/>
      <point x="301" y="854"/>
      <point x="550" y="854" type="curve" smooth="yes"/>
      <point x="799" y="854"/>
      <point x="1000" y="652"/>
      <point x="1000" y="404" type="curve" smooth="yes"/>
      <point x="1000" y="155"/>
      <point x="797" y="-46"/>
      <point x="550" y="-46" type="curve" smooth="yes"/>
      <point x="305" y="-46"/>
      <point x="100" y="152"/>
    </contour>
  </outline>
</glyph>
<glyph name="u246D" format="2">
  <advance width="1100"/>
  <unicode hex="246D"/>
  <outline>
    <contour>
      <point x="179" y="562" type="line"/>
      <point x="221" y="508" type="line"/>
      <point x="277" y="556"/>
      <point x="307" y="583"/>
      <point x="312" y="588" type="curve" smooth="yes"/>
      <point x="324" y="601" type="line"/>
      <point x="322" y="579"/>
      <point x="321" y="544"/>
      <point x="321" y="498" type="curve" smooth="yes"/>
      <point x="321" y="119" type="line"/>
      <point x="404" y="119" type="line"/>
      <point x="404" y="690" type="line"/>
      <point x="335" y="690" type="line"/>
    </contour>
    <contour>
      <point x="535" y="317" type="line"/>
      <point x="672" y="534" type="line" smooth="yes"/>
      <point x="683" y="552"/>
      <point x="693" y="573"/>
      <point x="704" y="597" type="curve"/>
      <point x="707" y="597" type="line"/>
      <point x="705" y="566"/>
      <point x="703" y="524"/>
      <point x="703" y="471" type="curve" smooth="yes"/>
      <point x="703" y="317" type="line"/>
    </contour>
    <contour>
      <point x="457" y="312" type="line"/>
      <point x="457" y="245" type="line"/>
      <point x="703" y="245" type="line"/>
      <point x="703" y="119" type="line"/>
      <point x="785" y="119" type="line"/>
      <point x="785" y="245" type="line"/>
      <point x="857" y="245" type="line"/>
      <point x="857" y="317" type="line"/>
      <point x="785" y="317" type="line"/>
      <point x="785" y="690" type="line"/>
      <point x="702" y="690" type="line"/>
    </contour>
    <contour>
      <point x="50" y="404" type="curve" smooth="yes"/>
      <point x="50" y="127"/>
      <point x="275" y="-96"/>
      <point x="550" y="-96" type="curve" smooth="yes"/>
      <point x="826" y="-96"/>
      <point x="1050" y="129"/>
      <point x="1050" y="404" type="curve" smooth="yes"/>
      <point x="1050" y="682"/>
      <point x="824" y="904"/>
      <point x="550" y="904" type="curve" smooth="yes"/>
      <point x="278" y="904"/>
      <point x="50" y="683"/>
    </contour>
    <contour>
      <point x="100" y="404" type="curve" smooth="yes"/>
      <point x="100" y="653"/>
      <point x="301" y="854"/>
      <point x="550" y="854" type="curve" smooth="yes"/>
      <point x="799" y="854"/>
      <point x="1000" y="652"/>
      <point x="1000" y="404" type="curve" smooth="yes"/>
      <point x="1000" y="155"/>
      <point x="797" y="-46"/>
      <point x="550" y="-46" type="curve" smooth="yes"/>
      <point x="305" y="-46"/>
      <point x="100" y="152"/>
    </contour>
  </outline>
</glyph>
<glyph name="u246E" format="2">
  <advance width="1100"/>
  <unicode hex="246E"/>
  <outline>
    <contour>
      <point x="176" y="562" type="line"/>
      <point x="218" y="508" type="line"/>
      <point x="274" y="556"/>
      <point x="304" y="583"/>
      <point x="308" y="587" type="curve" smooth="yes"/>
      <point x="313" y="592"/>
      <point x="317" y="596"/>
      <point x="321" y="601" type="curve"/>
      <point x="319" y="577"/>
      <point x="318" y="542"/>
      <point x="318" y="498" type="curve" smooth="yes"/>
      <point x="318" y="119" type="line"/>
      <point x="401" y="119" type="line"/>
      <point x="401" y="690" type="line"/>
      <point x="332" y="690" type="line"/>
    </contour>
    <contour>
      <point x="504" y="220" type="curve"/>
      <point x="504" y="142" type="line"/>
      <point x="537" y="121"/>
      <point x="584" y="111"/>
      <point x="645" y="111" type="curve" smooth="yes"/>
      <point x="778" y="111"/>
      <point x="850" y="183"/>
      <point x="850" y="304" type="curve" smooth="yes"/>
      <point x="850" y="411"/>
      <point x="781" y="474"/>
      <point x="674" y="474" type="curve" smooth="yes"/>
      <point x="639" y="474"/>
      <point x="613" y="469"/>
      <point x="597" y="465" type="curve"/>
      <point x="609" y="615" type="line"/>
      <point x="813" y="615" type="line"/>
      <point x="813" y="690" type="line"/>
      <point x="536" y="690" type="line"/>
      <point x="516" y="414" type="line"/>
      <point x="554" y="391" type="line"/>
      <point x="579" y="398"/>
      <point x="615" y="403"/>
      <point x="641" y="403" type="curve" smooth="yes"/>
      <point x="724" y="403"/>
      <point x="765" y="368"/>
      <point x="765" y="296" type="curve" smooth="yes"/>
      <point x="765" y="218"/>
      <point x="719" y="182"/>
      <point x="644" y="182" type="curve" smooth="yes"/>
      <point x="600" y="182"/>
      <point x="541" y="198"/>
    </contour>
    <contour>
      <point x="50" y="404" type="curve" smooth="yes"/>
      <point x="50" y="127"/>
      <point x="275" y="-96"/>
      <point x="550" y="-96" type="curve" smooth="yes"/>
      <point x="826" y="-96"/>
      <point x="1050" y="129"/>
      <point x="1050" y="404" type="curve" smooth="yes"/>
      <point x="1050" y="682"/>
      <point x="824" y="904"/>
      <point x="550" y="904" type="curve" smooth="yes"/>
      <point x="278" y="904"/>
      <point x="50" y="683"/>
    </contour>
    <contour>
      <point x="100" y="404" type="curve" smooth="yes"/>
      <point x="100" y="653"/>
      <point x="301" y="854"/>
      <point x="550" y="854" type="curve" smooth="yes"/>
      <point x="799" y="854"/>
      <point x="1000" y="652"/>
      <point x="1000" y="404" type="curve" smooth="yes"/>
      <point x="1000" y="155"/>
      <point x="797" y="-46"/>
      <point x="550" y="-46" type="curve" smooth="yes"/>
      <point x="305" y="-46"/>
      <point x="100" y="152"/>
    </contour>
  </outline>
</glyph>
<glyph name="u246F" format="2">
  <advance width="1100"/>
  <unicode hex="246F"/>
  <outline>
    <contour>
      <point x="180" y="562" type="line"/>
      <point x="222" y="508" type="line"/>
      <point x="278" y="556"/>
      <point x="308" y="583"/>
      <point x="313" y="588" type="curve" smooth="yes"/>
      <point x="325" y="601" type="line"/>
      <point x="323" y="579"/>
      <point x="322" y="544"/>
      <point x="322" y="498" type="curve" smooth="yes"/>
      <point x="322" y="119" type="line"/>
      <point x="405" y="119" type="line"/>
      <point x="405" y="690" type="line"/>
      <point x="336" y="690" type="line"/>
    </contour>
    <contour>
      <point x="491" y="363" type="curve" smooth="yes"/>
      <point x="491" y="222"/>
      <point x="551" y="111"/>
      <point x="678" y="111" type="curve" smooth="yes"/>
      <point x="788" y="111"/>
      <point x="853" y="185"/>
      <point x="853" y="305" type="curve" smooth="yes"/>
      <point x="853" y="412"/>
      <point x="798" y="481"/>
      <point x="699" y="481" type="curve" smooth="yes"/>
      <point x="644" y="481"/>
      <point x="603" y="458"/>
      <point x="576" y="414" type="curve"/>
      <point x="572" y="414" type="line"/>
      <point x="579" y="546"/>
      <point x="619" y="630"/>
      <point x="749" y="630" type="curve" smooth="yes"/>
      <point x="775" y="630"/>
      <point x="797" y="627"/>
      <point x="814" y="621" type="curve"/>
      <point x="814" y="692" type="line"/>
      <point x="798" y="697"/>
      <point x="775" y="699"/>
      <point x="745" y="699" type="curve" smooth="yes"/>
      <point x="560" y="699"/>
      <point x="491" y="566"/>
    </contour>
    <contour>
      <point x="576" y="317" type="curve" smooth="yes"/>
      <point x="576" y="371"/>
      <point x="624" y="414"/>
      <point x="679" y="414" type="curve" smooth="yes"/>
      <point x="742" y="414"/>
      <point x="771" y="372"/>
      <point x="771" y="304" type="curve" smooth="yes"/>
      <point x="771" y="220"/>
      <point x="733" y="181"/>
      <point x="677" y="181" type="curve" smooth="yes"/>
      <point x="612" y="181"/>
      <point x="576" y="248"/>
    </contour>
    <contour>
      <point x="50" y="404" type="curve" smooth="yes"/>
      <point x="50" y="127"/>
      <point x="275" y="-96"/>
      <point x="550" y="-96" type="curve" smooth="yes"/>
      <point x="826" y="-96"/>
      <point x="1050" y="129"/>
      <point x="1050" y="404" type="curve" smooth="yes"/>
      <point x="1050" y="682"/>
      <point x="824" y="904"/>
      <point x="550" y="904" type="curve" smooth="yes"/>
      <point x="278" y="904"/>
      <point x="50" y="683"/>
    </contour>
    <contour>
      <point x="100" y="404" type="curve" smooth="yes"/>
      <point x="100" y="653"/>
      <point x="301" y="854"/>
      <point x="550" y="854" type="curve" smooth="yes"/>
      <point x="799" y="854"/>
      <point x="1000" y="652"/>
      <point x="1000" y="404" type="curve" smooth="yes"/>
      <point x="1000" y="155"/>
      <point x="797" y="-46"/>
      <point x="550" y="-46" type="curve" smooth="yes"/>
      <point x="305" y="-46"/>
      <point x="100" y="152"/>
    </contour>
  </outline>
</glyph>
<glyph name="u2470" format="2">
  <advance width="1100"/>
  <unicode hex="2470"/>
  <outline>
    <contour>
      <point x="189" y="542" type="line"/>
      <point x="231" y="488" type="line"/>
      <point x="287" y="536"/>
      <point x="317" y="563"/>
      <point x="321" y="567" type="curve" smooth="yes"/>
      <point x="326" y="572"/>
      <point x="330" y="576"/>
      <point x="334" y="581" type="curve"/>
      <point x="332" y="557"/>
      <point x="331" y="522"/>
      <point x="331" y="478" type="curve" smooth="yes"/>
      <point x="331" y="99" type="line"/>
      <point x="414" y="99" type="line"/>
      <point x="414" y="670" type="line"/>
      <point x="345" y="670" type="line"/>
    </contour>
    <contour>
      <point x="483" y="670" type="line"/>
      <point x="483" y="595" type="line"/>
      <point x="762" y="595" type="line"/>
      <point x="550" y="99" type="line"/>
      <point x="640" y="99" type="line"/>
      <point x="852" y="609" type="line"/>
      <point x="852" y="670" type="line"/>
    </contour>
    <contour>
      <point x="50" y="404" type="curve" smooth="yes"/>
      <point x="50" y="127"/>
      <point x="275" y="-96"/>
      <point x="550" y="-96" type="curve" smooth="yes"/>
      <point x="826" y="-96"/>
      <point x="1050" y="129"/>
      <point x="1050" y="404" type="curve" smooth="yes"/>
      <point x="1050" y="682"/>
      <point x="824" y="904"/>
      <point x="550" y="904" type="curve" smooth="yes"/>
      <point x="278" y="904"/>
      <point x="50" y="683"/>
    </contour>
    <contour>
      <point x="100" y="404" type="curve" smooth="yes"/>
      <point x="100" y="653"/>
      <point x="301" y="854"/>
      <point x="550" y="854" type="curve" smooth="yes"/>
      <point x="799" y="854"/>
      <point x="1000" y="652"/>
      <point x="1000" y="404" type="curve" smooth="yes"/>
      <point x="1000" y="155"/>
      <point x="797" y="-46"/>
      <point x="550" y="-46" type="curve" smooth="yes"/>
      <point x="305" y="-46"/>
      <point x="100" y="152"/>
    </contour>
  </outline>
</glyph>
<glyph name="u2471" format="2">
  <advance width="1100"/>
  <unicode hex="2471"/>
  <outline>
    <contour>
      <point x="179" y="562" type="line"/>
      <point x="221" y="508" type="line"/>
      <point x="277" y="556"/>
      <point x="307" y="583"/>
      <point x="312" y="588" type="curve" smooth="yes"/>
      <point x="324" y="601" type="line"/>
      <point x="322" y="579"/>
      <point x="321" y="544"/>
      <point x="321" y="498" type="curve" smooth="yes"/>
      <point x="321" y="119" type="line"/>
      <point x="404" y="119" type="line"/>
      <point x="404" y="690" type="line"/>
      <point x="335" y="690" type="line"/>
    </contour>
    <contour>
      <point x="587" y="558" type="curve" smooth="yes"/>
      <point x="587" y="606"/>
      <point x="621" y="633"/>
      <point x="670" y="633" type="curve" smooth="yes"/>
      <point x="721" y="633"/>
      <point x="754" y="606"/>
      <point x="754" y="558" type="curve" smooth="yes"/>
      <point x="754" y="511"/>
      <point x="728" y="483"/>
      <point x="672" y="456" type="curve"/>
      <point x="618" y="483"/>
      <point x="587" y="509"/>
    </contour>
    <contour>
      <point x="489" y="264" type="curve" smooth="yes"/>
      <point x="489" y="168"/>
      <point x="553" y="111"/>
      <point x="672" y="111" type="curve" smooth="yes"/>
      <point x="777" y="111"/>
      <point x="852" y="168"/>
      <point x="852" y="267" type="curve" smooth="yes"/>
      <point x="852" y="331"/>
      <point x="815" y="379"/>
      <point x="735" y="422" type="curve"/>
      <point x="798" y="456"/>
      <point x="835" y="499"/>
      <point x="835" y="562" type="curve" smooth="yes"/>
      <point x="835" y="648"/>
      <point x="770" y="699"/>
      <point x="670" y="699" type="curve" smooth="yes"/>
      <point x="578" y="699"/>
      <point x="506" y="650"/>
      <point x="506" y="563" type="curve" smooth="yes"/>
      <point x="506" y="501"/>
      <point x="535" y="458"/>
      <point x="597" y="418" type="curve"/>
      <point x="525" y="382"/>
      <point x="489" y="331"/>
    </contour>
    <contour>
      <point x="569" y="266" type="curve" smooth="yes"/>
      <point x="569" y="321"/>
      <point x="603" y="355"/>
      <point x="661" y="383" type="curve"/>
      <point x="736" y="349"/>
      <point x="772" y="319"/>
      <point x="772" y="267" type="curve" smooth="yes"/>
      <point x="772" y="214"/>
      <point x="738" y="177"/>
      <point x="670" y="177" type="curve" smooth="yes"/>
      <point x="602" y="177"/>
      <point x="569" y="215"/>
    </contour>
    <contour>
      <point x="50" y="404" type="curve" smooth="yes"/>
      <point x="50" y="127"/>
      <point x="275" y="-96"/>
      <point x="550" y="-96" type="curve" smooth="yes"/>
      <point x="826" y="-96"/>
      <point x="1050" y="129"/>
      <point x="1050" y="404" type="curve" smooth="yes"/>
      <point x="1050" y="682"/>
      <point x="824" y="904"/>
      <point x="550" y="904" type="curve" smooth="yes"/>
      <point x="278" y="904"/>
      <point x="50" y="683"/>
    </contour>
    <contour>
      <point x="100" y="404" type="curve" smooth="yes"/>
      <point x="100" y="653"/>
      <point x="301" y="854"/>
      <point x="550" y="854" type="curve" smooth="yes"/>
      <point x="799" y="854"/>
      <point x="1000" y="652"/>
      <point x="1000" y="404" type="curve" smooth="yes"/>
      <point x="1000" y="155"/>
      <point x="797" y="-46"/>
      <point x="550" y="-46" type="curve" smooth="yes"/>
      <point x="305" y="-46"/>
      <point x="100" y="152"/>
    </contour>
  </outline>
</glyph>
<glyph name="u2472" format="2">
  <advance width="1100"/>
  <unicode hex="2472"/>
  <outline>
    <contour>
      <point x="189" y="562" type="line"/>
      <point x="231" y="508" type="line"/>
      <point x="287" y="556"/>
      <point x="317" y="583"/>
      <point x="321" y="587" type="curve" smooth="yes"/>
      <point x="326" y="592"/>
      <point x="330" y="596"/>
      <point x="334" y="601" type="curve"/>
      <point x="332" y="577"/>
      <point x="331" y="542"/>
      <point x="331" y="498" type="curve" smooth="yes"/>
      <point x="331" y="119" type="line"/>
      <point x="414" y="119" type="line"/>
      <point x="414" y="690" type="line"/>
      <point x="345" y="690" type="line"/>
    </contour>
    <contour>
      <point x="580" y="505" type="curve" smooth="yes"/>
      <point x="580" y="589"/>
      <point x="618" y="629"/>
      <point x="674" y="629" type="curve" smooth="yes"/>
      <point x="740" y="629"/>
      <point x="776" y="564"/>
      <point x="776" y="493" type="curve" smooth="yes"/>
      <point x="776" y="438"/>
      <point x="728" y="396"/>
      <point x="672" y="396" type="curve" smooth="yes"/>
      <point x="609" y="396"/>
      <point x="580" y="437"/>
    </contour>
    <contour>
      <point x="498" y="504" type="curve" smooth="yes"/>
      <point x="498" y="398"/>
      <point x="552" y="329"/>
      <point x="651" y="329" type="curve" smooth="yes"/>
      <point x="707" y="329"/>
      <point x="750" y="352"/>
      <point x="775" y="396" type="curve"/>
      <point x="779" y="396" type="line"/>
      <point x="772" y="263"/>
      <point x="730" y="179"/>
      <point x="602" y="179" type="curve" smooth="yes"/>
      <point x="576" y="179"/>
      <point x="554" y="183"/>
      <point x="536" y="189" type="curve"/>
      <point x="536" y="118" type="line"/>
      <point x="552" y="114"/>
      <point x="575" y="111"/>
      <point x="606" y="111" type="curve" smooth="yes"/>
      <point x="793" y="111"/>
      <point x="860" y="243"/>
      <point x="860" y="447" type="curve" smooth="yes"/>
      <point x="860" y="606"/>
      <point x="785" y="699"/>
      <point x="673" y="699" type="curve" smooth="yes"/>
      <point x="563" y="699"/>
      <point x="498" y="623"/>
    </contour>
    <contour>
      <point x="50" y="404" type="curve" smooth="yes"/>
      <point x="50" y="127"/>
      <point x="275" y="-96"/>
      <point x="550" y="-96" type="curve" smooth="yes"/>
      <point x="826" y="-96"/>
      <point x="1050" y="129"/>
      <point x="1050" y="404" type="curve" smooth="yes"/>
      <point x="1050" y="682"/>
      <point x="824" y="904"/>
      <point x="550" y="904" type="curve" smooth="yes"/>
      <point x="278" y="904"/>
      <point x="50" y="683"/>
    </contour>
    <contour>
      <point x="100" y="404" type="curve" smooth="yes"/>
      <point x="100" y="653"/>
      <point x="301" y="854"/>
      <point x="550" y="854" type="curve" smooth="yes"/>
      <point x="799" y="854"/>
      <point x="1000" y="652"/>
      <point x="1000" y="404" type="curve" smooth="yes"/>
      <point x="1000" y="155"/>
      <point x="797" y="-46"/>
      <point x="550" y="-46" type="curve" smooth="yes"/>
      <point x="305" y="-46"/>
      <point x="100" y="152"/>
    </contour>
  </outline>
</glyph>
<glyph name="u2473" format="2">
  <advance width="1100"/>
  <unicode hex="2473"/>
  <outline>
    <contour>
      <point x="215" y="196" type="line"/>
      <point x="215" y="129" type="line"/>
      <point x="534" y="129" type="line"/>
      <point x="534" y="205" type="line"/>
      <point x="321" y="205" type="line"/>
      <point x="321" y="209" type="line"/>
      <point x="398" y="308"/>
      <point x="444" y="368"/>
      <point x="458" y="389" type="curve" smooth="yes"/>
      <point x="493" y="441"/>
      <point x="519" y="494"/>
      <point x="519" y="556" type="curve" smooth="yes"/>
      <point x="519" y="648"/>
      <point x="464" y="709"/>
      <point x="374" y="709" type="curve" smooth="yes"/>
      <point x="313" y="709"/>
      <point x="266" y="689"/>
      <point x="216" y="637" type="curve"/>
      <point x="262" y="581" type="line"/>
      <point x="298" y="616"/>
      <point x="330" y="636"/>
      <point x="369" y="636" type="curve" smooth="yes"/>
      <point x="408" y="636"/>
      <point x="434" y="606"/>
      <point x="434" y="549" type="curve" smooth="yes"/>
      <point x="434" y="476"/>
      <point x="397" y="424"/>
      <point x="332" y="343" type="curve" smooth="yes"/>
    </contour>
    <contour>
      <point x="562" y="415" type="curve" smooth="yes"/>
      <point x="562" y="261"/>
      <point x="599" y="121"/>
      <point x="732" y="121" type="curve" smooth="yes"/>
      <point x="851" y="121"/>
      <point x="903" y="222"/>
      <point x="903" y="415" type="curve" smooth="yes"/>
      <point x="903" y="572"/>
      <point x="864" y="709"/>
      <point x="732" y="709" type="curve" smooth="yes"/>
      <point x="596" y="709"/>
      <point x="562" y="578"/>
    </contour>
    <contour>
      <point x="646" y="415" type="curve" smooth="yes"/>
      <point x="646" y="565"/>
      <point x="668" y="638"/>
      <point x="732" y="638" type="curve" smooth="yes"/>
      <point x="796" y="638"/>
      <point x="818" y="565"/>
      <point x="818" y="415" type="curve" smooth="yes"/>
      <point x="818" y="266"/>
      <point x="796" y="192"/>
      <point x="732" y="192" type="curve" smooth="yes"/>
      <point x="668" y="192"/>
      <point x="646" y="266"/>
    </contour>
    <contour>
      <point x="50" y="404" type="curve" smooth="yes"/>
      <point x="50" y="127"/>
      <point x="275" y="-96"/>
      <point x="550" y="-96" type="curve" smooth="yes"/>
      <point x="826" y="-96"/>
      <point x="1050" y="129"/>
      <point x="1050" y="404" type="curve" smooth="yes"/>
      <point x="1050" y="682"/>
      <point x="824" y="904"/>
      <point x="550" y="904" type="curve" smooth="yes"/>
      <point x="278" y="904"/>
      <point x="50" y="683"/>
    </contour>
    <contour>
      <point x="100" y="404" type="curve" smooth="yes"/>
      <point x="100" y="653"/>
      <point x="301" y="854"/>
      <point x="550" y="854" type="curve" smooth="yes"/>
      <point x="799" y="854"/>
      <point x="1000" y="652"/>
      <point x="1000" y="404" type="curve" smooth="yes"/>
      <point x="1000" y="155"/>
      <point x="797" y="-46"/>
      <point x="550" y="-46" type="curve" smooth="yes"/>
      <point x="305" y="-46"/>
      <point x="100" y="152"/>
    </contour>
  </outline>
</glyph>
<glyph name="u3001" format="2">
  <advance width="458"/>
  <unicode hex="3001"/>
  <outline>
    <contour>
      <point x="293" y="297" type="line"/>
      <point x="342" y="351"/>
      <point x="397" y="399"/>
      <point x="458" y="443" type="curve"/>
      <point x="397" y="512" type="line"/>
      <point x="339" y="455"/>
      <point x="291" y="396"/>
      <point x="250" y="336" type="curve"/>
    </contour>
  </outline>
</glyph>
<glyph name="u3002" format="2">
  <advance width="488"/>
  <unicode hex="3002"/>
  <outline>
    <contour>
      <point x="369" y="285" type="curve" smooth="yes"/>
      <point x="436" y="285"/>
      <point x="488" y="337"/>
      <point x="488" y="404" type="curve" smooth="yes"/>
      <point x="488" y="472"/>
      <point x="434" y="523"/>
      <point x="369" y="523" type="curve" smooth="yes"/>
      <point x="302" y="523"/>
      <point x="250" y="469"/>
      <point x="250" y="404" type="curve" smooth="yes"/>
      <point x="250" y="337"/>
      <point x="304" y="285"/>
    </contour>
    <contour>
      <point x="369" y="335" type="curve" smooth="yes"/>
      <point x="333" y="335"/>
      <point x="301" y="361"/>
      <point x="301" y="404" type="curve" smooth="yes"/>
      <point x="301" y="441"/>
      <point x="326" y="472"/>
      <point x="369" y="472" type="curve" smooth="yes"/>
      <point x="409" y="472"/>
      <point x="438" y="442"/>
      <point x="438" y="404" type="curve" smooth="yes"/>
      <point x="438" y="365"/>
      <point x="408" y="335"/>
    </contour>
  </outline>
</glyph>
<glyph name="u300B" format="2">
  <advance width="610"/>
  <unicode hex="300B"/>
  <outline>
    <contour>
      <point x="271" y="27" type="line"/>
      <point x="350" y="27" type="line"/>
      <point x="550" y="404" type="line"/>
      <point x="350" y="781" type="line"/>
      <point x="271" y="781" type="line"/>
      <point x="471" y="404" type="line"/>
    </contour>
    <contour>
      <point x="96" y="27" type="line"/>
      <point x="175" y="27" type="line"/>
      <point x="375" y="404" type="line"/>
      <point x="175" y="781" type="line"/>
      <point x="96" y="781" type="line"/>
      <point x="296" y="404" type="line"/>
    </contour>
  </outline>
</glyph>
<glyph name="u300D" format="2">
  <advance width="418"/>
  <unicode hex="300D"/>
  <outline>
    <contour>
      <point x="60" y="-23" type="line"/>
      <point x="318" y="-23" type="line"/>
      <point x="318" y="502" type="line"/>
      <point x="252" y="502" type="line"/>
      <point x="252" y="47" type="line"/>
      <point x="60" y="47" type="line"/>
    </contour>
  </outline>
</glyph>
<glyph name="u300F" format="2">
  <advance width="448"/>
  <unicode hex="300F"/>
  <outline>
    <contour>
      <point x="60" y="-23" type="line"/>
      <point x="348" y="-23" type="line"/>
      <point x="348" y="502" type="line"/>
      <point x="252" y="502" type="line"/>
      <point x="252" y="77" type="line"/>
      <point x="60" y="77" type="line"/>
    </contour>
    <contour>
      <point x="84" y="1" type="line"/>
      <point x="84" y="53" type="line"/>
      <point x="276" y="53" type="line"/>
      <point x="276" y="478" type="line"/>
      <point x="324" y="478" type="line"/>
      <point x="324" y="1" type="line"/>
    </contour>
  </outline>
</glyph>
<glyph name="uFE3D" format="2">
  <advance width="604"/>
  <unicode hex="FE3D"/>
  <outline>
    <contour>
      <point x="465" y="27" type="line"/>
      <point x="544" y="27" type="line"/>
      <point x="344" y="404" type="line"/>
      <point x="544" y="781" type="line"/>
      <point x="465" y="781" type="line"/>
      <point x="265" y="404" type="line"/>
    </contour>
    <contour>
      <point x="290" y="27" type="line"/>
      <point x="369" y="27" type="line"/>
      <point x="169" y="404" type="line"/>
      <point x="369" y="781" type="line"/>
      <point x="290" y="781" type="line"/>
      <point x="90" y="404" type="line"/>
    </contour>
  </outline>
</glyph>
<glyph name="uFE41" format="2">
  <advance width="418"/>
  <unicode hex="FE41"/>
  <outline>
    <contour>
      <point x="100" y="306" type="line"/>
      <point x="166" y="306" type="line"/>
      <point x="166" y="761" type="line"/>
      <point x="358" y="761" type="line"/>
      <point x="358" y="831" type="line"/>
      <point x="100" y="831" type="line"/>
    </contour>
  </outline>
</glyph>
<glyph name="uFE42" format="2">
  <advance width="418"/>
  <unicode hex="FE42"/>
  <outline>
    <contour>
      <point x="60" y="-23" type="line"/>
      <point x="318" y="-23" type="line"/>
      <point x="318" y="502" type="line"/>
      <point x="252" y="502" type="line"/>
      <point x="252" y="47" type="line"/>
      <point x="60" y="47" type="line"/>
    </contour>
  </outline>
</glyph>
<glyph name="uFE43" format="2">
  <advance width="448"/>
  <unicode hex="FE43"/>
  <outline>
    <contour>
      <point x="100" y="306" type="line"/>
      <point x="196" y="306" type="line"/>
      <point x="196" y="731" type="line"/>
      <point x="388" y="731" type="line"/>
      <point x="388" y="831" type="line"/>
      <point x="100" y="831" type="line"/>
    </contour>
    <contour>
      <point x="124" y="330" type="line"/>
      <point x="124" y="807" type="line"/>
      <point x="364" y="807" type="line"/>
      <point x="364" y="755" type="line"/>
      <point x="172" y="755" type="line"/>
      <point x="172" y="330" type="line"/>
    </contour>
  </outline>
</glyph>
<glyph name="uFE44" format="2">
  <advance width="448"/>
  <unicode hex="FE44"/>
  <outline>
    <contour>
      <point x="60" y="-23" type="line"/>
      <point x="348" y="-23" type="line"/>
      <point x="348" y="502" type="line"/>
      <point x="252" y="502" type="line"/>
      <point x="252" y="77" type="line"/>
      <point x="60" y="77" type="line"/>
    </contour>
    <contour>
      <point x="84" y="1" type="line"/>
      <point x="84" y="53" type="line"/>
      <point x="276" y="53" type="line"/>
      <point x="276" y="478" type="line"/>
      <point x="324" y="478" type="line"/>
      <point x="324" y="1" type="line"/>
    </contour>
  </outline>
</glyph>
<glyph name="u11665" format="2">
  <advance width="992"/>
  <unicode hex="11665"/>
  <outline>
    <contour>
      <point x="781" y="181" type="curve"/>
      <point x="865" y="181" type="line"/>
      <point x="905" y="232"/>
      <point x="932" y="288"/>
      <point x="932" y="368" type="curve" smooth="yes"/>
      <point x="932" y="448"/>
      <point x="905" y="504"/>
      <point x="865" y="555" type="curve"/>
      <point x="781" y="555" type="line"/>
      <point x="830" y="498"/>
      <point x="854" y="446"/>
      <point x="854" y="368" type="curve" smooth="yes"/>
      <point x="854" y="291"/>
      <point x="830" y="238"/>
    </contour>
    <component base="u11661"/>
  </outline>
</glyph>
<glyph name="u11666" format="2">
  <advance width="1154"/>
  <unicode hex="11666"/>
  <outline>
    <contour>
      <point x="943" y="181" type="curve"/>
      <point x="1027" y="181" type="line"/>
      <point x="1067" y="232"/>
      <point x="1094" y="288"/>
      <point x="1094" y="368" type="curve" smooth="yes"/>
      <point x="1094" y="448"/>
      <point x="1067" y="504"/>
      <point x="1027" y="555" type="curve"/>
      <point x="943" y="555" type="line"/>
      <point x="992" y="498"/>
      <point x="1016" y="446"/>
      <point x="1016" y="368" type="curve" smooth="yes"/>
      <point x="1016" y="291"/>
      <point x="992" y="238"/>
    </contour>
    <component base="u11665"/>
  </outline>
</glyph>
<glyph name="u11667" format="2">
  <advance width="534"/>
  <unicode hex="11667"/>
  <outline>
    <contour>
      <point x="165" y="611" type="line"/>
      <point x="293" y="484"/>
      <point x="396" y="305"/>
      <point x="396" y="154" type="curve" smooth="yes"/>
      <point x="396" y="55"/>
      <point x="351" y="-19"/>
      <point x="258" y="-19" type="curve" smooth="yes"/>
      <point x="188" y="-19"/>
      <point x="138" y="25"/>
      <point x="138" y="108" type="curve" smooth="yes"/>
      <point x="138" y="176"/>
      <point x="172" y="229"/>
      <point x="240" y="261" type="curve"/>
      <point x="200" y="330" type="line"/>
      <point x="107" y="285"/>
      <point x="60" y="206"/>
      <point x="60" y="110" type="curve" smooth="yes"/>
      <point x="60" y="-22"/>
      <point x="141" y="-99"/>
      <point x="258" y="-99" type="curve" smooth="yes"/>
      <point x="401" y="-99"/>
      <point x="474" y="14"/>
      <point x="474" y="154" type="curve" smooth="yes"/>
      <point x="474" y="310"/>
      <point x="379" y="479"/>
      <point x="261" y="611" type="curve"/>
    </contour>
  </outline>
</glyph>
<glyph name="u11668" format="2">
  <advance width="858"/>
  <unicode hex="11668"/>
  <outline>
    <contour>
      <point x="485" y="-73" type="curve"/>
      <point x="569" y="-73" type="line"/>
      <point x="609" y="-22"/>
      <point x="636" y="54"/>
      <point x="636" y="144" type="curve" smooth="yes"/>
      <point x="636" y="234"/>
      <point x="609" y="310"/>
      <point x="569" y="361" type="curve"/>
      <point x="485" y="361" type="line"/>
      <point x="534" y="304"/>
      <point x="558" y="232"/>
      <point x="558" y="144" type="curve" smooth="yes"/>
      <point x="558" y="57"/>
      <point x="534" y="-16"/>
    </contour>
    <contour>
      <point x="647" y="-73" type="curve"/>
      <point x="731" y="-73" type="line"/>
      <point x="771" y="-22"/>
      <point x="798" y="54"/>
      <point x="798" y="144" type="curve" smooth="yes"/>
      <point x="798" y="234"/>
      <point x="771" y="310"/>
      <point x="731" y="361" type="curve"/>
      <point x="647" y="361" type="line"/>
      <point x="696" y="304"/>
      <point x="720" y="232"/>
      <point x="720" y="144" type="curve" smooth="yes"/>
      <point x="720" y="57"/>
      <point x="696" y="-16"/>
    </contour>
    <component base="u11667"/>
  </outline>
</glyph>
<glyph name="u1166A" format="2">
  <advance width="858"/>
  <unicode hex="1166A"/>
  <outline>
    <contour>
      <point x="736" y="570" type="curve"/>
      <point x="646" y="570" type="line"/>
      <point x="696" y="506"/>
      <point x="730" y="421"/>
      <point x="730" y="303" type="curve" smooth="yes"/>
      <point x="730" y="202"/>
      <point x="707" y="94"/>
      <point x="650" y="-1" type="curve"/>
      <point x="740" y="-1" type="line"/>
      <point x="796" y="97"/>
      <point x="808" y="210"/>
      <point x="808" y="302" type="curve" smooth="yes"/>
      <point x="808" y="436"/>
      <point x="774" y="513"/>
    </contour>
    <component base="u11669"/>
  </outline>
</glyph>
<glyph name="u1166B" format="2">
  <advance width="1030"/>
  <unicode hex="1166B"/>
  <outline>
    <contour>
      <point x="898" y="570" type="curve"/>
      <point x="808" y="570" type="line"/>
      <point x="858" y="506"/>
      <point x="892" y="421"/>
      <point x="892" y="303" type="curve" smooth="yes"/>
      <point x="892" y="202"/>
      <point x="869" y="94"/>
      <point x="812" y="-1" type="curve"/>
      <point x="902" y="-1" type="line"/>
      <point x="958" y="97"/>
      <point x="970" y="210"/>
      <point x="970" y="302" type="curve" smooth="yes"/>
      <point x="970" y="436"/>
      <point x="936" y="513"/>
    </contour>
    <component base="u1166A"/>
  </outline>
</glyph>
<glyph name="MongolianDot" format="2">
  <advance width="208"/>
  <outline>
    <contour>
      <point x="69" y="-163" type="line"/>
      <point x="102" y="-128"/>
      <point x="148" y="-90"/>
      <point x="208" y="-47" type="curve"/>
      <point x="147" y="22" type="line"/>
      <point x="108" y="-17"/>
      <point x="68" y="-65"/>
      <point x="26" y="-124" type="curve"/>
    </contour>
  </outline>
</glyph>
<glyph name="MongolianRing" format="2">
  <advance width="317"/>
  <outline>
    <contour>
      <point x="158" y="-211" type="curve" smooth="yes"/>
      <point x="225" y="-211"/>
      <point x="277" y="-157"/>
      <point x="277" y="-92" type="curve" smooth="yes"/>
      <point x="277" y="-25"/>
      <point x="223" y="27"/>
      <point x="158" y="27" type="curve" smooth="yes"/>
      <point x="91" y="27"/>
      <point x="39" y="-27"/>
      <point x="39" y="-92" type="curve" smooth="yes"/>
      <point x="39" y="-159"/>
      <point x="93" y="-211"/>
    </contour>
    <contour>
      <point x="158" y="-161" type="curve" smooth="yes"/>
      <point x="122" y="-161"/>
      <point x="90" y="-135"/>
      <point x="90" y="-92" type="curve" smooth="yes"/>
      <point x="90" y="-52"/>
      <point x="119" y="-24"/>
      <point x="158" y="-24" type="curve" smooth="yes"/>
      <point x="198" y="-24"/>
      <point x="227" y="-54"/>
      <point x="227" y="-92" type="curve" smooth="yes"/>
      <point x="227" y="-131"/>
      <point x="197" y="-161"/>
    </contour>
  </outline>
</glyph>
<glyph name="emdash.v" format="2">
  <advance width="1004"/>
  <outline>
    <contour>
      <point x="211" y="754" type="line"/>
      <point x="211" y="-166" type="line"/>
      <point x="289" y="-166" type="line"/>
      <point x="289" y="754" type="line"/>
    </contour>
  </outline>
</glyph>
<glyph name="endash.v" format="2">
  <advance width="500"/>
  <outline>
    <contour>
      <point x="211" y="614" type="line"/>
      <point x="211" y="194" type="line"/>
      <point x="289" y="194" type="line"/>
      <point x="289" y="614" type="line"/>
    </contour>
  </outline>
</glyph>
<glyph name="exclam.v" format="2">
  <advance width="988"/>
  <outline>
    <contour>
      <point x="188" y="768" type="line"/>
      <point x="213" y="255" type="line"/>
      <point x="270" y="255" type="line"/>
      <point x="295" y="768" type="line"/>
    </contour>
    <contour>
      <point x="179" y="108" type="curve" smooth="yes"/>
      <point x="179" y="60"/>
      <point x="206" y="40"/>
      <point x="241" y="40" type="curve" smooth="yes"/>
      <point x="275" y="40"/>
      <point x="303" y="60"/>
      <point x="303" y="108" type="curve" smooth="yes"/>
      <point x="303" y="151"/>
      <point x="280" y="175"/>
      <point x="241" y="175" type="curve" smooth="yes"/>
      <point x="206" y="175"/>
      <point x="179" y="157"/>
    </contour>
  </outline>
</glyph>
<glyph name="parenleft.v" format="2">
  <advance width="992"/>
  <outline>
    <contour>
      <point x="265" y="319" type="curve" smooth="yes"/>
      <point x="102" y="319"/>
      <point x="-54" y="273"/>
      <point x="-175" y="172" type="curve"/>
      <point x="-175" y="89" type="line"/>
      <point x="-50" y="182"/>
      <point x="106" y="230"/>
      <point x="264" y="230" type="curve" smooth="yes"/>
      <point x="419" y="230"/>
      <point x="572" y="182"/>
      <point x="697" y="90" type="curve"/>
      <point x="697" y="172" type="line"/>
      <point x="580" y="273"/>
      <point x="426" y="319"/>
    </contour>
  </outline>
</glyph>
<glyph name="parenright.v" format="2">
  <advance width="992"/>
  <outline>
    <contour>
      <point x="265" y="78" type="curve" smooth="yes"/>
      <point x="426" y="78"/>
      <point x="580" y="124"/>
      <point x="697" y="225" type="curve"/>
      <point x="697" y="307" type="line"/>
      <point x="572" y="215"/>
      <point x="419" y="167"/>
      <point x="264" y="167" type="curve" smooth="yes"/>
      <point x="106" y="167"/>
      <point x="-50" y="215"/>
      <point x="-175" y="308" type="curve"/>
      <point x="-175" y="225" type="line"/>
      <point x="-54" y="124"/>
      <point x="102" y="78"/>
    </contour>
  </outline>
</glyph>
<glyph name="question.v" format="2">
  <advance width="988"/>
  <outline>
    <contour>
      <point x="75" y="731" type="curve"/>
      <point x="106" y="661" type="line"/>
      <point x="167" y="690"/>
      <point x="204" y="703"/>
      <point x="266" y="703" type="curve" smooth="yes"/>
      <point x="345" y="703"/>
      <point x="387" y="667"/>
      <point x="387" y="603" type="curve" smooth="yes"/>
      <point x="387" y="543"/>
      <point x="357" y="512"/>
      <point x="287" y="454" type="curve" smooth="yes"/>
      <point x="251" y="424"/>
      <point x="229" y="396"/>
      <point x="219" y="373" type="curve" smooth="yes"/>
      <point x="209" y="350"/>
      <point x="203" y="321"/>
      <point x="203" y="284" type="curve" smooth="yes"/>
      <point x="203" y="257" type="line"/>
      <point x="273" y="257" type="line"/>
      <point x="273" y="274" type="line" smooth="yes"/>
      <point x="273" y="304"/>
      <point x="278" y="328"/>
      <point x="289" y="346" type="curve" smooth="yes"/>
      <point x="300" y="364"/>
      <point x="321" y="387"/>
      <point x="353" y="414" type="curve" smooth="yes"/>
      <point x="425" y="475"/>
      <point x="471" y="514"/>
      <point x="471" y="605" type="curve" smooth="yes"/>
      <point x="471" y="717"/>
      <point x="395" y="780"/>
      <point x="272" y="780" type="curve" smooth="yes"/>
      <point x="203" y="780"/>
      <point x="137" y="764"/>
    </contour>
    <contour>
      <point x="180" y="110" type="curve" smooth="yes"/>
      <point x="180" y="62"/>
      <point x="206" y="42"/>
      <point x="242" y="42" type="curve" smooth="yes"/>
      <point x="275" y="42"/>
      <point x="303" y="62"/>
      <point x="303" y="110" type="curve" smooth="yes"/>
      <point x="303" y="154"/>
      <point x="281" y="177"/>
      <point x="242" y="177" type="curve" smooth="yes"/>
      <point x="201" y="177"/>
      <point x="180" y="155"/>
    </contour>
  </outline>
</glyph>
<glyph name="quotedblleft.v" format="2">
  <advance width="406"/>
  <outline>
    <contour>
      <point x="140" y="572" type="curve"/>
      <point x="140" y="507" type="line"/>
      <point x="213" y="474"/>
      <point x="305" y="438"/>
      <point x="375" y="420" type="curve"/>
      <point x="386" y="427" type="line"/>
      <point x="386" y="522" type="line"/>
      <point x="317" y="532"/>
      <point x="218" y="553"/>
    </contour>
    <contour>
      <point x="140" y="387" type="curve"/>
      <point x="140" y="323" type="line"/>
      <point x="213" y="290"/>
      <point x="305" y="255"/>
      <point x="375" y="237" type="curve"/>
      <point x="386" y="243" type="line"/>
      <point x="386" y="337" type="line"/>
      <point x="317" y="347"/>
      <point x="218" y="368"/>
    </contour>
  </outline>
</glyph>
<glyph name="u1807.med" format="2">
  <advance width="384"/>
  <outline>
    <contour>
      <point x="119" y="96" type="line"/>
      <point x="185" y="96" type="line"/>
      <point x="204" y="364" type="line"/>
      <point x="414" y="364" type="line"/>
      <point x="414" y="444" type="line"/>
      <point x="0" y="444" type="line"/>
      <point x="0" y="364" type="line"/>
      <point x="100" y="364" type="line"/>
    </contour>
  </outline>
</glyph>
<glyph name="u1820_1843.fin" format="2">
  <advance width="460"/>
  <outline>
    <contour>
      <point x="261" y="53" type="curve"/>
      <point x="261" y="156" type="line" smooth="yes"/>
      <point x="261" y="403"/>
      <point x="314" y="667"/>
      <point x="450" y="836" type="curve"/>
      <point x="358" y="836" type="line"/>
      <point x="236" y="677"/>
      <point x="184" y="399"/>
      <point x="184" y="156" type="curve"/>
      <point x="93" y="209"/>
      <point x="74" y="309"/>
      <point x="74" y="444" type="curve"/>
      <point x="58" y="444" type="line"/>
      <point x="81" y="632" type="line"/>
      <point x="-7" y="632" type="line"/>
      <point x="15" y="444" type="line"/>
      <point x="0" y="444" type="line"/>
      <point x="0" y="364" type="line" smooth="yes"/>
      <point x="0" y="206"/>
      <point x="100" y="63"/>
    </contour>
  </outline>
</glyph>
<glyph name="u1822.med" format="2">
  <advance width="361"/>
  <outline>
    <contour>
      <point x="173" y="-67" type="curve"/>
      <point x="246" y="-31" type="line"/>
      <point x="173" y="100"/>
      <point x="117" y="231"/>
      <point x="79" y="364" type="curve"/>
      <point x="391" y="364" type="line"/>
      <point x="391" y="444" type="line"/>
      <point x="0" y="444" type="line"/>
      <point x="0" y="364" type="line"/>
      <point x="37" y="224"/>
      <point x="94" y="80"/>
    </contour>
  </outline>
</glyph>
<glyph name="u1822.medV1" format="2">
  <advance width="579"/>
  <outline>
    <contour>
      <point x="391" y="-67" type="curve"/>
      <point x="464" y="-31" type="line"/>
      <point x="391" y="100"/>
      <point x="335" y="231"/>
      <point x="297" y="364" type="curve"/>
      <point x="609" y="364" type="line"/>
      <point x="609" y="444" type="line"/>
      <point x="0" y="444" type="line"/>
      <point x="0" y="364" type="line"/>
      <point x="19" y="96" type="line"/>
      <point x="85" y="96" type="line"/>
      <point x="104" y="364" type="line"/>
      <point x="218" y="364" type="line"/>
      <point x="256" y="220"/>
      <point x="313" y="77"/>
    </contour>
  </outline>
</glyph>
<glyph name="u1822.medV2" format="2">
  <advance width="654"/>
  <outline>
    <contour>
      <point x="173" y="-67" type="curve"/>
      <point x="246" y="-31" type="line"/>
      <point x="173" y="100"/>
      <point x="117" y="231"/>
      <point x="79" y="364" type="curve"/>
      <point x="391" y="364" type="line"/>
      <point x="391" y="444" type="line"/>
      <point x="0" y="444" type="line"/>
      <point x="0" y="364" type="line"/>
      <point x="37" y="224"/>
      <point x="94" y="80"/>
    </contour>
    <contour>
      <point x="466" y="-67" type="curve"/>
      <point x="539" y="-31" type="line"/>
      <point x="466" y="100"/>
      <point x="410" y="231"/>
      <point x="372" y="364" type="curve"/>
      <point x="684" y="364" type="line"/>
      <point x="684" y="444" type="line"/>
      <point x="293" y="444" type="line"/>
      <point x="293" y="364" type="line"/>
      <point x="330" y="224"/>
      <point x="387" y="80"/>
    </contour>
  </outline>
</glyph>
<glyph name="u1828.medV3" format="2">
  <advance width="452"/>
  <outline>
    <contour>
      <point x="187" y="96" type="line"/>
      <point x="253" y="96" type="line"/>
      <point x="272" y="364" type="line"/>
      <point x="482" y="364" type="line"/>
      <point x="482" y="444" type="line"/>
      <point x="0" y="444" type="line"/>
      <point x="0" y="364" type="line"/>
      <point x="168" y="364" type="line"/>
    </contour>
    <contour>
      <point x="213" y="-163" type="line"/>
      <point x="246" y="-128"/>
      <point x="292" y="-90"/>
      <point x="352" y="-47" type="curve"/>
      <point x="291" y="22" type="line"/>
      <point x="251" y="-17"/>
      <point x="211" y="-66"/>
      <point x="170" y="-124" type="curve"/>
    </contour>
  </outline>
</glyph>
<glyph name="u1829.fin" format="2">
  <advance width="842"/>
  <outline>
    <contour>
      <point x="536" y="-264" type="curve"/>
      <point x="618" y="-264" type="line"/>
      <point x="604" y="-240"/>
      <point x="597" y="-214"/>
      <point x="597" y="-187" type="curve" smooth="yes"/>
      <point x="597" y="-130"/>
      <point x="617" y="-91"/>
      <point x="664" y="-31" type="curve" smooth="yes"/>
      <point x="740" y="66"/>
      <point x="797" y="153"/>
      <point x="797" y="245" type="curve" smooth="yes"/>
      <point x="797" y="373"/>
      <point x="720" y="444"/>
      <point x="566" y="444" type="curve" smooth="yes"/>
      <point x="0" y="444" type="line"/>
      <point x="0" y="364" type="line"/>
      <point x="19" y="96" type="line"/>
      <point x="85" y="96" type="line"/>
      <point x="104" y="364" type="line"/>
      <point x="218" y="364" type="line"/>
      <point x="256" y="220"/>
      <point x="313" y="77"/>
      <point x="391" y="-67" type="curve"/>
      <point x="464" y="-31" type="line"/>
      <point x="391" y="100"/>
      <point x="335" y="231"/>
      <point x="297" y="364" type="curve"/>
      <point x="565" y="364" type="line" smooth="yes"/>
      <point x="672" y="364"/>
      <point x="719" y="325"/>
      <point x="719" y="245" type="curve" smooth="yes"/>
      <point x="719" y="172"/>
      <point x="674" y="110"/>
      <point x="612" y="28" type="curve" smooth="yes"/>
      <point x="558" y="-44"/>
      <point x="517" y="-109"/>
      <point x="517" y="-187" type="curve" smooth="yes"/>
      <point x="517" y="-217"/>
      <point x="523" y="-243"/>
    </contour>
  </outline>
</glyph>
<glyph name="u182A.ini" format="2">
  <advance width="557"/>
  <outline>
    <contour>
      <point x="273" y="40" type="curve" smooth="yes"/>
      <point x="376" y="40"/>
      <point x="451" y="138"/>
      <point x="451" y="275" type="curve" smooth="yes"/>
      <point x="451" y="312"/>
      <point x="440" y="410"/>
      <point x="428" y="444" type="curve"/>
      <point x="124" y="444" type="line"/>
      <point x="126" y="590"/>
      <point x="198" y="699"/>
      <point x="335" y="699" type="curve" smooth="yes"/>
      <point x="467" y="699"/>
      <point x="552" y="576"/>
      <point x="557" y="364" type="curve"/>
      <point x="631" y="364" type="line"/>
      <point x="631" y="586"/>
      <point x="531" y="782"/>
      <point x="335" y="782" type="curve" smooth="yes"/>
      <point x="141" y="782"/>
      <point x="45" y="624"/>
      <point x="45" y="408" type="curve" smooth="yes"/>
      <point x="45" y="162"/>
      <point x="118" y="40"/>
    </contour>
    <contour>
      <point x="264" y="123" type="curve" smooth="yes"/>
      <point x="173" y="123"/>
      <point x="126" y="203"/>
      <point x="124" y="364" type="curve"/>
      <point x="362" y="364" type="line"/>
      <point x="369" y="345"/>
      <point x="372" y="315"/>
      <point x="372" y="275" type="curve" smooth="yes"/>
      <point x="372" y="190"/>
      <point x="337" y="123"/>
    </contour>
  </outline>
</glyph>
<glyph name="u182A_1820.ini" format="2">
  <advance width="863"/>
  <outline>
    <contour>
      <point x="271" y="40" type="curve" smooth="yes"/>
      <point x="375" y="40"/>
      <point x="451" y="134"/>
      <point x="451" y="275" type="curve" smooth="yes"/>
      <point x="451" y="312"/>
      <point x="440" y="410"/>
      <point x="428" y="444" type="curve"/>
      <point x="124" y="444" type="line"/>
      <point x="126" y="592"/>
      <point x="204" y="699"/>
      <point x="352" y="699" type="curve" smooth="yes"/>
      <point x="493" y="699"/>
      <point x="563" y="586"/>
      <point x="579" y="364" type="curve" smooth="yes"/>
      <point x="598" y="96" type="line"/>
      <point x="664" y="96" type="line"/>
      <point x="683" y="364" type="line"/>
      <point x="893" y="364" type="line"/>
      <point x="893" y="444" type="line"/>
      <point x="652" y="444" type="line"/>
      <point x="625" y="637"/>
      <point x="535" y="782"/>
      <point x="352" y="782" type="curve" smooth="yes"/>
      <point x="150" y="782"/>
      <point x="45" y="630"/>
      <point x="45" y="408" type="curve" smooth="yes"/>
      <point x="45" y="161"/>
      <point x="119" y="40"/>
    </contour>
    <contour>
      <point x="264" y="123" type="curve" smooth="yes"/>
      <point x="173" y="123"/>
      <point x="126" y="203"/>
      <point x="124" y="364" type="curve"/>
      <point x="362" y="364" type="line"/>
      <point x="369" y="345"/>
      <point x="372" y="315"/>
      <point x="372" y="275" type="curve" smooth="yes"/>
      <point x="372" y="190"/>
      <point x="337" y="123"/>
    </contour>
  </outline>
</glyph>
<glyph name="u182A_182F.ini" format="2">
  <advance width="863"/>
  <outline>
    <contour>
      <point x="271" y="40" type="curve" smooth="yes"/>
      <point x="377" y="40"/>
      <point x="451" y="138"/>
      <point x="451" y="275" type="curve" smooth="yes"/>
      <point x="451" y="312"/>
      <point x="440" y="410"/>
      <point x="428" y="444" type="curve"/>
      <point x="124" y="444" type="line"/>
      <point x="126" y="578"/>
      <point x="213" y="659"/>
      <point x="348" y="659" type="curve" smooth="yes"/>
      <point x="487" y="659"/>
      <point x="565" y="559"/>
      <point x="579" y="364" type="curve" smooth="yes"/>
      <point x="598" y="96" type="line"/>
      <point x="664" y="96" type="line"/>
      <point x="683" y="364" type="line"/>
      <point x="893" y="364" type="line"/>
      <point x="893" y="444" type="line"/>
      <point x="652" y="444" type="line"/>
      <point x="640" y="510"/>
      <point x="621" y="565"/>
      <point x="593" y="611" type="curve"/>
      <point x="596" y="695"/>
      <point x="624" y="767"/>
      <point x="675" y="848" type="curve"/>
      <point x="675" y="914" type="line"/>
      <point x="555" y="914" type="line" smooth="yes"/>
      <point x="475" y="914"/>
      <point x="423" y="917"/>
      <point x="375" y="950" type="curve"/>
      <point x="375" y="872" type="line"/>
      <point x="415" y="837"/>
      <point x="478" y="834"/>
      <point x="555" y="834" type="curve" smooth="yes"/>
      <point x="583" y="834" type="line"/>
      <point x="557" y="787"/>
      <point x="539" y="736"/>
      <point x="530" y="683" type="curve"/>
      <point x="482" y="723"/>
      <point x="422" y="742"/>
      <point x="348" y="742" type="curve" smooth="yes"/>
      <point x="155" y="742"/>
      <point x="45" y="615"/>
      <point x="45" y="408" type="curve" smooth="yes"/>
      <point x="45" y="161"/>
      <point x="120" y="40"/>
    </contour>
    <contour>
      <point x="264" y="123" type="curve" smooth="yes"/>
      <point x="173" y="123"/>
      <point x="126" y="203"/>
      <point x="124" y="364" type="curve"/>
      <point x="362" y="364" type="line"/>
      <point x="369" y="345"/>
      <point x="372" y="315"/>
      <point x="372" y="275" type="curve" smooth="yes"/>
      <point x="372" y="190"/>
      <point x="337" y="123"/>
    </contour>
  </outline>
</glyph>
<glyph name="u182C_1821.ini" format="2">
  <advance width="714"/>
  <outline>
    <contour>
      <point x="174" y="42" type="curve"/>
      <point x="245" y="85" type="line"/>
      <point x="169" y="197"/>
      <point x="124" y="291"/>
      <point x="124" y="417" type="curve" smooth="yes"/>
      <point x="124" y="571"/>
      <point x="183" y="644"/>
      <point x="275" y="644" type="curve" smooth="yes"/>
      <point x="394" y="644"/>
      <point x="418" y="529"/>
      <point x="430" y="363" type="curve" smooth="yes"/>
      <point x="449" y="96" type="line"/>
      <point x="515" y="96" type="line"/>
      <point x="534" y="364" type="line"/>
      <point x="744" y="364" type="line"/>
      <point x="744" y="444" type="line"/>
      <point x="503" y="444" type="line"/>
      <point x="482" y="614"/>
      <point x="424" y="727"/>
      <point x="274" y="727" type="curve" smooth="yes"/>
      <point x="136" y="727"/>
      <point x="45" y="606"/>
      <point x="45" y="417" type="curve" smooth="yes"/>
      <point x="45" y="299"/>
      <point x="88" y="174"/>
    </contour>
  </outline>
</glyph>
<glyph name="u182Cv1_1820_1.finV1" format="2">
  <advance width="750"/>
  <outline>
    <contour>
      <point x="141" y="70" type="curve"/>
      <point x="215" y="112" type="line"/>
      <point x="158" y="206"/>
      <point x="124" y="294"/>
      <point x="124" y="400" type="curve" smooth="yes"/>
      <point x="124" y="489"/>
      <point x="167" y="543"/>
      <point x="247" y="543" type="curve" smooth="yes"/>
      <point x="319" y="543"/>
      <point x="369" y="485"/>
      <point x="377" y="364" type="curve"/>
      <point x="451" y="364" type="line"/>
      <point x="444" y="509"/>
      <point x="384" y="626"/>
      <point x="247" y="626" type="curve" smooth="yes"/>
      <point x="124" y="626"/>
      <point x="45" y="537"/>
      <point x="45" y="400" type="curve" smooth="yes"/>
      <point x="45" y="296"/>
      <point x="77" y="186"/>
    </contour>
    <contour>
      <point x="444" y="-264" type="curve"/>
      <point x="526" y="-264" type="line"/>
      <point x="512" y="-240"/>
      <point x="505" y="-214"/>
      <point x="505" y="-187" type="curve" smooth="yes"/>
      <point x="505" y="-125"/>
      <point x="524" y="-91"/>
      <point x="572" y="-31" type="curve" smooth="yes"/>
      <point x="620" y="29"/>
      <point x="654" y="82"/>
      <point x="674" y="123" type="curve" smooth="yes"/>
      <point x="695" y="165"/>
      <point x="705" y="206"/>
      <point x="705" y="245" type="curve" smooth="yes"/>
      <point x="705" y="373"/>
      <point x="628" y="444"/>
      <point x="474" y="444" type="curve" smooth="yes"/>
      <point x="398" y="444" type="line"/>
      <point x="380" y="364" type="line"/>
      <point x="473" y="364" type="line" smooth="yes"/>
      <point x="580" y="364"/>
      <point x="627" y="325"/>
      <point x="627" y="245" type="curve" smooth="yes"/>
      <point x="627" y="214"/>
      <point x="619" y="183"/>
      <point x="603" y="152" type="curve" smooth="yes"/>
      <point x="587" y="121"/>
      <point x="560" y="80"/>
      <point x="520" y="28" type="curve" smooth="yes"/>
      <point x="463" y="-46"/>
      <point x="425" y="-112"/>
      <point x="425" y="-187" type="curve" smooth="yes"/>
      <point x="425" y="-217"/>
      <point x="431" y="-243"/>
    </contour>
  </outline>
</glyph>
<glyph name="u182D.iniFem" format="2">
  <advance width="631"/>
  <outline>
    <contour>
      <point x="174" y="42" type="curve"/>
      <point x="245" y="85" type="line"/>
      <point x="167" y="194"/>
      <point x="124" y="285"/>
      <point x="124" y="407" type="curve" smooth="yes"/>
      <point x="124" y="567"/>
      <point x="181" y="644"/>
      <point x="273" y="644" type="curve" smooth="yes"/>
      <point x="393" y="644"/>
      <point x="417" y="530"/>
      <point x="428" y="364" type="curve"/>
      <point x="661" y="364" type="line"/>
      <point x="661" y="444" type="line"/>
      <point x="496" y="444" type="line"/>
      <point x="478" y="611"/>
      <point x="420" y="727"/>
      <point x="273" y="727" type="curve" smooth="yes"/>
      <point x="135" y="727"/>
      <point x="45" y="604"/>
      <point x="45" y="407" type="curve" smooth="yes"/>
      <point x="45" y="292"/>
      <point x="88" y="170"/>
    </contour>
  </outline>
</glyph>
<glyph name="u182E_1820_1.finV1" format="2">
  <advance width="800"/>
  <outline>
    <contour>
      <point x="226" y="74" type="line"/>
      <point x="292" y="74" type="line"/>
      <point x="302" y="219" type="line" smooth="yes"/>
      <point x="309" y="326"/>
      <point x="335" y="364"/>
      <point x="445" y="364" type="curve" smooth="yes"/>
      <point x="522" y="364" type="line"/>
      <point x="522" y="444" type="line"/>
      <point x="444" y="444" type="line" smooth="yes"/>
      <point x="360" y="444"/>
      <point x="307" y="416"/>
      <point x="285" y="361" type="curve"/>
      <point x="281" y="361" type="line"/>
      <point x="278" y="484"/>
      <point x="270" y="602"/>
      <point x="229" y="693" type="curve"/>
      <point x="265" y="693" type="line" smooth="yes"/>
      <point x="320" y="693"/>
      <point x="359" y="696"/>
      <point x="383" y="701" type="curve" smooth="yes"/>
      <point x="407" y="706"/>
      <point x="428" y="717"/>
      <point x="444" y="731" type="curve"/>
      <point x="444" y="808" type="line"/>
      <point x="427" y="796"/>
      <point x="405" y="788"/>
      <point x="380" y="782" type="curve" smooth="yes"/>
      <point x="355" y="776"/>
      <point x="317" y="773"/>
      <point x="265" y="773" type="curve" smooth="yes"/>
      <point x="144" y="773" type="line"/>
      <point x="144" y="716" type="line"/>
      <point x="163" y="698"/>
      <point x="178" y="674"/>
      <point x="189" y="646" type="curve"/>
      <point x="176" y="650"/>
      <point x="159" y="653"/>
      <point x="139" y="653" type="curve" smooth="yes"/>
      <point x="100" y="653"/>
      <point x="57" y="643"/>
      <point x="10" y="623" type="curve"/>
      <point x="10" y="550" type="line"/>
      <point x="52" y="567"/>
      <point x="88" y="575"/>
      <point x="118" y="575" type="curve" smooth="yes"/>
      <point x="180" y="575"/>
      <point x="194" y="522"/>
      <point x="200" y="437" type="curve" smooth="yes"/>
    </contour>
    <contour>
      <point x="493" y="-264" type="curve"/>
      <point x="575" y="-264" type="line"/>
      <point x="561" y="-240"/>
      <point x="554" y="-214"/>
      <point x="554" y="-187" type="curve" smooth="yes"/>
      <point x="554" y="-125"/>
      <point x="573" y="-91"/>
      <point x="621" y="-31" type="curve" smooth="yes"/>
      <point x="669" y="29"/>
      <point x="703" y="82"/>
      <point x="723" y="123" type="curve" smooth="yes"/>
      <point x="744" y="165"/>
      <point x="754" y="206"/>
      <point x="754" y="245" type="curve" smooth="yes"/>
      <point x="754" y="373"/>
      <point x="677" y="444"/>
      <point x="523" y="444" type="curve" smooth="yes"/>
      <point x="447" y="444" type="line"/>
      <point x="429" y="364" type="line"/>
      <point x="522" y="364" type="line" smooth="yes"/>
      <point x="629" y="364"/>
      <point x="676" y="325"/>
      <point x="676" y="245" type="curve" smooth="yes"/>
      <point x="676" y="214"/>
      <point x="668" y="183"/>
      <point x="652" y="152" type="curve" smooth="yes"/>
      <point x="636" y="121"/>
      <point x="609" y="80"/>
      <point x="569" y="28" type="curve" smooth="yes"/>
      <point x="512" y="-46"/>
      <point x="474" y="-112"/>
      <point x="474" y="-187" type="curve" smooth="yes"/>
      <point x="474" y="-217"/>
      <point x="480" y="-243"/>
    </contour>
  </outline>
</glyph>
<glyph name="u182E_182F.med" format="2">
  <advance width="568"/>
  <outline>
    <contour>
      <point x="19" y="96" type="line"/>
      <point x="85" y="96" type="line"/>
      <point x="104" y="364" type="line"/>
      <point x="284" y="364" type="line"/>
      <point x="303" y="96" type="line"/>
      <point x="369" y="96" type="line"/>
      <point x="388" y="364" type="line"/>
      <point x="598" y="364" type="line"/>
      <point x="598" y="444" type="line"/>
      <point x="376" y="444" type="line"/>
      <point x="378" y="532"/>
      <point x="403" y="609"/>
      <point x="452" y="693" type="curve"/>
      <point x="452" y="759" type="line"/>
      <point x="342" y="759" type="line" smooth="yes"/>
      <point x="296" y="759"/>
      <point x="254" y="760"/>
      <point x="222" y="781" type="curve"/>
      <point x="222" y="703" type="line"/>
      <point x="249" y="681"/>
      <point x="292" y="679"/>
      <point x="342" y="679" type="curve" smooth="yes"/>
      <point x="366" y="679" type="line"/>
      <point x="329" y="610"/>
      <point x="309" y="532"/>
      <point x="306" y="444" type="curve"/>
      <point x="84" y="444" type="line"/>
      <point x="81" y="503"/>
      <point x="67" y="555"/>
      <point x="41" y="599" type="curve"/>
      <point x="63" y="599" type="line" smooth="yes"/>
      <point x="118" y="599"/>
      <point x="143" y="603"/>
      <point x="162" y="615" type="curve"/>
      <point x="162" y="693" type="line"/>
      <point x="136" y="680"/>
      <point x="104" y="679"/>
      <point x="63" y="679" type="curve" smooth="yes"/>
      <point x="-51" y="679" type="line"/>
      <point x="-51" y="613" type="line"/>
      <point x="-8" y="553"/>
      <point x="11" y="502"/>
      <point x="13" y="444" type="curve"/>
      <point x="0" y="444" type="line"/>
      <point x="0" y="364" type="line"/>
    </contour>
  </outline>
</glyph>
<glyph name="u182F.medx" format="2">
  <advance width="527"/>
  <outline>
    <contour>
      <point x="263" y="96" type="line"/>
      <point x="329" y="96" type="line"/>
      <point x="348" y="364" type="line"/>
      <point x="558" y="364" type="line"/>
      <point x="558" y="444" type="line"/>
      <point x="330" y="444" type="line"/>
      <point x="333" y="518"/>
      <point x="354" y="581"/>
      <point x="392" y="653" type="curve"/>
      <point x="392" y="719" type="line"/>
      <point x="272" y="719" type="line" smooth="yes"/>
      <point x="196" y="719"/>
      <point x="140" y="722"/>
      <point x="92" y="755" type="curve"/>
      <point x="92" y="677" type="line"/>
      <point x="133" y="641"/>
      <point x="188" y="639"/>
      <point x="272" y="639" type="curve" smooth="yes"/>
      <point x="306" y="639" type="line"/>
      <point x="278" y="580"/>
      <point x="263" y="515"/>
      <point x="260" y="444" type="curve"/>
      <point x="244" y="444" type="line"/>
      <point x="244" y="364" type="line"/>
    </contour>
    <contour>
      <point x="0" y="364" type="line"/>
      <point x="291" y="364" type="line"/>
      <point x="291" y="444" type="line"/>
      <point x="0" y="444" type="line"/>
    </contour>
  </outline>
</glyph>
<glyph name="u182F_182F.med" format="2">
  <advance width="588"/>
  <outline>
    <contour>
      <point x="19" y="96" type="line"/>
      <point x="85" y="96" type="line"/>
      <point x="104" y="364" type="line"/>
      <point x="304" y="364" type="line"/>
      <point x="323" y="96" type="line"/>
      <point x="389" y="96" type="line"/>
      <point x="408" y="364" type="line"/>
      <point x="618" y="364" type="line"/>
      <point x="618" y="444" type="line"/>
      <point x="390" y="444" type="line"/>
      <point x="392" y="527"/>
      <point x="408" y="610"/>
      <point x="441" y="693" type="curve"/>
      <point x="441" y="759" type="line"/>
      <point x="338" y="759" type="line" smooth="yes"/>
      <point x="281" y="759"/>
      <point x="241" y="760"/>
      <point x="209" y="785" type="curve"/>
      <point x="209" y="707" type="line"/>
      <point x="240" y="683"/>
      <point x="286" y="679"/>
      <point x="338" y="679" type="curve" smooth="yes"/>
      <point x="356" y="679" type="line"/>
      <point x="333" y="607"/>
      <point x="321" y="529"/>
      <point x="320" y="444" type="curve"/>
      <point x="86" y="444" type="line"/>
      <point x="87" y="492"/>
      <point x="97" y="545"/>
      <point x="117" y="603" type="curve"/>
      <point x="117" y="669" type="line"/>
      <point x="26" y="669" type="line" smooth="yes"/>
      <point x="-50" y="669"/>
      <point x="-108" y="672"/>
      <point x="-153" y="705" type="curve"/>
      <point x="-153" y="627" type="line"/>
      <point x="-113" y="592"/>
      <point x="-51" y="589"/>
      <point x="26" y="589" type="curve" smooth="yes"/>
      <point x="32" y="589" type="line"/>
      <point x="23" y="546"/>
      <point x="18" y="498"/>
      <point x="16" y="444" type="curve"/>
      <point x="0" y="444" type="line"/>
      <point x="0" y="364" type="line"/>
    </contour>
  </outline>
</glyph>
<glyph name="u1830.finV1" format="2">
  <advance width="428"/>
  <outline>
    <contour>
      <point x="80" y="106" type="curve"/>
      <point x="151" y="106" type="line"/>
      <point x="194" y="312"/>
      <point x="264" y="478"/>
      <point x="383" y="642" type="curve"/>
      <point x="286" y="642" type="line"/>
      <point x="202" y="525"/>
      <point x="131" y="365"/>
      <point x="101" y="223" type="curve"/>
      <point x="97" y="223" type="line"/>
      <point x="46" y="284"/>
      <point x="37" y="351"/>
      <point x="37" y="444" type="curve"/>
      <point x="-33" y="444" type="line"/>
      <point x="-33" y="364" type="line" smooth="yes"/>
      <point x="-33" y="278"/>
      <point x="17" y="178"/>
    </contour>
  </outline>
</glyph>
<glyph name="u1836.medV2" format="2">
  <advance width="381"/>
  <outline>
    <contour>
      <point x="127" y="42" type="curve"/>
      <point x="199" y="85" type="line"/>
      <point x="125" y="188"/>
      <point x="77" y="287"/>
      <point x="77" y="407" type="curve" smooth="yes"/>
      <point x="77" y="544"/>
      <point x="134" y="609"/>
      <point x="226" y="609" type="curve" smooth="yes"/>
      <point x="342" y="609"/>
      <point x="371" y="514"/>
      <point x="381" y="364" type="curve"/>
      <point x="455" y="364" type="line"/>
      <point x="445" y="587"/>
      <point x="375" y="692"/>
      <point x="226" y="692" type="curve" smooth="yes"/>
      <point x="77" y="692"/>
      <point x="-2" y="573"/>
      <point x="-2" y="407" type="curve" smooth="yes"/>
      <point x="-2" y="292"/>
      <point x="41" y="170"/>
    </contour>
  </outline>
</glyph>
<glyph name="u183A_1820.ini" format="2">
  <advance width="714"/>
  <outline>
    <contour>
      <point x="244" y="35" type="curve"/>
      <point x="306" y="90" type="line"/>
      <point x="181" y="225"/>
      <point x="124" y="329"/>
      <point x="124" y="419" type="curve" smooth="yes"/>
      <point x="124" y="546"/>
      <point x="166" y="644"/>
      <point x="274" y="644" type="curve" smooth="yes"/>
      <point x="394" y="644"/>
      <point x="418" y="534"/>
      <point x="430" y="364" type="curve" smooth="yes"/>
      <point x="449" y="96" type="line"/>
      <point x="515" y="96" type="line"/>
      <point x="534" y="364" type="line"/>
      <point x="744" y="364" type="line"/>
      <point x="744" y="444" type="line"/>
      <point x="503" y="444" type="line"/>
      <point x="482" y="614"/>
      <point x="424" y="727"/>
      <point x="274" y="727" type="curve" smooth="yes"/>
      <point x="121" y="727"/>
      <point x="45" y="594"/>
      <point x="45" y="419" type="curve" smooth="yes"/>
      <point x="45" y="96" type="line"/>
      <point x="111" y="96" type="line"/>
      <point x="119" y="215" type="line"/>
      <point x="146" y="157"/>
      <point x="188" y="97"/>
    </contour>
  </outline>
</glyph>
<glyph name="u183A_1847" format="2">
  <advance width="749"/>
  <outline>
    <contour>
      <point x="597" y="-121" type="curve"/>
      <point x="668" y="-81" type="line"/>
      <point x="639" y="-29"/>
      <point x="615" y="19"/>
      <point x="596" y="61" type="curve"/>
      <point x="672" y="106"/>
      <point x="704" y="198"/>
      <point x="704" y="303" type="curve" smooth="yes"/>
      <point x="704" y="561"/>
      <point x="606" y="760"/>
      <point x="365" y="760" type="curve" smooth="yes"/>
      <point x="170" y="760"/>
      <point x="45" y="624"/>
      <point x="45" y="408" type="curve" smooth="yes"/>
      <point x="45" y="76" type="line"/>
      <point x="111" y="76" type="line"/>
      <point x="119" y="192" type="line"/>
      <point x="142" y="147"/>
      <point x="177" y="95"/>
      <point x="224" y="35" type="curve"/>
      <point x="286" y="80" type="line"/>
      <point x="198" y="189"/>
      <point x="124" y="303"/>
      <point x="124" y="419" type="curve" smooth="yes"/>
      <point x="124" y="576"/>
      <point x="214" y="677"/>
      <point x="365" y="677" type="curve" smooth="yes"/>
      <point x="503" y="677"/>
      <point x="586" y="599"/>
      <point x="614" y="444" type="curve"/>
      <point x="367" y="444" type="line"/>
      <point x="343" y="397"/>
      <point x="329" y="330"/>
      <point x="329" y="275" type="curve" smooth="yes"/>
      <point x="329" y="135"/>
      <point x="390" y="40"/>
      <point x="517" y="40" type="curve"/>
      <point x="539" y="-10"/>
      <point x="566" y="-64"/>
    </contour>
    <contour>
      <point x="512" y="123" type="curve" smooth="yes"/>
      <point x="443" y="123"/>
      <point x="408" y="174"/>
      <point x="408" y="275" type="curve" smooth="yes"/>
      <point x="408" y="312"/>
      <point x="414" y="342"/>
      <point x="424" y="364" type="curve"/>
      <point x="623" y="364" type="line"/>
      <point x="625" y="344"/>
      <point x="625" y="324"/>
      <point x="625" y="303" type="curve" smooth="yes"/>
      <point x="625" y="183"/>
      <point x="579" y="123"/>
    </contour>
  </outline>
</glyph>
<glyph name="u183B_1820" format="2">
  <advance width="1021"/>
  <outline>
    <contour>
      <point x="715" y="-264" type="curve"/>
      <point x="797" y="-264" type="line"/>
      <point x="783" y="-238"/>
      <point x="776" y="-213"/>
      <point x="776" y="-187" type="curve" smooth="yes"/>
      <point x="776" y="-125"/>
      <point x="795" y="-92"/>
      <point x="843" y="-31" type="curve" smooth="yes"/>
      <point x="916" y="63"/>
      <point x="976" y="155"/>
      <point x="976" y="245" type="curve" smooth="yes"/>
      <point x="976" y="373"/>
      <point x="898" y="444"/>
      <point x="745" y="444" type="curve" smooth="yes"/>
      <point x="503" y="444" type="line"/>
      <point x="482" y="614"/>
      <point x="424" y="727"/>
      <point x="274" y="727" type="curve" smooth="yes"/>
      <point x="135" y="727"/>
      <point x="45" y="606"/>
      <point x="45" y="417" type="curve" smooth="yes"/>
      <point x="45" y="299"/>
      <point x="88" y="174"/>
      <point x="174" y="42" type="curve"/>
      <point x="245" y="85" type="line"/>
      <point x="183" y="174"/>
      <point x="136" y="262"/>
      <point x="126" y="364" type="curve"/>
      <point x="285" y="364" type="line"/>
      <point x="285" y="444" type="line"/>
      <point x="124" y="444" type="line"/>
      <point x="130" y="579"/>
      <point x="188" y="644"/>
      <point x="274" y="644" type="curve" smooth="yes"/>
      <point x="394" y="644"/>
      <point x="418" y="533"/>
      <point x="430" y="363" type="curve" smooth="yes"/>
      <point x="449" y="96" type="line"/>
      <point x="515" y="96" type="line"/>
      <point x="534" y="364" type="line"/>
      <point x="744" y="364" type="line" smooth="yes"/>
      <point x="851" y="364"/>
      <point x="898" y="325"/>
      <point x="898" y="243" type="curve" smooth="yes"/>
      <point x="898" y="175"/>
      <point x="859" y="116"/>
      <point x="791" y="28" type="curve" smooth="yes"/>
      <point x="736" y="-44"/>
      <point x="696" y="-108"/>
      <point x="696" y="-187" type="curve" smooth="yes"/>
      <point x="696" y="-216"/>
      <point x="702" y="-242"/>
    </contour>
  </outline>
</glyph>
<glyph name="u183B_1822.ini" format="2">
  <advance width="810"/>
  <outline>
    <contour>
      <point x="622" y="-67" type="curve"/>
      <point x="695" y="-31" type="line"/>
      <point x="611" y="101"/>
      <point x="558" y="232"/>
      <point x="533" y="364" type="curve"/>
      <point x="840" y="364" type="line"/>
      <point x="840" y="444" type="line"/>
      <point x="523" y="444" type="line"/>
      <point x="501" y="628"/>
      <point x="444" y="760"/>
      <point x="287" y="760" type="curve" smooth="yes"/>
      <point x="126" y="760"/>
      <point x="45" y="606"/>
      <point x="45" y="417" type="curve" smooth="yes"/>
      <point x="45" y="299"/>
      <point x="88" y="174"/>
      <point x="174" y="42" type="curve"/>
      <point x="245" y="85" type="line"/>
      <point x="183" y="174"/>
      <point x="136" y="262"/>
      <point x="126" y="364" type="curve"/>
      <point x="285" y="364" type="line"/>
      <point x="285" y="444" type="line"/>
      <point x="124" y="444" type="line"/>
      <point x="129" y="572"/>
      <point x="177" y="677"/>
      <point x="287" y="677" type="curve" smooth="yes"/>
      <point x="400" y="677"/>
      <point x="428" y="573"/>
      <point x="447" y="418" type="curve" smooth="yes"/>
      <point x="467" y="253"/>
      <point x="531" y="82"/>
    </contour>
  </outline>
</glyph>
<glyph name="u183B_1847.ini" format="2">
  <advance width="885"/>
  <outline>
    <contour>
      <point x="585" y="-121" type="curve"/>
      <point x="656" y="-81" type="line"/>
      <point x="621" y="-15"/>
      <point x="598" y="31"/>
      <point x="586" y="55" type="curve"/>
      <point x="657" y="90"/>
      <point x="704" y="176"/>
      <point x="704" y="303" type="curve" smooth="yes"/>
      <point x="704" y="324"/>
      <point x="704" y="344"/>
      <point x="702" y="364" type="curve"/>
      <point x="915" y="364" type="line"/>
      <point x="915" y="444" type="line"/>
      <point x="693" y="444" type="line"/>
      <point x="658" y="649"/>
      <point x="545" y="760"/>
      <point x="365" y="760" type="curve" smooth="yes"/>
      <point x="170" y="760"/>
      <point x="45" y="616"/>
      <point x="45" y="408" type="curve" smooth="yes"/>
      <point x="45" y="290"/>
      <point x="86" y="152"/>
      <point x="146" y="42" type="curve"/>
      <point x="219" y="73" type="line"/>
      <point x="164" y="174"/>
      <point x="133" y="271"/>
      <point x="126" y="364" type="curve"/>
      <point x="263" y="364" type="line"/>
      <point x="263" y="444" type="line"/>
      <point x="125" y="444" type="line"/>
      <point x="138" y="588"/>
      <point x="226" y="677"/>
      <point x="365" y="677" type="curve" smooth="yes"/>
      <point x="503" y="677"/>
      <point x="586" y="599"/>
      <point x="614" y="444" type="curve"/>
      <point x="367" y="444" type="line"/>
      <point x="343" y="397"/>
      <point x="329" y="330"/>
      <point x="329" y="275" type="curve" smooth="yes"/>
      <point x="329" y="141"/>
      <point x="384" y="44"/>
      <point x="505" y="40" type="curve"/>
      <point x="527" y="-10"/>
      <point x="554" y="-64"/>
    </contour>
    <contour>
      <point x="512" y="123" type="curve" smooth="yes"/>
      <point x="443" y="123"/>
      <point x="408" y="174"/>
      <point x="408" y="275" type="curve" smooth="yes"/>
      <point x="408" y="312"/>
      <point x="414" y="342"/>
      <point x="424" y="364" type="curve"/>
      <point x="623" y="364" type="line"/>
      <point x="625" y="344"/>
      <point x="625" y="324"/>
      <point x="625" y="303" type="curve" smooth="yes"/>
      <point x="625" y="183"/>
      <point x="579" y="123"/>
    </contour>
  </outline>
</glyph>
<glyph name="u1843.fin" format="2">
  <advance width="399"/>
  <outline>
    <contour>
      <point x="88" y="-264" type="curve"/>
      <point x="170" y="-264" type="line"/>
      <point x="156" y="-238"/>
      <point x="149" y="-213"/>
      <point x="149" y="-187" type="curve" smooth="yes"/>
      <point x="149" y="-125"/>
      <point x="169" y="-92"/>
      <point x="216" y="-31" type="curve" smooth="yes"/>
      <point x="290" y="64"/>
      <point x="349" y="155"/>
      <point x="349" y="245" type="curve" smooth="yes"/>
      <point x="349" y="373"/>
      <point x="271" y="444"/>
      <point x="118" y="444" type="curve" smooth="yes"/>
      <point x="65" y="444" type="line"/>
      <point x="88" y="632" type="line"/>
      <point x="0" y="632" type="line"/>
      <point x="22" y="444" type="line"/>
      <point x="0" y="444" type="line"/>
      <point x="0" y="364" type="line"/>
      <point x="117" y="364" type="line" smooth="yes"/>
      <point x="223" y="364"/>
      <point x="271" y="325"/>
      <point x="271" y="245" type="curve" smooth="yes"/>
      <point x="271" y="177"/>
      <point x="229" y="113"/>
      <point x="164" y="28" type="curve" smooth="yes"/>
      <point x="109" y="-44"/>
      <point x="69" y="-108"/>
      <point x="69" y="-187" type="curve" smooth="yes"/>
      <point x="69" y="-216"/>
      <point x="75" y="-242"/>
    </contour>
  </outline>
</glyph>
<glyph name="u1843.med" format="2">
  <advance width="120"/>
  <outline>
    <contour>
      <point x="0" y="364" type="line"/>
      <point x="161" y="364" type="line"/>
      <point x="161" y="444" type="line"/>
      <point x="65" y="444" type="line"/>
      <point x="88" y="632" type="line"/>
      <point x="0" y="632" type="line"/>
      <point x="22" y="444" type="line"/>
      <point x="0" y="444" type="line"/>
    </contour>
  </outline>
</glyph>
<glyph name="u1844.ini" format="2">
  <advance width="976"/>
  <outline>
    <contour>
      <point x="854" y="9" type="curve"/>
      <point x="854" y="92" type="line"/>
      <point x="833" y="110"/>
      <point x="798" y="119"/>
      <point x="749" y="119" type="curve" smooth="yes"/>
      <point x="708" y="119" type="line" smooth="yes"/>
      <point x="617" y="119"/>
      <point x="571" y="167"/>
      <point x="571" y="263" type="curve" smooth="yes"/>
      <point x="571" y="364" type="line"/>
      <point x="1006" y="364" type="line"/>
      <point x="1006" y="444" type="line"/>
      <point x="444" y="444" type="line" smooth="yes"/>
      <point x="360" y="444"/>
      <point x="307" y="416"/>
      <point x="285" y="361" type="curve"/>
      <point x="281" y="361" type="line"/>
      <point x="278" y="445" type="line" smooth="yes"/>
      <point x="273" y="575"/>
      <point x="248" y="653"/>
      <point x="139" y="653" type="curve" smooth="yes"/>
      <point x="100" y="653"/>
      <point x="57" y="643"/>
      <point x="10" y="623" type="curve"/>
      <point x="10" y="550" type="line"/>
      <point x="52" y="567"/>
      <point x="88" y="575"/>
      <point x="118" y="575" type="curve" smooth="yes"/>
      <point x="179" y="575"/>
      <point x="194" y="520"/>
      <point x="200" y="437" type="curve" smooth="yes"/>
      <point x="226" y="74" type="line"/>
      <point x="292" y="74" type="line"/>
      <point x="302" y="219" type="line" smooth="yes"/>
      <point x="309" y="326"/>
      <point x="335" y="364"/>
      <point x="445" y="364" type="curve" smooth="yes"/>
      <point x="492" y="364" type="line"/>
      <point x="492" y="263" type="line" smooth="yes"/>
      <point x="492" y="109"/>
      <point x="569" y="36"/>
      <point x="708" y="36" type="curve" smooth="yes"/>
      <point x="749" y="36" type="line" smooth="yes"/>
      <point x="799" y="36"/>
      <point x="834" y="27"/>
    </contour>
  </outline>
</glyph>
<glyph name="u1844.med" format="2">
  <advance width="484"/>
  <outline>
    <contour>
      <point x="362" y="9" type="curve"/>
      <point x="362" y="92" type="line"/>
      <point x="344" y="108"/>
      <point x="306" y="119"/>
      <point x="257" y="119" type="curve" smooth="yes"/>
      <point x="216" y="119" type="line" smooth="yes"/>
      <point x="125" y="119"/>
      <point x="79" y="167"/>
      <point x="79" y="263" type="curve" smooth="yes"/>
      <point x="79" y="364" type="line"/>
      <point x="514" y="364" type="line"/>
      <point x="514" y="444" type="line"/>
      <point x="0" y="444" type="line"/>
      <point x="0" y="263" type="line" smooth="yes"/>
      <point x="0" y="109"/>
      <point x="77" y="36"/>
      <point x="216" y="36" type="curve" smooth="yes"/>
      <point x="257" y="36" type="line" smooth="yes"/>
      <point x="307" y="36"/>
      <point x="342" y="27"/>
    </contour>
  </outline>
</glyph>
<glyph name="u1844.medV1" format="2">
  <advance width="768"/>
  <outline>
    <contour>
      <point x="646" y="9" type="curve"/>
      <point x="646" y="92" type="line"/>
      <point x="625" y="110"/>
      <point x="590" y="119"/>
      <point x="541" y="119" type="curve" smooth="yes"/>
      <point x="500" y="119" type="line" smooth="yes"/>
      <point x="409" y="119"/>
      <point x="363" y="167"/>
      <point x="363" y="263" type="curve" smooth="yes"/>
      <point x="363" y="364" type="line"/>
      <point x="798" y="364" type="line"/>
      <point x="798" y="444" type="line"/>
      <point x="0" y="444" type="line"/>
      <point x="0" y="364" type="line"/>
      <point x="19" y="96" type="line"/>
      <point x="85" y="96" type="line"/>
      <point x="104" y="364" type="line"/>
      <point x="284" y="364" type="line"/>
      <point x="284" y="263" type="line" smooth="yes"/>
      <point x="284" y="109"/>
      <point x="361" y="36"/>
      <point x="500" y="36" type="curve" smooth="yes"/>
      <point x="541" y="36" type="line" smooth="yes"/>
      <point x="591" y="36"/>
      <point x="626" y="27"/>
    </contour>
  </outline>
</glyph>
<glyph name="u1845.med" format="2">
  <advance width="544"/>
  <outline>
    <contour>
      <point x="422" y="9" type="curve"/>
      <point x="422" y="92" type="line"/>
      <point x="404" y="108"/>
      <point x="366" y="119"/>
      <point x="317" y="119" type="curve" smooth="yes"/>
      <point x="288" y="119" type="line"/>
      <point x="288" y="364" type="line"/>
      <point x="574" y="364" type="line"/>
      <point x="574" y="444" type="line"/>
      <point x="209" y="444" type="line"/>
      <point x="209" y="119" type="line"/>
      <point x="176" y="119" type="line" smooth="yes"/>
      <point x="111" y="119"/>
      <point x="79" y="154"/>
      <point x="79" y="223" type="curve" smooth="yes"/>
      <point x="79" y="444" type="line"/>
      <point x="0" y="444" type="line"/>
      <point x="0" y="223" type="line" smooth="yes"/>
      <point x="0" y="99"/>
      <point x="59" y="36"/>
      <point x="176" y="36" type="curve" smooth="yes"/>
      <point x="317" y="36" type="line" smooth="yes"/>
      <point x="367" y="36"/>
      <point x="402" y="27"/>
    </contour>
  </outline>
</glyph>
<glyph name="u1846.fin" format="2">
  <advance width="423"/>
  <outline>
    <contour>
      <point x="378" y="3" type="line"/>
      <point x="378" y="444" type="line"/>
      <point x="0" y="444" type="line"/>
      <point x="0" y="267" type="line" smooth="yes"/>
      <point x="0" y="154"/>
      <point x="57" y="73"/>
      <point x="176" y="47" type="curve" smooth="yes"/>
    </contour>
    <contour>
      <point x="300" y="104" type="line"/>
      <point x="198" y="127" type="line" smooth="yes"/>
      <point x="118" y="145"/>
      <point x="79" y="196"/>
      <point x="79" y="267" type="curve" smooth="yes"/>
      <point x="79" y="364" type="line"/>
      <point x="300" y="364" type="line"/>
    </contour>
  </outline>
</glyph>
<glyph name="u1847.medV1" format="2">
  <advance width="857"/>
  <outline>
    <contour>
      <point x="560" y="-121" type="curve"/>
      <point x="631" y="-81" type="line"/>
      <point x="605" y="-37"/>
      <point x="583" y="9"/>
      <point x="562" y="54" type="curve"/>
      <point x="634" y="81"/>
      <point x="679" y="145"/>
      <point x="679" y="249" type="curve" smooth="yes"/>
      <point x="679" y="293"/>
      <point x="672" y="331"/>
      <point x="657" y="364" type="curve"/>
      <point x="887" y="364" type="line"/>
      <point x="887" y="444" type="line"/>
      <point x="0" y="444" type="line"/>
      <point x="0" y="364" type="line"/>
      <point x="19" y="96" type="line"/>
      <point x="85" y="96" type="line"/>
      <point x="104" y="364" type="line"/>
      <point x="304" y="364" type="line"/>
      <point x="291" y="333"/>
      <point x="284" y="294"/>
      <point x="284" y="249" type="curve" smooth="yes"/>
      <point x="284" y="116"/>
      <point x="354" y="40"/>
      <point x="480" y="40" type="curve"/>
      <point x="502" y="-10"/>
      <point x="529" y="-64"/>
    </contour>
    <contour>
      <point x="481" y="123" type="curve" smooth="yes"/>
      <point x="402" y="123"/>
      <point x="363" y="166"/>
      <point x="363" y="251" type="curve" smooth="yes"/>
      <point x="363" y="294"/>
      <point x="370" y="332"/>
      <point x="383" y="364" type="curve"/>
      <point x="580" y="364" type="line"/>
      <point x="593" y="332"/>
      <point x="600" y="294"/>
      <point x="600" y="251" type="curve" smooth="yes"/>
      <point x="600" y="166"/>
      <point x="555" y="123"/>
    </contour>
  </outline>
</glyph>
<glyph name="u1848_1843.fin" format="2">
  <advance width="423"/>
  <outline>
    <contour>
      <point x="292" y="364" type="line"/>
      <point x="378" y="364" type="line"/>
      <point x="378" y="444" type="line"/>
      <point x="357" y="444" type="line"/>
      <point x="380" y="632" type="line"/>
      <point x="292" y="632" type="line"/>
      <point x="314" y="444" type="line"/>
      <point x="292" y="444" type="line"/>
    </contour>
    <component base="u1848.fin"/>
  </outline>
</glyph>
<glyph name="u184B_1848" format="2">
  <advance width="797"/>
  <outline>
    <contour>
      <point x="249" y="40" type="curve" smooth="yes"/>
      <point x="311" y="40"/>
      <point x="370" y="72"/>
      <point x="396" y="135" type="curve"/>
      <point x="424" y="71"/>
      <point x="474" y="40"/>
      <point x="538" y="40" type="curve" smooth="yes"/>
      <point x="683" y="40"/>
      <point x="752" y="146"/>
      <point x="752" y="375" type="curve" smooth="yes"/>
      <point x="752" y="586"/>
      <point x="653" y="752"/>
      <point x="461" y="778" type="curve"/>
      <point x="440" y="827"/>
      <point x="412" y="886"/>
      <point x="376" y="953" type="curve"/>
      <point x="305" y="913" type="line"/>
      <point x="335" y="857"/>
      <point x="357" y="813"/>
      <point x="372" y="780" type="curve"/>
      <point x="162" y="764"/>
      <point x="45" y="601"/>
      <point x="45" y="375" type="curve" smooth="yes"/>
      <point x="45" y="155"/>
      <point x="107" y="40"/>
    </contour>
    <contour>
      <point x="248" y="123" type="curve" smooth="yes"/>
      <point x="144" y="123"/>
      <point x="124" y="222"/>
      <point x="124" y="364" type="curve"/>
      <point x="359" y="364" type="line"/>
      <point x="359" y="283" type="line" smooth="yes"/>
      <point x="359" y="192"/>
      <point x="322" y="123"/>
    </contour>
    <contour>
      <point x="538" y="123" type="curve" smooth="yes"/>
      <point x="471" y="123"/>
      <point x="438" y="177"/>
      <point x="438" y="286" type="curve" smooth="yes"/>
      <point x="438" y="364" type="line"/>
      <point x="673" y="364" type="line"/>
      <point x="668" y="188"/>
      <point x="638" y="123"/>
    </contour>
    <contour>
      <point x="127" y="444" type="line"/>
      <point x="148" y="605"/>
      <point x="234" y="699"/>
      <point x="405" y="699" type="curve" smooth="yes"/>
      <point x="556" y="699"/>
      <point x="647" y="596"/>
      <point x="668" y="444" type="curve"/>
    </contour>
  </outline>
</glyph>
